<svg width="56" height="56" viewBox="0 0 56 56" fill="none" xmlns="http://www.w3.org/2000/svg">
<path d="M32.5986 40.2731C36.4119 44.0998 40.2286 47.9231 44.0486 51.7431L45.9986 53.6831C46.1986 53.8898 46.4086 54.0898 46.6286 54.2831C47.177 54.7503 47.8136 55.1025 48.5007 55.3189C49.1878 55.5354 49.9114 55.6116 50.6286 55.5431C51.3307 55.4796 52.0131 55.2771 52.6363 54.9475C53.2595 54.6179 53.8109 54.1677 54.2586 53.6231C55.1406 52.5537 55.5829 51.1888 55.4956 49.8053C55.4083 48.4217 54.798 47.1232 53.7886 46.1731C49.2819 41.6465 44.7719 37.1265 40.2586 32.6131C40.0702 32.4733 39.9438 32.2654 39.9065 32.0338C39.8691 31.8022 39.9237 31.5651 40.0586 31.3731C42.6502 26.6969 43.3243 21.1968 41.9386 16.0331C40.9585 12.1928 38.9265 8.70215 36.0709 5.95368C33.2154 3.2052 29.6496 1.30796 25.7747 0.475334C21.8998 -0.357291 17.8694 -0.0922725 14.1369 1.24059C10.4044 2.57345 7.11778 4.92128 4.64673 8.02001C2.17567 11.1187 0.618205 14.8455 0.149487 18.781C-0.31923 22.7166 0.319396 26.7048 1.99354 30.2972C3.66769 33.8897 6.31095 36.9437 9.62602 39.1159C12.9411 41.2882 16.7965 42.4924 20.7586 42.5931H21.0086C24.6211 42.6753 28.1913 41.8026 31.3586 40.0631C31.5218 39.9627 31.7073 39.9043 31.8986 39.8931C32.0351 39.9051 32.1676 39.945 32.288 40.0104C32.4084 40.0758 32.5141 40.1652 32.5986 40.2731ZM42.5986 37.3931L42.8786 37.6531L52.6786 47.4631C53.1758 47.9368 53.533 48.5382 53.711 49.2014C53.8891 49.8646 53.8811 50.564 53.6879 51.223C53.4948 51.882 53.1239 52.4751 52.616 52.9372C52.1081 53.3994 51.4828 53.7128 50.8086 53.8431C50.5425 53.9016 50.271 53.9318 49.9986 53.9331C49.5519 53.9359 49.1092 53.8488 48.6969 53.677C48.2846 53.5052 47.9111 53.2523 47.5986 52.9331C45.0386 50.3598 42.4819 47.8065 39.9286 45.2731L37.3786 42.6731C37.3349 42.6287 37.2979 42.5781 37.2686 42.5231L37.1686 42.3731L37.4586 42.0631L42.3786 37.1431L42.5986 37.3931ZM40.9186 35.8631L35.8286 40.9631L33.7286 38.8431L38.7986 33.7631L40.9186 35.8631ZM21.2586 40.9631C17.3565 40.9582 13.5443 39.791 10.3083 37.6104C7.07233 35.4298 4.55925 32.3348 3.08964 28.72C1.62002 25.1052 1.2605 21.1346 2.05692 17.3146C2.85334 13.4946 4.7696 9.9985 7.56127 7.27215C10.3529 4.5458 13.8935 2.71283 17.7312 2.00706C21.569 1.30128 25.5299 1.7547 29.1089 3.30947C32.6879 4.86424 35.7226 7.44988 37.826 10.7366C39.9293 14.0233 41.006 17.862 40.9186 21.7631C40.7733 26.8889 38.6411 31.7574 34.9726 35.3402C31.304 38.9229 26.3863 40.9392 21.2586 40.9631Z" fill="black"/>
<path d="M9.25864 33.2734C10.8267 34.8618 12.6954 36.1219 14.7557 36.9804C16.816 37.8389 19.0267 38.2784 21.2586 38.2734C23.5146 38.2757 25.7483 37.8266 27.8281 36.9524C29.9079 36.0783 31.7917 34.7968 33.3686 33.1834C34.9295 31.6192 36.1651 29.7615 37.0044 27.7174C37.8437 25.6732 38.27 23.4831 38.2586 21.2734C38.2908 16.8188 36.5607 12.5321 33.4456 9.34767C30.3305 6.16324 26.0829 4.3393 21.6286 4.27344H21.3086C16.9119 4.27017 12.6881 5.98554 9.53863 9.05344C7.90006 10.608 6.59012 12.4755 5.68641 14.5455C4.7827 16.6155 4.3036 18.8457 4.2775 21.1042C4.25139 23.3627 4.67879 25.6035 5.53441 27.6938C6.39002 29.7841 7.65643 31.6815 9.25864 33.2734ZM30.2586 33.2734C30.2455 33.4288 30.1994 33.5796 30.1236 33.7157C30.0477 33.8519 29.9438 33.9705 29.8186 34.0634C29.4086 34.3434 28.9686 34.5934 28.4986 34.8534L27.9086 35.1834L27.5786 35.3834V29.0534C27.5786 28.6734 27.4686 28.0534 26.7686 28.0534C26.6688 28.0457 26.5685 28.0586 26.4739 28.0913C26.3793 28.124 26.2924 28.1758 26.2186 28.2434C26.1243 28.3508 26.0526 28.4761 26.0079 28.6119C25.9632 28.7476 25.9465 28.891 25.9586 29.0334V30.0334C25.9586 31.7634 25.9586 33.4934 25.9586 35.2234C25.9741 35.3318 25.968 35.4422 25.9407 35.5483C25.9134 35.6543 25.8653 35.7539 25.7993 35.8412C25.7333 35.9286 25.6507 36.0021 25.5562 36.0574C25.4617 36.1127 25.3571 36.1487 25.2486 36.1634C23.979 36.4973 22.6714 36.6654 21.3586 36.6634C20.0572 36.6622 18.7608 36.501 17.4986 36.1834C17.3841 36.1694 17.2737 36.1316 17.1746 36.0725C17.0755 36.0134 16.9898 35.9342 16.923 35.8401C16.8561 35.746 16.8097 35.639 16.7866 35.5259C16.7634 35.4129 16.7641 35.2962 16.7886 35.1834C16.7886 33.6834 16.7886 32.1834 16.7886 30.6834V29.4634C16.7886 29.2534 16.7886 29.0434 16.7886 28.8334C16.7889 28.7231 16.7664 28.614 16.7225 28.5128C16.6786 28.4116 16.6143 28.3206 16.5335 28.2454C16.4528 28.1703 16.3573 28.1127 16.2532 28.0762C16.1491 28.0397 16.0386 28.0252 15.9286 28.0334C15.8186 28.0383 15.7107 28.0656 15.6116 28.1136C15.5124 28.1616 15.4241 28.2294 15.352 28.3127C15.28 28.396 15.2256 28.4931 15.1924 28.5981C15.1591 28.7031 15.1476 28.8138 15.1586 28.9234V35.3934L14.1586 34.8434C13.6586 34.5534 13.2186 34.2934 12.7786 34.0134C12.6781 33.9272 12.5982 33.8196 12.5445 33.6985C12.4909 33.5774 12.465 33.4458 12.4686 33.3134V33.0934C12.4686 30.9734 12.4686 28.7734 12.4686 26.6134C12.4663 25.9776 12.6781 25.3595 13.07 24.8588C13.4618 24.3581 14.0109 24.004 14.6286 23.8534C14.7886 23.8534 14.9586 23.7534 15.1286 23.6934C15.6189 23.467 16.1623 23.3805 16.6986 23.4434C17.16 23.6278 17.5567 23.9444 17.8386 24.3534C17.9586 24.5034 18.0886 24.6434 18.2086 24.7734L19.3786 25.9334C19.7686 26.3334 20.1586 26.7234 20.5586 27.1134C21.1286 27.6834 21.5586 27.6734 22.0986 27.1134C23.2286 25.9834 24.3686 24.8534 25.4886 23.7134C25.6047 23.5676 25.7649 23.4634 25.9452 23.4165C26.1256 23.3696 26.3163 23.3826 26.4886 23.4534C26.7886 23.5534 27.1086 23.6334 27.4186 23.7034L27.6986 23.7734C28.4406 23.8822 29.1149 24.2649 29.5887 24.846C30.0626 25.4272 30.3016 26.1648 30.2586 26.9134C30.2586 29.0734 30.2586 31.2734 30.1886 33.2734H30.2586ZM9.65864 11.3434C12.393 8.3465 16.2059 6.55853 20.2586 6.37286C24.3113 6.1872 28.2717 7.61906 31.2686 10.3534C34.2656 13.0878 36.0535 16.9007 36.2392 20.9534C36.4249 25.0061 34.993 28.9665 32.2586 31.9634L31.8986 32.3234V31.5834C31.8986 31.4334 31.8986 31.3034 31.8986 31.1734V26.7534C31.9071 25.7107 31.557 24.6966 30.9072 23.8811C30.2573 23.0656 29.347 22.498 28.3286 22.2734L27.5686 22.0734C27.0786 21.9434 26.5686 21.8234 26.0886 21.6834C25.8575 21.6 25.606 21.5908 25.3694 21.6571C25.1327 21.7234 24.9227 21.862 24.7686 22.0534C24.0186 22.8434 23.2486 23.6234 22.4586 24.4234L21.3086 25.5834L21.1486 25.4234L20.2586 24.5234C19.6065 23.9186 18.9889 23.2776 18.4086 22.6034C18.1214 22.1523 17.6743 21.8263 17.1569 21.6909C16.6395 21.5556 16.09 21.6208 15.6186 21.8734C15.2944 21.9941 14.9596 22.0845 14.6186 22.1434L14.2586 22.2734C13.2701 22.5179 12.3924 23.0877 11.7667 23.8911C11.1409 24.6946 10.8035 25.6851 10.8086 26.7034V32.3534L10.4286 31.9934C7.70615 29.2904 6.11216 25.6541 5.96921 21.8204C5.82625 17.9866 7.14502 14.2417 9.65864 11.3434Z" fill="black"/>
<path d="M21.2589 21.0534C22.9024 21.0614 24.4821 20.4175 25.6518 19.2628C26.8214 18.1082 27.4857 16.5369 27.4989 14.8934C27.5103 13.2384 26.8668 11.6459 25.7089 10.4634C25.1314 9.88595 24.4453 9.42867 23.69 9.118C22.9348 8.80733 22.1255 8.64942 21.3089 8.65339H21.0789C19.55 8.67501 18.0871 9.2795 16.9889 10.3434C16.383 10.9134 15.9001 11.6014 15.5699 12.3649C15.2398 13.1285 15.0692 13.9515 15.0689 14.7834C15.0583 15.603 15.2106 16.4165 15.5169 17.1768C15.8232 17.937 16.2775 18.6289 16.8534 19.2122C17.4292 19.7955 18.1152 20.2586 18.8714 20.5747C19.6277 20.8907 20.4392 21.0535 21.2589 21.0534ZM21.2589 10.2734C21.8594 10.2721 22.4542 10.3894 23.0093 10.6186C23.5643 10.8478 24.0687 11.1843 24.4933 11.609C24.9179 12.0336 25.2545 12.5379 25.4837 13.093C25.7129 13.648 25.8302 14.2429 25.8289 14.8434C25.8276 15.4422 25.7083 16.0349 25.4779 16.5877C25.2476 17.1404 24.9106 17.6424 24.4862 18.0649C24.0619 18.4874 23.5584 18.8222 23.0047 19.0501C22.4509 19.2781 21.8577 19.3947 21.2589 19.3934C20.0495 19.3934 18.8896 18.913 18.0345 18.0578C17.1793 17.2026 16.6989 16.0428 16.6989 14.8334C16.6989 13.624 17.1793 12.4642 18.0345 11.609C18.8896 10.7538 20.0495 10.2734 21.2589 10.2734Z" fill="black"/>
</svg>
