<svg width="50" height="57" viewBox="0 0 50 57" fill="none" xmlns="http://www.w3.org/2000/svg">
<path d="M37.5576 26.4998C37.2372 26.2253 37.0334 25.8392 36.9876 25.4198C36.9859 24.9131 37.0532 24.4084 37.1876 23.9198C37.7588 21.0564 37.5762 18.0937 36.6576 15.3221C35.739 12.5505 34.1159 10.0652 31.9476 8.10981C31.4376 7.63981 30.8176 6.78982 30.0976 7.64982C29.3776 8.50982 30.3476 8.91981 30.8576 9.29981C31.5134 9.73412 32.0022 10.3784 32.2439 11.127C32.4855 11.8755 32.4657 12.684 32.1876 13.4198C31.8518 14.789 31.4002 16.1272 30.8376 17.4198C30.4652 18.1077 30.2384 18.8649 30.1713 19.6442C30.1042 20.4236 30.1983 21.2084 30.4476 21.9498C31.0976 23.9498 31.6876 25.9498 32.4476 27.8698C32.5486 28.0889 32.7016 28.2799 32.8933 28.4263C33.085 28.5727 33.3096 28.67 33.5476 28.7098C34.2776 28.6198 34.1676 27.9798 33.9776 27.4098C33.3276 25.4098 32.6376 23.4098 32.0676 21.4098C31.8205 20.7129 31.7789 19.9597 31.9476 19.2398C32.3676 17.9898 32.8876 16.7698 33.4176 15.5298C33.4815 15.377 33.5891 15.2464 33.727 15.1546C33.8649 15.0628 34.0269 15.0138 34.1926 15.0138C34.3582 15.0138 34.5202 15.0628 34.6581 15.1546C34.796 15.2464 34.9037 15.377 34.9676 15.5298C35.7353 17.5353 36.0063 19.6968 35.7576 21.8298C35.0476 27.8298 34.2676 33.8298 33.4976 39.8298C33.3881 40.9503 33.0066 42.027 32.3862 42.9664C31.7657 43.9058 30.9251 44.6794 29.9376 45.2198C27.4376 46.5665 24.9642 47.9198 22.5176 49.2798C21.7183 49.7532 20.8065 50.003 19.8776 50.003C18.9486 50.003 18.0368 49.7532 17.2376 49.2798C14.7376 47.8998 12.2376 46.5198 9.74756 45.0898C8.82344 44.5876 8.03272 43.8718 7.4413 43.0021C6.84988 42.1323 6.47488 41.1338 6.34756 40.0898C6.05756 38.0898 5.80756 36.0898 5.55756 34.1498C5.01756 29.8698 4.41756 25.5998 3.98756 21.3098C3.79083 19.2707 4.08219 17.214 4.83756 15.3098C4.89579 15.1497 5.00188 15.0114 5.14142 14.9137C5.28096 14.816 5.4472 14.7635 5.61756 14.7635C5.78792 14.7635 5.95415 14.816 6.09369 14.9137C6.23323 15.0114 6.33932 15.1497 6.39756 15.3098C6.71133 16.2435 7.07861 17.1583 7.49756 18.0498C7.79229 18.5771 7.97067 19.1614 8.02069 19.7634C8.07071 20.3654 7.99122 20.9711 7.78756 21.5398C7.13756 23.4298 6.55756 25.3398 5.92756 27.2398C5.73756 27.8298 5.51756 28.5098 6.34756 28.6398C6.66756 28.6398 7.34756 28.1698 7.43756 27.7798C8.18756 25.6798 8.84756 23.5498 9.51756 21.4198C9.72435 20.801 9.79565 20.145 9.72664 19.4963C9.65762 18.8475 9.4499 18.2212 9.11756 17.6598C8.12441 15.9865 7.58018 14.0852 7.53756 12.1398C7.55647 11.2621 7.87792 10.4178 8.44755 9.74981C10.2129 7.93724 12.4233 6.61999 14.8576 5.92981C15.5376 5.71981 16.1276 5.38981 15.6376 4.63981C15.4676 4.36981 14.7076 4.29981 14.2976 4.41981C11.8131 5.14299 9.53247 6.43761 7.63802 8.20009C5.74357 9.96257 4.28793 12.144 3.38756 14.5698C1.96756 18.0898 2.19756 21.6998 2.72756 25.3498C2.73074 25.5699 2.68377 25.7879 2.59021 25.9871C2.49665 26.1864 2.35895 26.3617 2.18756 26.4998C-0.702443 28.4998 -0.812445 33.3398 2.35755 35.0598C3.02332 35.3744 3.58044 35.8799 3.95797 36.5121C4.3355 37.1443 4.51637 37.8745 4.47756 38.6098C4.47756 39.1098 4.59756 39.6098 4.66756 40.1198C4.99756 42.5798 6.02755 44.8098 8.19755 45.9398C10.1376 46.9398 10.0976 48.2398 9.81756 49.9398C9.56197 51.5964 9.39506 53.2654 9.31756 54.9398C9.31517 55.013 9.33243 55.0855 9.36756 55.1498C9.42648 55.2781 9.51791 55.3888 9.63279 55.4709C9.74767 55.5529 9.882 55.6036 10.0225 55.6177C10.163 55.6319 10.3047 55.609 10.4336 55.5515C10.5626 55.494 10.6742 55.4038 10.7576 55.2898C10.7964 55.2366 10.8299 55.1796 10.8576 55.1198C10.9942 54.5894 11.0779 54.0467 11.1076 53.4998C11.2576 52.1598 11.4076 50.8098 11.5576 49.3898C11.5739 49.2542 11.6231 49.1247 11.7009 49.0124C11.7786 48.9001 11.8826 48.8085 12.0038 48.7454C12.1249 48.6824 12.2596 48.6498 12.3962 48.6506C12.5328 48.6514 12.6671 48.6854 12.7876 48.7498C13.7876 49.3098 14.7876 49.8198 15.6876 50.3798C16.9176 51.2061 18.3658 51.6474 19.8476 51.6474C21.3293 51.6474 22.7776 51.2061 24.0076 50.3798C24.7276 49.9398 25.4676 49.5398 26.2676 49.0898C26.3887 49.0253 26.5238 48.9914 26.6611 48.9912C26.7984 48.9909 26.9336 49.0243 27.055 49.0885C27.1764 49.1526 27.2802 49.2455 27.3573 49.3591C27.4345 49.4726 27.4826 49.6033 27.4976 49.7398C27.6876 51.5498 27.8576 53.2398 28.1076 54.9098C28.1676 55.3298 28.6176 55.9898 28.9376 56.0098C29.7876 56.0898 29.7276 55.3398 29.6776 54.7498C29.5076 52.9898 29.4276 51.2198 29.1176 49.4898C28.925 48.9461 28.9558 48.3482 29.2033 47.8271C29.4507 47.3061 29.8945 46.9043 30.4376 46.7098C31.7884 46.0543 32.9367 45.0454 33.7606 43.7901C34.5846 42.5348 35.0535 41.08 35.1176 39.5798C35.1976 38.6798 35.3776 37.7898 35.4576 36.8998C35.4572 36.6132 35.5569 36.3355 35.7394 36.1146C35.922 35.8936 36.176 35.7434 36.4576 35.6898C38.7376 34.8998 39.4576 32.9298 39.7376 30.7998C39.84 29.9478 39.6876 29.0846 39.2995 28.3193C38.9115 27.5539 38.3053 26.9208 37.5576 26.4998ZM1.92756 31.7398C1.92756 31.7398 1.92756 31.7398 1.92756 31.6798V31.5198V31.4098V31.2398C1.92291 31.2066 1.92291 31.173 1.92756 31.1398V30.9498V30.8698C1.9324 30.7799 1.9324 30.6897 1.92756 30.5998C1.92756 30.5398 1.92756 30.4798 1.92756 30.4098V30.0398C1.92756 30.0398 1.92756 30.0398 1.92756 29.9598C1.92756 29.8798 1.92756 29.8998 1.92756 29.8598C2.00632 29.4735 2.17257 29.1104 2.41352 28.7984C2.65448 28.4864 2.96374 28.2337 3.31756 28.0598L3.55756 29.9198L3.68756 30.9198L4.11756 34.1398C3.58077 33.9551 3.09895 33.6386 2.71631 33.2193C2.33367 32.7999 2.06246 32.2912 1.92756 31.7398ZM38.1176 30.3898C38.1268 30.4829 38.1268 30.5767 38.1176 30.6698C38.1176 30.7798 38.1176 30.8798 38.0676 30.9898V31.0798C38.0676 31.1898 38.0676 31.3098 37.9976 31.4198C37.9976 31.5298 37.9476 31.6398 37.9176 31.7498C37.8876 31.8598 37.9176 31.7498 37.9176 31.8298C37.9176 31.9098 37.8576 32.0398 37.8176 32.1498C37.6747 32.6009 37.4272 33.0118 37.0953 33.3489C36.7633 33.6861 36.3564 33.94 35.9076 34.0898C36.1776 31.9798 36.4276 30.0898 36.6876 27.9798C37.3033 28.2994 37.7724 28.8437 37.9976 29.4998L38.0576 29.7398C38.0576 29.7398 38.0576 29.7398 38.0576 29.7998C38.0672 29.8795 38.0672 29.9601 38.0576 30.0398V30.3898H38.1176Z" fill="black"/>
<path d="M11.9375 10.75C11.9375 10.5522 11.8789 10.3589 11.769 10.1944C11.6591 10.03 11.5029 9.90181 11.3202 9.82612C11.1375 9.75043 10.9364 9.73063 10.7424 9.76921C10.5484 9.8078 10.3702 9.90304 10.2304 10.0429C10.0905 10.1827 9.9953 10.3609 9.95671 10.5549C9.91813 10.7489 9.93793 10.95 10.0136 11.1327C10.0893 11.3154 10.2175 11.4716 10.3819 11.5815C10.5464 11.6914 10.7397 11.75 10.9375 11.75C11.2027 11.75 11.4571 11.6446 11.6446 11.4571C11.8321 11.2696 11.9375 11.0152 11.9375 10.75Z" fill="black"/>
<path d="M28.8477 9.71973C28.6499 9.71973 28.4565 9.77837 28.2921 9.88826C28.1276 9.99814 27.9995 10.1543 27.9238 10.337C27.8481 10.5198 27.8283 10.7208 27.8669 10.9148C27.9055 11.1088 28.0007 11.287 28.1406 11.4268C28.2804 11.5667 28.4586 11.6619 28.6526 11.7005C28.8465 11.7391 29.0476 11.7193 29.2303 11.6436C29.4131 11.5679 29.5692 11.4397 29.6791 11.2753C29.789 11.1108 29.8477 10.9175 29.8477 10.7197C29.8477 10.4545 29.7423 10.2002 29.5548 10.0126C29.3672 9.82508 29.1129 9.71973 28.8477 9.71973Z" fill="black"/>
<path d="M11.5075 15.1899C12.0764 15.1899 12.5375 14.7287 12.5375 14.1599C12.5375 13.591 12.0764 13.1299 11.5075 13.1299C10.9387 13.1299 10.4775 13.591 10.4775 14.1599C10.4775 14.7287 10.9387 15.1899 11.5075 15.1899Z" fill="black"/>
<path d="M28.2676 13.1201C28.0698 13.1201 27.8765 13.1788 27.712 13.2887C27.5476 13.3985 27.4194 13.5547 27.3437 13.7374C27.268 13.9202 27.2482 14.1212 27.2868 14.3152C27.3254 14.5092 27.4206 14.6874 27.5605 14.8272C27.7003 14.9671 27.8785 15.0623 28.0725 15.1009C28.2665 15.1395 28.4675 15.1197 28.6503 15.044C28.833 14.9683 28.9892 14.8401 29.099 14.6757C29.2089 14.5112 29.2676 14.3179 29.2676 14.1201C29.2676 13.8549 29.1622 13.6005 28.9747 13.413C28.7872 13.2255 28.5328 13.1201 28.2676 13.1201Z" fill="black"/>
<path d="M12.1875 17.0801C11.9897 17.0801 11.7964 17.1387 11.6319 17.2486C11.4675 17.3585 11.3393 17.5147 11.2636 17.6974C11.1879 17.8801 11.1681 18.0812 11.2067 18.2752C11.2453 18.4691 11.3405 18.6473 11.4804 18.7872C11.6202 18.927 11.7984 19.0223 11.9924 19.0609C12.1864 19.0994 12.3875 19.0796 12.5702 19.004C12.7529 18.9283 12.9091 18.8001 13.019 18.6356C13.1289 18.4712 13.1875 18.2779 13.1875 18.0801C13.1875 17.8149 13.0821 17.5605 12.8946 17.373C12.7071 17.1854 12.4527 17.0801 12.1875 17.0801Z" fill="black"/>
<path d="M27.4276 17.0801C27.1531 17.0801 26.8898 17.1891 26.6957 17.3832C26.5016 17.5773 26.3926 17.8406 26.3926 18.1151C26.3926 18.3896 26.5016 18.6528 26.6957 18.8469C26.8898 19.041 27.1531 19.1501 27.4276 19.1501C27.7021 19.1501 27.9653 19.041 28.1594 18.8469C28.3535 18.6528 28.4626 18.3896 28.4626 18.1151C28.4626 17.8406 28.3535 17.5773 28.1594 17.3832C27.9653 17.1891 27.7021 17.0801 27.4276 17.0801Z" fill="black"/>
<path d="M16.0174 15.8896C15.7429 15.8896 15.4797 15.9987 15.2856 16.1928C15.0915 16.3869 14.9824 16.6501 14.9824 16.9246C14.9824 17.1991 15.0915 17.4624 15.2856 17.6565C15.4797 17.8506 15.7429 17.9596 16.0174 17.9596C16.2919 17.9596 16.5552 17.8506 16.7493 17.6565C16.9434 17.4624 17.0524 17.1991 17.0524 16.9246C17.0524 16.6501 16.9434 16.3869 16.7493 16.1928C16.5552 15.9987 16.2919 15.8896 16.0174 15.8896Z" fill="black"/>
<path d="M19.8174 15.8096C19.6196 15.8096 19.4263 15.8682 19.2618 15.9781C19.0974 16.088 18.9692 16.2442 18.8935 16.4269C18.8178 16.6096 18.798 16.8107 18.8366 17.0047C18.8752 17.1986 18.9704 17.3768 19.1103 17.5167C19.2501 17.6565 19.4283 17.7518 19.6223 17.7904C19.8163 17.8289 20.0173 17.8091 20.2001 17.7334C20.3828 17.6578 20.539 17.5296 20.6489 17.3651C20.7587 17.2007 20.8174 17.0074 20.8174 16.8096C20.8174 16.5444 20.712 16.29 20.5245 16.1025C20.337 15.9149 20.0826 15.8096 19.8174 15.8096Z" fill="black"/>
<path d="M23.6074 15.8896C23.4096 15.8896 23.2163 15.9483 23.0519 16.0582C22.8874 16.1681 22.7592 16.3242 22.6835 16.507C22.6079 16.6897 22.5881 16.8908 22.6266 17.0847C22.6652 17.2787 22.7605 17.4569 22.9003 17.5968C23.0402 17.7366 23.2183 17.8318 23.4123 17.8704C23.6063 17.909 23.8074 17.8892 23.9901 17.8135C24.1728 17.7378 24.329 17.6097 24.4389 17.4452C24.5488 17.2808 24.6074 17.0874 24.6074 16.8896C24.6074 16.6244 24.5021 16.3701 24.3145 16.1825C24.127 15.995 23.8726 15.8896 23.6074 15.8896Z" fill="black"/>
<path d="M16.7075 12.8896C16.7075 12.6919 16.6489 12.4985 16.539 12.3341C16.4291 12.1696 16.2729 12.0415 16.0902 11.9658C15.9075 11.8901 15.7064 11.8703 15.5124 11.9089C15.3185 11.9474 15.1403 12.0427 15.0004 12.1825C14.8606 12.3224 14.7653 12.5006 14.7267 12.6946C14.6881 12.8885 14.708 13.0896 14.7836 13.2723C14.8593 13.4551 14.9875 13.6112 15.1519 13.7211C15.3164 13.831 15.5097 13.8896 15.7075 13.8896C15.9727 13.8896 16.2271 13.7843 16.4146 13.5968C16.6022 13.4092 16.7075 13.1549 16.7075 12.8896Z" fill="black"/>
<path d="M19.8677 11.7197C19.6699 11.7197 19.4766 11.7784 19.3121 11.8883C19.1477 11.9981 19.0195 12.1543 18.9438 12.337C18.8681 12.5198 18.8483 12.7208 18.8869 12.9148C18.9255 13.1088 19.0207 13.287 19.1606 13.4268C19.3004 13.5667 19.4786 13.6619 19.6726 13.7005C19.8666 13.7391 20.0676 13.7193 20.2504 13.6436C20.4331 13.5679 20.5893 13.4397 20.6991 13.2753C20.809 13.1108 20.8677 12.9175 20.8677 12.7197C20.8677 12.4545 20.7623 12.2002 20.5748 12.0126C20.3873 11.8251 20.1329 11.7197 19.8677 11.7197Z" fill="black"/>
<path d="M24.0575 11.8604C23.783 11.8604 23.5197 11.9694 23.3256 12.1635C23.1315 12.3576 23.0225 12.6209 23.0225 12.8954C23.0225 13.1699 23.1315 13.4331 23.3256 13.6272C23.5197 13.8213 23.783 13.9304 24.0575 13.9304C24.332 13.9304 24.5952 13.8213 24.7893 13.6272C24.9834 13.4331 25.0925 13.1699 25.0925 12.8954C25.0925 12.6209 24.9834 12.3576 24.7893 12.1635C24.5952 11.9694 24.332 11.8604 24.0575 11.8604Z" fill="black"/>
<path d="M15.3774 9.83984C15.5752 9.83984 15.7686 9.7812 15.933 9.67132C16.0975 9.56143 16.2256 9.40525 16.3013 9.22253C16.377 9.0398 16.3968 8.83873 16.3582 8.64475C16.3196 8.45077 16.2244 8.27259 16.0846 8.13274C15.9447 7.99288 15.7665 7.89764 15.5725 7.85906C15.3786 7.82047 15.1775 7.84028 14.9948 7.91596C14.812 7.99165 14.6559 8.11983 14.546 8.28428C14.4361 8.44873 14.3774 8.64206 14.3774 8.83984C14.3774 9.10506 14.4828 9.35942 14.6703 9.54695C14.8579 9.73449 15.1122 9.83984 15.3774 9.83984Z" fill="black"/>
<path d="M24.3574 7.76953C24.1596 7.76953 23.9663 7.82818 23.8019 7.93806C23.6374 8.04794 23.5092 8.20412 23.4335 8.38685C23.3579 8.56957 23.3381 8.77064 23.3766 8.96462C23.4152 9.1586 23.5105 9.33679 23.6503 9.47664C23.7902 9.61649 23.9683 9.71173 24.1623 9.75032C24.3563 9.7889 24.5574 9.7691 24.7401 9.69341C24.9228 9.61772 25.079 9.48955 25.1889 9.3251C25.2988 9.16065 25.3574 8.96731 25.3574 8.76953C25.3574 8.50431 25.2521 8.24996 25.0645 8.06242C24.877 7.87489 24.6226 7.76953 24.3574 7.76953Z" fill="black"/>
<path d="M48.5876 3.77953C41.5876 4.25953 29.9176 5.05953 23.3676 5.47953L48.6276 1.63953C48.7346 1.62311 48.8373 1.58578 48.9299 1.52966C49.0225 1.47353 49.1032 1.39972 49.1672 1.31244C49.2313 1.22515 49.2776 1.12609 49.3034 1.02093C49.3292 0.915769 49.334 0.806559 49.3176 0.699532C49.3011 0.592504 49.2638 0.489758 49.2077 0.39716C49.1516 0.304561 49.0778 0.223924 48.9905 0.159851C48.9032 0.0957787 48.8041 0.0495269 48.699 0.0237351C48.5938 -0.00205683 48.4846 -0.00688611 48.3776 0.00952912L19.9376 4.31953C19.8104 3.43742 19.8104 2.54164 19.9376 1.65953C19.9879 1.45246 19.9567 1.23397 19.8503 1.0493C19.744 0.864633 19.5707 0.727937 19.3663 0.66753C19.162 0.607123 18.9422 0.62763 18.7526 0.724804C18.5629 0.821978 18.4179 0.988374 18.3476 1.18953C18.1327 2.3043 18.1124 3.44784 18.2876 4.56953H18.1676H18.0976C17.7891 4.66472 17.5266 4.87047 17.3605 5.1473C17.1944 5.42413 17.1364 5.75254 17.1976 6.06953C17.2274 6.41889 17.3863 6.7446 17.6433 6.98311C17.9003 7.22163 18.237 7.35583 18.5876 7.35953H18.6976C18.6976 7.52953 18.7576 7.70953 18.7976 7.88953C18.8327 8.0784 18.933 8.24895 19.0811 8.3714C19.2291 8.49384 19.4154 8.56043 19.6076 8.55953H19.7676C19.8768 8.53821 19.9806 8.49515 20.0728 8.43292C20.165 8.37068 20.2438 8.29054 20.3044 8.19725C20.3651 8.10396 20.4063 7.99943 20.4258 7.88988C20.4452 7.78033 20.4424 7.66799 20.4176 7.55953L20.3576 7.26953C26.7576 6.89953 47.6776 5.44953 48.6876 5.37953C48.7967 5.37193 48.9032 5.34284 49.001 5.29395C49.0988 5.24505 49.186 5.1773 49.2576 5.09459C49.3291 5.01189 49.3836 4.91586 49.4179 4.81202C49.4523 4.70818 49.4657 4.59859 49.4576 4.48953C49.4324 4.2817 49.3278 4.09167 49.1656 3.9593C49.0034 3.82693 48.7962 3.76251 48.5876 3.77953Z" fill="black"/>
</svg>
