<svg width="48" height="56" viewBox="0 0 48 56" fill="none" xmlns="http://www.w3.org/2000/svg">
<path d="M15.32 2.09046C15.3897 2.22367 15.4946 2.33516 15.6233 2.41276C15.7521 2.49036 15.8997 2.53108 16.05 2.53046H16.23H16.32C16.5144 2.46844 16.6763 2.33176 16.77 2.15046C16.8678 2.00695 16.9104 1.83292 16.89 1.66046C16.8948 1.62061 16.8948 1.58032 16.89 1.54046C16.867 1.42795 16.8203 1.32162 16.7531 1.22852C16.6858 1.13542 16.5996 1.05768 16.5 1.00046C16.3102 0.888569 16.0851 0.852833 15.87 0.900465C15.666 0.963175 15.494 1.10206 15.3897 1.28829C15.2854 1.47451 15.2569 1.69375 15.31 1.90046L15 2.00046L15.31 1.92046C15.27 1.97046 15.29 2.03046 15.32 2.09046Z" fill="black"/>
<path d="M5.70991 15.8703C5.6762 15.9743 5.665 16.0843 5.67707 16.1929C5.68914 16.3015 5.7242 16.4063 5.77991 16.5003C5.83203 16.5983 5.90306 16.685 5.98888 16.7554C6.0747 16.8258 6.17361 16.8784 6.27991 16.9103C6.35953 16.9213 6.44028 16.9213 6.51991 16.9103C6.70214 16.9076 6.87879 16.8471 7.02437 16.7374C7.16996 16.6278 7.27695 16.4747 7.32991 16.3003C7.80083 14.4884 8.67497 12.8062 9.88707 11.3794C11.0992 9.95258 12.6179 8.818 14.3299 8.06035C17.0982 6.87072 20.0872 6.28111 23.0999 6.33035C23.3227 6.33035 23.5363 6.24185 23.6939 6.08432C23.8514 5.92679 23.9399 5.71313 23.9399 5.49035C23.9399 5.26757 23.8514 5.05391 23.6939 4.89638C23.5363 4.73885 23.3227 4.65035 23.0999 4.65035C19.7949 4.58204 16.5149 5.23734 13.4899 6.57035C11.5886 7.45242 9.90546 8.74332 8.56061 10.3509C7.21576 11.9585 6.24237 13.8432 5.70991 15.8703Z" fill="black"/>
<path d="M47.2 33.16C47.2037 32.8657 47.1386 32.5747 47.01 32.31L43.9 23.91V23.85C43.9 23.07 43.9 21.04 43.9 20.79C43.9076 18.7037 43.6385 16.6256 43.1 14.61C43.1 14.43 43 14.25 42.94 14.07L42.88 13.86L43.04 13.69C43.6271 13.2624 44.115 12.7132 44.4705 12.0798C44.826 11.4465 45.0407 10.7439 45.1 10.02C45.1 8.52 44.1 7.1 42.1 5.93L40.84 5.16C37.19 2.86 32.65 0 23.33 0H23.17C22.31 0 21.45 6.10948e-07 20.59 0.110001C20.3615 0.128362 20.1495 0.236172 20 0.41C19.8661 0.583783 19.8019 0.801337 19.82 1.02C19.8428 1.2384 19.9492 1.43951 20.117 1.58118C20.2848 1.72285 20.5009 1.7941 20.72 1.78C21.6 1.72 22.4 1.69 23.17 1.69C31.3 1.69 35.25 3.69 38.58 5.75L39.73 6.46C40.23 6.78 40.73 7.09 41.27 7.4C42.75 8.31 43.44 9.15 43.44 10.05C43.3972 10.7188 43.1045 11.347 42.62 11.81C42.5519 11.8915 42.4784 11.9683 42.4 12.04C42.2074 12.2386 42.0002 12.4225 41.78 12.59L41.64 12.7L41.48 12.65C41.0146 12.5023 40.5282 12.4314 40.04 12.44C38.0317 12.55 36.0752 13.1178 34.32 14.1C33.3963 14.4557 32.5783 15.0408 31.9432 15.8001C31.3081 16.5594 30.8768 17.4679 30.69 18.44C30.62 18.82 30.57 19.15 30.54 19.44C30.536 20.2306 30.2842 21 29.82 21.64C28.5756 23.0857 27.6762 24.7955 27.19 26.64C27.0838 27.0426 26.8435 27.3969 26.5087 27.6444C26.174 27.892 25.7649 28.018 25.3489 28.0017C24.9328 27.9854 24.5348 27.8277 24.2205 27.5547C23.9062 27.2817 23.6944 26.9096 23.62 26.5C23.4031 25.2201 22.9119 24.0022 22.18 22.93C21.7532 22.3071 21.1797 21.7988 20.51 21.45C19.8403 21.1012 19.095 20.9226 18.34 20.93C17.9 20.9272 17.4609 20.9707 17.03 21.06C16.19 21.2199 15.4032 21.5872 14.7413 22.1287C14.0794 22.6701 13.5633 23.3683 13.24 24.16C12.6275 25.6907 12.3414 27.3324 12.4 28.98C12.3969 30.0439 12.4705 31.1067 12.62 32.16C12.6347 32.4398 12.6347 32.7202 12.62 33C12.621 33.6811 12.506 34.3575 12.28 35C11.6826 36.8666 10.8024 38.6304 9.67 40.23C9.28701 40.7573 8.8288 41.2256 8.31 41.62L8.05 41.8L7.4 40.93C3.71388 35.7579 1.70025 29.5809 1.63 23.23C1.63524 20.4627 2.02565 17.7096 2.79 15.05C3.19068 13.6376 3.75096 12.2755 4.46 10.99C4.85357 10.2938 5.29461 9.62558 5.78 8.99C6.26118 8.37019 6.78584 7.78538 7.35 7.24C7.95327 6.66011 8.59834 6.12534 9.28 5.64C10.1402 5.03673 11.0463 4.50176 11.99 4.04C12.1606 3.97067 12.3033 3.84658 12.3956 3.68727C12.4879 3.52796 12.5246 3.34247 12.5 3.16C12.4907 3.08415 12.4705 3.01004 12.44 2.94C12.391 2.83762 12.3212 2.74654 12.2351 2.67252C12.1491 2.5985 12.0486 2.54316 11.94 2.51C11.8409 2.46558 11.7336 2.44262 11.625 2.44262C11.5164 2.44262 11.4091 2.46558 11.31 2.51C8.8486 3.66796 6.67013 5.35007 4.92719 7.4385C3.18424 9.52692 1.91897 11.9712 1.22 14.6C0.416788 17.4065 0.0062223 20.3108 0 23.23C0.0693383 30.565 2.61342 37.6616 7.22 43.37C7.29933 43.4625 7.39742 43.5371 7.50776 43.5888C7.61809 43.6405 7.73815 43.6682 7.86 43.67H7.96H8.31V44.13C8.31 44.2 8.31 44.28 8.31 44.36C8.31106 44.8392 8.27091 45.3177 8.19 45.79L6.71 54.4C6.68839 54.5111 6.68917 54.6254 6.71231 54.7361C6.73544 54.8469 6.78047 54.9519 6.84473 55.0451C6.909 55.1382 6.99122 55.2176 7.08657 55.2785C7.18192 55.3395 7.28848 55.3808 7.4 55.4C7.44653 55.405 7.49346 55.405 7.54 55.4C7.73947 55.3988 7.93233 55.3284 8.08557 55.2007C8.23881 55.073 8.34289 54.896 8.38 54.7L9.84 46.08C9.94172 45.5191 9.99193 44.9501 9.99 44.38C9.98944 43.8511 9.94933 43.3229 9.87 42.8V42.62L10 42.5C11.47 41.18 12.71 38.99 13.93 35.62C14.2094 34.792 14.3513 33.9239 14.35 33.05C14.3513 32.6921 14.3279 32.3346 14.28 31.98C14.1534 31.0184 14.0866 30.0499 14.08 29.08C14.0272 27.6634 14.2655 26.2509 14.78 24.93C14.9828 24.3703 15.327 23.8727 15.7791 23.4854C16.2312 23.0982 16.7758 22.8345 17.36 22.72C17.6657 22.6542 17.9774 22.6207 18.29 22.62C18.7898 22.611 19.284 22.727 19.7276 22.9575C20.1712 23.188 20.5501 23.5258 20.83 23.94C21.4052 24.828 21.79 25.8257 21.96 26.87C22.1081 27.6575 22.5205 28.371 23.129 28.8924C23.7375 29.4138 24.5058 29.712 25.3067 29.7376C26.1076 29.7633 26.8933 29.5149 27.534 29.0335C28.1746 28.552 28.6318 27.8665 28.83 27.09C29.2366 25.4736 30.0137 23.9741 31.1 22.71C31.7831 21.8331 32.1685 20.7611 32.2 19.65C32.2 19.33 32.28 19.01 32.34 18.74C32.58 17.74 32.8 16.74 35.07 15.59C38.59 13.82 40.3 13.99 41.01 14.25H41.08H41.15L41.34 14.48C41.39 14.66 41.45 14.83 41.5 15.01C41.998 16.8861 42.2501 18.8189 42.25 20.76C42.25 21.01 42.25 23.76 42.25 24L42.32 24.37L45.72 33.44H40.72C40.5959 33.4389 40.4732 33.4656 40.3608 33.5181C40.2484 33.5707 40.1492 33.6477 40.0706 33.7437C39.9919 33.8396 39.9358 33.952 39.9062 34.0725C39.8767 34.193 39.8746 34.3186 39.9 34.44L41.1 39.38L39.68 42.48C39.6222 42.605 39.5981 42.7428 39.61 42.88L39.85 46.88C39.8501 47.1016 39.7997 47.3203 39.7026 47.5196C39.6056 47.7188 39.4645 47.8934 39.29 48.03C39.1219 48.1636 38.9256 48.2573 38.716 48.304C38.5064 48.3508 38.289 48.3494 38.08 48.3L31.25 47.83L25.02 46.68H24.87C24.6732 46.6811 24.4828 46.7505 24.3314 46.8764C24.18 47.0022 24.0771 47.1767 24.04 47.37C24.0169 47.4805 24.0162 47.5945 24.0382 47.7052C24.0601 47.8159 24.1041 47.9211 24.1676 48.0145C24.231 48.1078 24.3127 48.1874 24.4076 48.2485C24.5025 48.3096 24.6088 48.3509 24.72 48.37L30.24 49.37L29.72 54.43C29.7057 54.6498 29.7733 54.8672 29.91 55.04C30.0536 55.219 30.262 55.334 30.49 55.36H30.57C30.7548 55.3616 30.9348 55.3014 31.0815 55.1891C31.2282 55.0768 31.3333 54.9188 31.38 54.74L31.91 49.58L37.75 49.97C37.967 50.0159 38.1882 50.0394 38.41 50.04C39.242 50.0347 40.038 49.7005 40.6245 49.1103C41.2109 48.5202 41.54 47.722 41.54 46.89L41.3 43.02L42.74 39.84C42.8294 39.671 42.8508 39.4743 42.8 39.29L41.8 35.18H45.29C45.8082 35.1567 46.297 34.933 46.6534 34.5561C47.0097 34.1792 47.2057 33.6786 47.2 33.16Z" fill="black"/>
</svg>
