<svg width="47" height="56" viewBox="0 0 47 56" fill="none" xmlns="http://www.w3.org/2000/svg">
<path d="M46.8702 4.33375C46.8702 4.33375 46.8702 4.33375 46.8702 4.27375C46.6032 2.90973 45.8091 1.70601 44.6602 0.92375L44.5702 0.863749C43.389 0.0934852 41.9503 -0.176276 40.5702 0.113749C39.8849 0.246792 39.2329 0.515196 38.6526 0.903254C38.0722 1.29131 37.575 1.79123 37.1902 2.37375L11.4202 41.1437H11.3502L11.2802 41.2837V41.3638L7.98022 54.5938C7.92915 54.8043 7.96139 55.0264 8.07022 55.2137C8.18069 55.401 8.36022 55.5375 8.57022 55.5938C8.6961 55.6237 8.82712 55.6249 8.95351 55.5972C9.07991 55.5695 9.19842 55.5136 9.30022 55.4338L20.1102 47.2638C20.1982 47.2026 20.273 47.1244 20.3302 47.0337L46.0802 8.26375C46.8499 7.10853 47.1337 5.69667 46.8702 4.33375ZM10.1102 52.7238L10.7402 50.2638L12.1302 51.1938L10.1102 52.7238ZM18.1102 46.7238L13.5402 50.1737L11.2302 48.6337L12.6802 42.9937L18.2302 46.6838L18.1102 46.7238ZM36.6602 19.5237L19.3702 45.4338L16.9802 43.8638V43.8038L33.9802 18.2337C34.0989 18.0515 34.1413 17.8299 34.0983 17.6167C34.0553 17.4035 33.9303 17.2157 33.7502 17.0937C33.5662 16.9766 33.3446 16.9337 33.1302 16.9737C32.9161 17.0204 32.7272 17.1452 32.6002 17.3237L15.6002 42.9537L13.2302 41.3738V41.3137L34.6402 9.23375L40.7602 13.2937L36.6602 19.5237ZM41.6602 11.9537L35.5402 7.89375L38.1302 4.00375L44.2402 8.07375L41.6602 11.9537ZM45.1102 6.55375V6.65375L39.1102 2.65375L39.1802 2.58375C39.6907 2.13855 40.3131 1.84119 40.9802 1.72375C41.9354 1.53236 42.9276 1.72647 43.7402 2.26375C44.1424 2.53083 44.4875 2.87527 44.7553 3.277C45.0232 3.67874 45.2084 4.12974 45.3002 4.60375C45.4139 5.24829 45.3517 5.91157 45.1202 6.52375L45.1102 6.55375Z" fill="black"/>
<path d="M18.35 54.2139H14.8C14.5825 54.2139 14.3739 54.3003 14.2202 54.454C14.0664 54.6078 13.98 54.8164 13.98 55.0339C13.98 55.2513 14.0664 55.4599 14.2202 55.6137C14.3739 55.7675 14.5825 55.8539 14.8 55.8539H18.35C18.5675 55.8539 18.776 55.7675 18.9298 55.6137C19.0836 55.4599 19.17 55.2513 19.17 55.0339C19.17 54.8164 19.0836 54.6078 18.9298 54.454C18.776 54.3003 18.5675 54.2139 18.35 54.2139Z" fill="black"/>
<path d="M4.37 54.2139H0.82C0.602522 54.2139 0.393953 54.3003 0.240173 54.454C0.0863935 54.6078 0 54.8164 0 55.0339C0 55.2513 0.0863935 55.4599 0.240173 55.6137C0.393953 55.7675 0.602522 55.8539 0.82 55.8539H4.37C4.58748 55.8539 4.79605 55.7675 4.94983 55.6137C5.10361 55.4599 5.19 55.2513 5.19 55.0339C5.19 54.8164 5.10361 54.6078 4.94983 54.454C4.79605 54.3003 4.58748 54.2139 4.37 54.2139Z" fill="black"/>
<path d="M32.33 54.2139H28.78C28.5625 54.2139 28.3539 54.3003 28.2001 54.454C28.0463 54.6078 27.96 54.8164 27.96 55.0339C27.96 55.2513 28.0463 55.4599 28.2001 55.6137C28.3539 55.7675 28.5625 55.8539 28.78 55.8539H32.33C32.5474 55.8539 32.756 55.7675 32.9098 55.6137C33.0636 55.4599 33.15 55.2513 33.15 55.0339C33.15 54.8164 33.0636 54.6078 32.9098 54.454C32.756 54.3003 32.5474 54.2139 32.33 54.2139Z" fill="black"/>
<path d="M35.7702 55.8539H39.3202C39.5377 55.8539 39.7462 55.7675 39.9 55.6137C40.0538 55.4599 40.1402 55.2513 40.1402 55.0339C40.1402 54.8164 40.0538 54.6078 39.9 54.454C39.7462 54.3003 39.5377 54.2139 39.3202 54.2139H35.7702C35.5527 54.2139 35.3441 54.3003 35.1904 54.454C35.0366 54.6078 34.9502 54.8164 34.9502 55.0339C34.9502 55.2513 35.0366 55.4599 35.1904 55.6137C35.3441 55.7675 35.5527 55.8539 35.7702 55.8539Z" fill="black"/>
<path d="M25.3402 54.2139H21.7902C21.5727 54.2139 21.3642 54.3003 21.2104 54.454C21.0566 54.6078 20.9702 54.8164 20.9702 55.0339C20.9702 55.2513 21.0566 55.4599 21.2104 55.6137C21.3642 55.7675 21.5727 55.8539 21.7902 55.8539H25.3402C25.5577 55.8539 25.7663 55.7675 25.92 55.6137C26.0738 55.4599 26.1602 55.2513 26.1602 55.0339C26.1602 54.8164 26.0738 54.6078 25.92 54.454C25.7663 54.3003 25.5577 54.2139 25.3402 54.2139Z" fill="black"/>
</svg>
