<svg width="416" height="513" viewBox="0 0 416 513" fill="none" xmlns="http://www.w3.org/2000/svg">
<path d="M207.9 15.2014C208.7 19.9014 224 109.701 224 144.001C224 196.301 196.2 233.601 155.1 248.601L168 486.701C168.7 500.401 157.8 512.001 144 512.001H80C66.3 512.001 55.3 500.501 56 486.701L68.9 248.601C27.7 233.601 0 196.201 0 144.001C0 109.601 15.3 19.9014 16.1 15.2014C19.3 -5.09857 61.4 -5.39857 64 16.3014V157.501C65.3 160.901 79.1 160.701 80 157.501C81.4 132.201 87.9 18.3014 88 15.7014C91.3 -5.09857 132.7 -5.09857 135.9 15.7014C136.1 18.4014 142.5 132.201 143.9 157.501C144.8 160.701 158.7 160.901 159.9 157.501V16.3014C162.5 -5.29857 204.7 -5.09857 207.9 15.2014ZM327.1 300.901L312.1 486.001C310.9 500.001 322 512.001 336 512.001H392C405.3 512.001 416 501.301 416 488.001V24.0014C416 10.8014 405.3 0.00142925 392 0.00142925C309.5 0.00142925 170.6 178.501 327.1 300.901Z" fill="black"/>
</svg>
