<svg width="36" height="36" viewBox="0 0 36 36" fill="none" xmlns="http://www.w3.org/2000/svg">
<circle cx="18" cy="18" r="17.5" stroke="white"/>
<path d="M23.8222 11.1333C23.0627 10.2662 22.6441 9.1527 22.6444 8H19.2111V21.7778C19.1846 22.5234 18.8699 23.2296 18.3331 23.7477C17.7963 24.2658 17.0794 24.5555 16.3333 24.5556C14.7556 24.5556 13.4444 23.2667 13.4444 21.6667C13.4444 19.7556 15.2889 18.3222 17.1889 18.9111V15.4C13.3556 14.8889 10 17.8667 10 21.6667C10 25.3667 13.0667 28 16.3222 28C19.8111 28 22.6444 25.1667 22.6444 21.6667V14.6778C24.0367 15.6776 25.7082 16.2141 27.4222 16.2111V12.7778C27.4222 12.7778 25.3333 12.8778 23.8222 11.1333Z" fill="white"/>
</svg>
