<svg width="35" height="34" viewBox="0 0 35 34" fill="none" xmlns="http://www.w3.org/2000/svg">
<path d="M14.1558 19.4752C16.2433 21.5928 18.7691 23.2278 21.5558 24.2652L25.3258 21.2652C25.4376 21.1882 25.5701 21.147 25.7058 21.147C25.8415 21.147 25.974 21.1882 26.0858 21.2652L33.0858 25.7752C33.3515 25.935 33.5765 26.1543 33.7429 26.416C33.9093 26.6776 34.0126 26.9744 34.0446 27.2828C34.0766 27.5912 34.0364 27.9029 33.9273 28.1931C33.8182 28.4834 33.6431 28.7443 33.4158 28.9552L30.1358 32.1952C29.6661 32.6593 29.0887 32.9999 28.4553 33.1866C27.8219 33.3733 27.1522 33.4003 26.5058 33.2652C20.058 31.9335 14.1149 28.8147 9.35579 24.2652C4.70227 19.6704 1.48206 13.824 0.0857857 7.43519C-0.0521481 6.79883 -0.0233595 6.13763 0.169362 5.51566C0.362083 4.8937 0.712201 4.33206 1.18579 3.88519L4.58579 0.605188C4.79618 0.388976 5.05277 0.223163 5.33633 0.120166C5.61989 0.0171691 5.92308 -0.0203434 6.2232 0.0104374C6.52331 0.0412183 6.81257 0.139495 7.06932 0.297909C7.32607 0.456322 7.54366 0.670768 7.70579 0.925188L12.3658 7.83519C12.4462 7.94369 12.4895 8.07516 12.4895 8.21019C12.4895 8.34522 12.4462 8.47668 12.3658 8.58519L9.29578 12.2752C10.3614 15.0061 12.0215 17.4656 14.1558 19.4752Z" fill="white"/>
</svg>
