<svg width="87" height="87" viewBox="0 0 87 87" fill="none" xmlns="http://www.w3.org/2000/svg">
<path d="M0.304688 27.5254V59.1992C29.1132 68.0963 57.9216 50.3021 86.7302 59.1992V27.5254C57.9216 18.6283 29.1132 36.4224 0.304688 27.5254Z" fill="#FFB636"/>
<path d="M29.0977 49.1656H22.96V42.1436H28.119C28.3785 42.1436 28.6275 42.2467 28.811 42.4302C28.9946 42.6138 29.0977 42.8627 29.0977 43.1223V49.1656Z" fill="#E8E8E8"/>
<path d="M29.2798 37.4964H23.9305C24.0916 37.0672 24.1884 36.5299 24.1884 35.9448C24.1884 34.5433 23.6384 33.4072 22.96 33.4072C22.2817 33.4072 21.7317 34.5433 21.7317 35.9448C21.7317 36.5299 21.8285 37.0672 21.9896 37.4964H16.6454C16.23 37.4964 15.9356 37.9023 16.065 38.2972L16.6853 40.1931C16.7252 40.3149 16.8025 40.4212 16.9061 40.4967C17.0097 40.5723 17.1345 40.6133 17.2627 40.614L28.6501 40.6707C28.7799 40.6714 28.9067 40.6307 29.0118 40.5544C29.1169 40.4781 29.195 40.3703 29.2346 40.2466L29.8613 38.294C29.9878 37.8996 29.6939 37.4964 29.2798 37.4964Z" fill="#E2A042"/>
<path d="M14.8348 47.7509C14.8348 47.3316 14.6682 46.9295 14.3717 46.633C14.0752 46.3365 13.6731 46.1699 13.2538 46.1699C12.8345 46.1699 12.4324 46.3365 12.1359 46.633C11.8394 46.9295 11.6729 47.3316 11.6729 47.7509C11.6729 48.3804 12.0418 48.9223 12.5741 49.1767V54.5308C12.5741 54.6645 12.6825 54.7729 12.8163 54.7729H13.6914C13.8251 54.7729 13.9335 54.6645 13.9335 54.5308V49.1767C14.466 48.9223 14.8348 48.3804 14.8348 47.7509ZM33.8094 47.7509C33.8094 47.3316 33.6429 46.9295 33.3464 46.633C33.0499 46.3365 32.6478 46.1699 32.2285 46.1699C31.8092 46.1699 31.4071 46.3365 31.1106 46.633C30.8141 46.9295 30.6475 47.3316 30.6475 47.7509C30.6475 48.3804 31.0162 48.9223 31.5488 49.1767V54.5308C31.5488 54.6645 31.6572 54.7729 31.7909 54.7729H32.666C32.7997 54.7729 32.9082 54.6645 32.9082 54.5308V49.1767C33.4405 48.9223 33.8094 48.3804 33.8094 47.7509Z" fill="#E8E8E8"/>
<path d="M86.7302 15.9774V27.5248C57.9216 18.6277 29.1132 36.4219 0.304688 27.5248V17.7475C0.304688 15.8712 2.05539 14.4918 3.88171 14.9215C30.8332 21.2635 57.7848 6.17837 84.7363 13.3764C85.9129 13.6906 86.7302 14.7596 86.7302 15.9774ZM0.304688 59.1988V70.746C0.304688 71.9638 1.12201 73.0328 2.29855 73.347C29.338 80.5685 56.3775 65.361 83.417 71.8646C85.1067 72.271 86.7304 70.9849 86.7304 69.2469V59.1984C57.9216 50.3016 29.1132 68.0959 0.304688 59.1988ZM22.96 49.1652V42.1432H17.8009C17.6723 42.1432 17.5451 42.1685 17.4264 42.2176C17.3076 42.2668 17.1997 42.3389 17.1089 42.4298C17.018 42.5206 16.9459 42.6285 16.8967 42.7473C16.8476 42.866 16.8223 42.9932 16.8223 43.1218V51.7038C16.8223 53.3988 18.1963 54.7726 19.8912 54.7726C21.5862 54.7726 22.96 53.3986 22.96 51.7038C22.96 53.3988 24.334 54.7726 26.029 54.7726C27.724 54.7726 29.0978 53.3986 29.0978 51.7038V49.1652H22.96ZM24.0745 37.6403C23.3316 37.6698 22.5886 37.7002 21.8457 37.73V40.8703C22.5886 40.8443 23.3316 40.8173 24.0745 40.7915V37.6403ZM18.1251 40.9706C18.8681 40.9586 19.6111 40.9414 20.3539 40.9191V37.7857C19.611 37.8119 18.868 37.8348 18.1251 37.8503V40.9706ZM27.7952 37.5198C27.0523 37.5354 26.3092 37.5584 25.5663 37.5845V40.7427C26.3092 40.7203 27.0523 40.7029 27.7952 40.691V37.5198Z" fill="#FF473E"/>
<path d="M21.7148 49.166H22.96V51.7046C22.96 52.7155 22.4689 53.6096 21.7148 54.1687V49.166ZM18.0675 54.1687V49.166H16.8223V51.7046C16.8223 52.7155 17.3133 53.6095 18.0675 54.1687ZM20.5138 49.166H19.2686V54.7101C19.6794 54.7948 20.1031 54.7948 20.5138 54.7101V49.166Z" fill="#E2A042"/>
<path d="M25.0564 49.1658C25.0564 50.3237 24.1178 51.2623 22.9599 51.2623C21.8021 51.2623 20.8634 50.3237 20.8634 49.1658C20.8634 48.008 21.8021 47.0693 22.9599 47.0693C24.1178 47.0693 25.0564 48.008 25.0564 49.1658ZM14.8348 55.1282V54.6038C14.8347 54.3943 14.7515 54.1934 14.6033 54.0453C14.4552 53.8972 14.2543 53.8139 14.0448 53.8139H12.4628C12.2533 53.8139 12.0524 53.8972 11.9043 54.0453C11.7561 54.1934 11.6729 54.3943 11.6729 54.6038V55.1282C11.6729 55.3377 11.7561 55.5386 11.9043 55.6868C12.0524 55.8349 12.2533 55.9181 12.4628 55.9182H14.0448C14.1485 55.9182 14.2513 55.8978 14.3471 55.8581C14.443 55.8184 14.5301 55.7602 14.6034 55.6869C14.6768 55.6135 14.735 55.5264 14.7747 55.4306C14.8144 55.3347 14.8348 55.232 14.8348 55.1282ZM33.8094 55.1282V54.6038C33.8094 54.3943 33.7261 54.1934 33.578 54.0453C33.4299 53.8972 33.229 53.8139 33.0195 53.8139H31.4375C31.228 53.8139 31.0271 53.8972 30.8789 54.0453C30.7308 54.1934 30.6476 54.3943 30.6475 54.6038V55.1282C30.6476 55.3377 30.7308 55.5386 30.8789 55.6868C31.0271 55.8349 31.228 55.9181 31.4375 55.9182H33.0195C33.229 55.9181 33.4299 55.8349 33.578 55.6868C33.7261 55.5386 33.8094 55.3377 33.8094 55.1282Z" fill="#575A5B"/>
</svg>
