<svg width="321" height="399" viewBox="0 0 321 399" fill="none" xmlns="http://www.w3.org/2000/svg">
<path d="M143.05 199.038L7.05 335.038C-2.35 344.438 -2.35 359.638 7.05 368.938L29.65 391.538C39.05 400.938 54.25 400.938 63.55 391.538L159.95 295.138L256.35 391.538C265.75 400.938 280.95 400.938 290.25 391.538L313.05 369.038C322.45 359.638 322.45 344.438 313.05 335.138L177.05 199.138C167.65 189.638 152.45 189.638 143.05 199.038ZM177.05 7.03766L313.05 143.038C322.45 152.438 322.45 167.638 313.05 176.938L290.45 199.538C281.05 208.938 265.85 208.938 256.55 199.538L160.05 103.238L63.65 199.638C54.25 209.038 39.05 209.038 29.75 199.638L7.05 177.038C-2.35 167.638 -2.35 152.438 7.05 143.138L143.05 7.13763C152.45 -2.36237 167.65 -2.36234 177.05 7.03766Z" fill="black"/>
</svg>
