<svg width="321" height="399" viewBox="0 0 321 399" fill="none" xmlns="http://www.w3.org/2000/svg">
<path d="M143.05 199.55L7.05 63.55C-2.35 54.15 -2.35 38.95 7.05 29.65L29.65 7.05C39.05 -2.35 54.25 -2.35 63.55 7.05L159.95 103.45L256.35 7.05C265.75 -2.35 280.95 -2.35 290.25 7.05L313.05 29.55C322.45 38.95 322.45 54.15 313.05 63.45L177.05 199.45C167.65 208.95 152.45 208.95 143.05 199.55ZM177.05 391.55L313.05 255.55C322.45 246.15 322.45 230.95 313.05 221.65L290.45 199.05C281.05 189.65 265.85 189.65 256.55 199.05L160.05 295.35L63.65 198.95C54.25 189.55 39.05 189.55 29.75 198.95L7.05 221.55C-2.35 230.95 -2.35 246.15 7.05 255.45L143.05 391.45C152.45 400.95 167.65 400.95 177.05 391.55Z" fill="black"/>
</svg>
