<svg width="45" height="55" viewBox="0 0 45 55" fill="none" xmlns="http://www.w3.org/2000/svg">
<path d="M23.5487 32.5988C23.3286 32.7439 23.0897 32.8583 22.8387 32.9388C22.561 33.0297 22.2709 33.0769 21.9787 33.0788C21.6864 33.0777 21.3962 33.0305 21.1187 32.9388C20.8646 32.8579 20.6225 32.7436 20.3987 32.5988" stroke="black" stroke-width="1.6" stroke-linecap="round" stroke-linejoin="round"/>
<path d="M23.0987 1.89875C21.2955 1.10863 19.3092 0.831785 17.3587 1.09875C11.5787 1.53875 5.22867 4.01875 2.91867 12.0388C-0.86133 25.0888 2.02867 42.3187 2.49867 52.6587" stroke="black" stroke-width="1.6" stroke-linecap="round" stroke-linejoin="round"/>
<path d="M23.1487 1.86873C24.8065 1.30161 26.5777 1.14715 28.3087 1.41873C30.6593 1.74087 32.9164 2.55147 34.9349 3.79838C36.9534 5.0453 38.6885 6.70092 40.0287 8.65873C47.9187 20.2887 41.8087 53.1687 41.8087 53.1687" stroke="black" stroke-width="1.6" stroke-linecap="round" stroke-linejoin="round"/>
<path d="M21.0287 14.0387C20.2019 13.1906 19.1677 12.5735 18.0287 12.2487C17.9626 12.2382 17.9019 12.2058 17.8563 12.1568C17.8108 12.1078 17.7829 12.0449 17.7771 11.9783C17.7714 11.9116 17.7881 11.8449 17.8246 11.7888C17.8611 11.7327 17.9154 11.6904 17.9787 11.6687C18.7959 11.3578 19.6875 11.2986 20.5387 11.4987C20.6372 11.5215 20.7403 11.5156 20.8356 11.4817C20.9309 11.4478 21.0146 11.3873 21.0766 11.3073C21.1387 11.2274 21.1765 11.1314 21.1858 11.0306C21.195 10.9299 21.1752 10.8286 21.1287 10.7387C20.8272 10.1314 20.3882 9.60274 19.8465 9.19479C19.3049 8.78685 18.6756 8.51085 18.0087 8.38873C17.9463 8.36858 17.8919 8.32917 17.8533 8.27617C17.8147 8.22316 17.7939 8.15929 17.7939 8.09373C17.7939 8.02817 17.8147 7.96429 17.8533 7.91129C17.8919 7.85828 17.9463 7.81887 18.0087 7.79873C18.6555 7.59636 19.3312 7.50176 20.0087 7.51873C20.1357 7.54786 20.2691 7.53004 20.384 7.46855C20.499 7.40707 20.5878 7.30607 20.6341 7.1842C20.6804 7.06233 20.6811 6.92783 20.636 6.80551C20.5909 6.6832 20.503 6.58133 20.3887 6.51873C19.6655 5.97112 18.8716 5.52374 18.0287 5.18872C17.9805 5.16319 17.9403 5.12503 17.9122 5.07834C17.8841 5.03166 17.8693 4.9782 17.8693 4.92373C17.8693 4.86925 17.8841 4.81579 17.9122 4.76911C17.9403 4.72242 17.9805 4.68426 18.0287 4.65873C18.89 4.5085 19.7662 4.4615 20.6387 4.51873C20.7442 4.52743 20.8498 4.50435 20.9421 4.45245C21.0344 4.40056 21.109 4.32222 21.1563 4.22754C21.2036 4.13287 21.2215 4.02618 21.2077 3.92124C21.1939 3.81629 21.1489 3.7179 21.0787 3.63873C20.1175 2.49844 18.8238 1.68726 17.3787 1.31873" stroke="black" stroke-width="1.6" stroke-linecap="round" stroke-linejoin="round"/>
<path d="M25.4487 14.0388C26.2832 13.2136 27.3165 12.6177 28.4487 12.3088C28.511 12.2949 28.5672 12.2616 28.6093 12.2137C28.6514 12.1657 28.677 12.1056 28.6826 12.0421C28.6882 11.9785 28.6734 11.9149 28.6403 11.8603C28.6072 11.8058 28.5576 11.7632 28.4987 11.7388C27.7072 11.4533 26.8518 11.3944 26.0287 11.5688C25.9325 11.594 25.8311 11.5912 25.7364 11.5606C25.6418 11.53 25.5579 11.4729 25.4948 11.396C25.4316 11.3192 25.3918 11.2258 25.3801 11.1271C25.3684 11.0283 25.3853 10.9282 25.4287 10.8388C25.7385 10.2445 26.1812 9.72964 26.7223 9.33422C27.2634 8.93879 27.8884 8.67344 28.5487 8.55875C28.6151 8.54625 28.6751 8.51093 28.7183 8.45889C28.7615 8.40685 28.7851 8.34136 28.7851 8.27375C28.7851 8.20614 28.7615 8.14066 28.7183 8.08862C28.6751 8.03658 28.6151 8.00125 28.5487 7.98875C27.9012 7.79013 27.2256 7.69892 26.5487 7.71875C26.4351 7.73319 26.3199 7.70972 26.2211 7.65202C26.1222 7.59431 26.0451 7.50557 26.0018 7.39959C25.9585 7.2936 25.9514 7.17628 25.9815 7.06583C26.0117 6.95539 26.0775 6.85799 26.1687 6.78875C26.8672 6.25287 27.6297 5.8061 28.4387 5.45875C28.4999 5.43593 28.5515 5.39314 28.5854 5.33731C28.6192 5.28147 28.6332 5.21586 28.6251 5.15108C28.617 5.0863 28.5873 5.02615 28.5407 4.98036C28.4942 4.93457 28.4336 4.90582 28.3687 4.89875C27.5063 4.75829 26.6312 4.71135 25.7587 4.75875C25.6552 4.77173 25.5502 4.75265 25.4578 4.70409C25.3655 4.65553 25.2903 4.57981 25.2423 4.48716C25.1944 4.39451 25.176 4.28939 25.1896 4.18596C25.2033 4.08253 25.2483 3.98578 25.3187 3.90875C26.2924 2.79257 27.5888 2.00635 29.0287 1.65875" stroke="black" stroke-width="1.6" stroke-linecap="round" stroke-linejoin="round"/>
<path d="M25.5687 14.0388C36.3587 14.0388 38.9787 23.0388 39.1287 24.7588V24.9388C39.1287 25.4788 39.1287 26.0088 39.1287 26.5388C39.1546 27.3967 39.1212 28.2554 39.0287 29.1088C38.6404 31.7924 37.715 34.3702 36.3078 36.688C34.9006 39.0058 33.0405 41.0162 30.8387 42.5988L27.9287 44.6588C26.3365 45.9243 24.3626 46.6132 22.3287 46.6132C20.2948 46.6132 18.3209 45.9243 16.7287 44.6588L13.6687 42.3888C11.3727 40.7053 9.45804 38.5559 8.05013 36.0813C6.64222 33.6067 5.77278 30.8626 5.49871 28.0288C5.49871 27.5188 5.42871 27.0288 5.42871 26.5788V26.1188C5.49079 23.5267 6.48075 21.0429 8.21871 19.1188C11.6887 15.0588 15.8387 13.7388 20.9987 14.1188" stroke="black" stroke-width="1.6" stroke-linecap="round" stroke-linejoin="round"/>
<path d="M30.4187 43.2087C29.9801 45.9178 30.1821 48.6919 31.0087 51.3087C31.2034 52.0179 31.507 52.6926 31.9087 53.3087" stroke="black" stroke-width="1.6" stroke-linecap="round" stroke-linejoin="round"/>
<path d="M14.0287 42.7787C14.4635 45.6308 14.262 48.5437 13.4387 51.3087C13.2362 52.0168 12.9295 52.6909 12.5287 53.3087" stroke="black" stroke-width="1.6" stroke-linecap="round" stroke-linejoin="round"/>
<path d="M22.0987 15.0587C21.5959 15.0683 21.1016 15.19 20.6518 15.4149C20.202 15.6398 19.808 15.9623 19.4987 16.3587" stroke="black" stroke-width="1.6" stroke-linecap="round" stroke-linejoin="round"/>
<path d="M25.5587 15.4888C26.8888 16.6718 28.5437 17.4279 30.3087 17.6588" stroke="black" stroke-width="1.6" stroke-linecap="round" stroke-linejoin="round"/>
</svg>
