<svg width="62" height="52" viewBox="0 0 62 52" fill="none" xmlns="http://www.w3.org/2000/svg">
<path d="M32.8901 20.22C33.2987 21.8841 33.9525 23.4782 34.8301 24.95C35.5111 26.0447 35.9509 27.272 36.1201 28.55C36.1311 29.4517 35.8774 30.3369 35.3904 31.0958C34.9033 31.8548 34.2044 32.4543 33.3801 32.82C33.3906 32.7002 33.3906 32.5798 33.3801 32.46C33.3801 30.9 32.5301 29.64 31.4901 29.64C30.4501 29.64 29.6201 30.82 29.6201 32.41C29.6096 32.5298 29.6096 32.6502 29.6201 32.77C28.8018 32.4092 28.1061 31.8181 27.6178 31.0688C27.1295 30.3195 26.8698 29.4444 26.8701 28.55C26.9582 27.728 27.2026 26.9303 27.5901 26.2C28.2101 24.73 29.1401 23.41 29.7301 21.93C30.1201 20.93 30.1101 19.58 30.1801 16.87C30.2401 14.67 30.1201 14.61 30.1801 13.3C30.2601 12.3 30.4101 2.87 31.1801 1" stroke="black" stroke-width="1.6" stroke-linecap="round" stroke-linejoin="round"/>
<path d="M18.9399 21.3901C19.3152 22.898 19.908 24.3432 20.6999 25.6801C21.3222 26.6734 21.7245 27.7884 21.8799 28.9501C21.8891 29.7681 21.658 30.5707 21.2154 31.2586C20.7728 31.9465 20.1381 32.4895 19.3899 32.8201C19.3899 32.7201 19.3899 32.6101 19.3899 32.5001C19.3899 31.0801 18.6199 29.9301 17.6699 29.9301C16.7199 29.9301 15.9499 31.0801 15.9499 32.5001C15.9499 32.6101 15.9499 32.7201 15.9499 32.8201C15.21 32.4825 14.5844 31.9367 14.1493 31.2495C13.7143 30.5624 13.4886 29.7634 13.4999 28.9501C13.5818 28.2058 13.8022 27.4834 14.1499 26.8201C14.7199 25.4901 15.5599 24.2901 16.0899 22.9501C16.4499 22.0601 16.4399 20.8101 16.5099 18.3601C16.5599 16.3601 17.0799 13.1001 17.1799 11.9001" stroke="black" stroke-width="1.6" stroke-linecap="round" stroke-linejoin="round"/>
<path d="M45.9499 21.3901C46.3213 22.8993 46.9144 24.345 47.7099 25.6801C48.3292 26.674 48.7281 27.789 48.8799 28.9501C48.8886 29.7667 48.6585 30.568 48.2179 31.2556C47.7773 31.9431 47.1454 32.4869 46.3999 32.8201C46.3999 32.7201 46.3999 32.6101 46.3999 32.5001C46.3999 31.0801 45.6299 29.9301 44.6899 29.9301C43.7499 29.9301 42.9699 31.0801 42.9699 32.5001C42.9699 32.6101 42.9699 32.7201 42.9699 32.8201C42.2254 32.4865 41.5949 31.9423 41.156 31.2546C40.7171 30.5669 40.489 29.7659 40.4999 28.9501C40.5849 28.2051 40.8087 27.4827 41.1599 26.8201C41.7299 25.4901 42.5699 24.2901 43.0999 22.9501C43.4499 22.0601 43.4399 20.8101 43.5099 18.3601C43.5699 16.3601 44.0899 13.1001 44.1899 11.9001" stroke="black" stroke-width="1.6" stroke-linecap="round" stroke-linejoin="round"/>
<path d="M51.78 26.3301C57.46 27.5401 61 29.2501 61 31.1301C61 34.8201 47.57 37.8201 31 37.8201C14.43 37.8201 1 34.8201 1 31.1701C1 29.3401 4.36 27.6701 9.78 26.4701" stroke="black" stroke-width="1.6" stroke-linecap="round" stroke-linejoin="round"/>
<path d="M1 43.6902C1 47.3602 14.43 50.3402 31 50.3402C47.57 50.3402 61 47.3402 61 43.6902" stroke="black" stroke-width="1.6" stroke-linecap="round" stroke-linejoin="round"/>
<path d="M1 31.1301V43.6901" stroke="black" stroke-width="1.6" stroke-linecap="round" stroke-linejoin="round"/>
<path d="M61 31.1301V43.6901" stroke="black" stroke-width="1.6" stroke-linecap="round" stroke-linejoin="round"/>
</svg>
