<svg width="56" height="56" viewBox="0 0 56 56" fill="none" xmlns="http://www.w3.org/2000/svg">
<path d="M49.0935 20.9747L49.9135 18.2747C49.9743 18.0647 49.9529 17.8395 49.8535 17.6447C49.7521 17.4597 49.5841 17.3203 49.3835 17.2547H49.3135C49.1057 17.207 48.8876 17.2391 48.7024 17.3447C48.5172 17.4503 48.3784 17.6216 48.3135 17.8247L47.4835 20.5247C46.8519 22.5923 45.7965 24.5057 44.3848 26.143C42.973 27.7803 41.2357 29.1057 39.2835 30.0347L23.5935 37.4547C23.3535 37.6047 22.7036 37.9547 22.0836 38.2447L21.7936 38.3847C21.5336 38.5047 21.2535 38.6247 20.9635 38.7347C20.5752 38.8888 20.1778 39.0191 19.7736 39.1247C19.4129 39.2324 19.0398 39.2929 18.6635 39.3047C18.1935 39.3047 17.9535 39.2247 17.8135 39.0147L17.7435 38.9447V38.8447C17.6835 38.7247 17.6435 38.4147 18.4635 37.5247C18.6443 37.3223 18.838 37.1319 19.0435 36.9547L19.2435 36.7747C19.5976 36.4581 19.9791 36.1736 20.3835 35.9247C20.7635 35.6547 21.1535 35.4047 21.5535 35.1647C21.9535 34.9247 22.6235 34.5347 23.1735 34.2447L39.1735 24.6647C40.4052 23.9256 41.2989 22.7341 41.6635 21.3447L47.0335 1.01471C47.0395 0.948177 47.0395 0.881243 47.0335 0.81471C47.0336 0.635567 46.9749 0.46135 46.8666 0.318688C46.7582 0.176027 46.6061 0.0727751 46.4335 0.0247125C46.2243 -0.0250103 46.0039 0.00742025 45.8179 0.115327C45.6319 0.223233 45.4943 0.398393 45.4335 0.60471L40.0335 20.9347C39.7767 21.9018 39.1571 22.7326 38.3035 23.2547L25.7435 30.7947V30.2147C25.6935 29.4247 25.6835 28.6047 25.7435 27.8047V27.6047L34.5535 22.3247C35.7738 21.6008 36.6609 20.4264 37.0235 19.0547L42.3835 1.05471C42.3899 0.978174 42.3899 0.901249 42.3835 0.824712C42.3859 0.649054 42.3304 0.477498 42.2256 0.336526C42.1208 0.195554 41.9725 0.0930072 41.8035 0.0447129C41.598 -0.0141341 41.3776 0.010658 41.1902 0.113686C41.0029 0.216715 40.8639 0.389623 40.8035 0.594712L35.4436 18.5947C35.1897 19.5635 34.5646 20.3933 33.7035 20.9047L25.8636 25.6047L25.9535 24.8947C26.9006 18.5951 29.2333 12.5841 32.7835 7.29471C32.9162 7.11967 32.9738 6.89912 32.9438 6.68157C32.9138 6.46403 32.7986 6.26732 32.6235 6.13471C32.4485 6.0021 32.228 5.94446 32.0104 5.97447C31.7929 6.00447 31.5962 6.11967 31.4635 6.29471C25.2735 14.0247 21.4635 21.5947 20.2235 28.8047V28.9647L17.9435 30.3347C16.73 30.9553 15.5636 31.6638 14.4535 32.4547C11.9535 34.2747 11.0335 35.8947 11.7235 37.2747C11.8438 37.5565 12.0229 37.8094 12.2488 38.0163C12.4747 38.2233 12.7423 38.3796 13.0335 38.4747C13.9072 38.661 14.8146 38.6127 15.6635 38.3347L16.1535 38.2047V38.7047C16.1401 39.0502 16.2123 39.3937 16.3635 39.7047C16.5842 40.0982 16.9091 40.4231 17.3026 40.6436C17.6961 40.8642 18.1428 40.9718 18.5935 40.9547H18.6835C19.1401 40.9233 19.5924 40.8463 20.0335 40.7247L20.3735 40.6447L20.4535 40.9847C20.9914 43.1315 21.7522 45.2161 22.7236 47.2047C22.8936 47.5747 23.0736 47.9647 23.1536 48.2047V48.2747V48.3647C22.9905 49.9949 23.4648 51.625 24.477 52.9132C25.4893 54.2014 26.961 55.0477 28.5836 55.2747C28.8618 55.3146 29.1425 55.3346 29.4235 55.3347C31.0074 55.3345 32.5331 54.7377 33.6968 53.6632C34.8604 52.5886 35.5766 51.1152 35.7027 49.5363C35.8289 47.9574 35.3556 46.389 34.3773 45.1434C33.399 43.8977 31.9873 43.0663 30.4235 42.8147L30.2735 42.7547C28.9144 41.3859 27.888 39.7231 27.2735 37.8947L27.1536 37.5847L40.0335 31.4747C42.1901 30.4497 44.1095 28.9867 45.6694 27.1789C47.2293 25.3711 48.3955 23.2582 49.0935 20.9747V20.9747ZM21.3935 32.7347C21.3935 31.8647 21.5235 31.0247 21.6335 30.1847C21.7135 29.6847 21.8035 29.1847 21.8935 28.6547C21.9835 28.1247 22.1035 27.6547 22.2335 27.0847C22.7362 25.0337 23.405 23.0271 24.2335 21.0847L27.3336 14.3647L24.8935 21.3047C24.514 22.997 24.26 24.715 24.1335 26.4447C24.1335 26.9147 24.0735 27.3747 24.0635 27.8247C24.0535 28.2747 24.0635 28.7347 24.0635 29.1747C24.0635 29.9547 24.1236 30.7347 24.1936 31.4747V31.6947L21.3435 33.3447L21.3935 32.7347ZM13.9735 36.9647C13.8083 36.9669 13.6434 36.9468 13.4835 36.9047C13.4025 36.8881 13.3262 36.8534 13.2604 36.8032C13.1946 36.7529 13.141 36.6885 13.1035 36.6147V36.6147C12.5835 35.6147 16.1035 33.1347 18.6435 31.8347L19.8435 31.1147L19.7935 31.7947C19.7235 32.5947 19.6835 33.4147 19.6835 34.2247V34.4047L19.4235 34.5847L19.2635 34.7047L19.0835 34.8347L18.1735 35.5347C16.8746 36.2683 15.4503 36.7532 13.9735 36.9647V36.9647ZM30.0836 44.3747C30.9982 44.4971 31.8559 44.8884 32.5479 45.4988C33.2399 46.1092 33.7352 46.9114 33.9708 47.8036C34.2064 48.6958 34.1719 49.6379 33.8715 50.5104C33.5711 51.3829 33.0185 52.1466 32.2835 52.7047C31.4843 53.3416 30.4954 53.6935 29.4736 53.7047C29.2605 53.7192 29.0466 53.7192 28.8336 53.7047C27.6092 53.5381 26.5008 52.8931 25.7511 51.911C25.0014 50.9288 24.6715 49.6896 24.8336 48.4647C24.8936 48.0247 24.6935 47.5847 24.2335 46.6147C23.2768 44.6203 22.5392 42.5281 22.0335 40.3747L21.9635 40.1447L22.2335 40.0247C22.9176 39.7273 23.5852 39.3935 24.2335 39.0247L25.7636 38.2947L25.9036 38.6447C26.0636 39.0647 26.2335 39.4347 26.3835 39.7747C27.3535 41.9147 28.9736 44.2247 30.0836 44.3747Z" fill="black"/>
<path d="M50.7736 12.7947H50.6536H50.5236C50.3441 12.7962 50.1693 12.8525 50.0228 12.9562C49.8762 13.0599 49.7648 13.2059 49.7036 13.3747C49.6733 13.4737 49.663 13.5777 49.6733 13.6807C49.6836 13.7837 49.7143 13.8837 49.7636 13.9747C49.8112 14.0741 49.8796 14.1622 49.9641 14.2329C50.0486 14.3036 50.1474 14.3554 50.2536 14.3847C50.3327 14.4023 50.4146 14.4023 50.4936 14.3847C50.6861 14.3842 50.8723 14.3161 51.0196 14.1922C51.1669 14.0682 51.2659 13.8965 51.2993 13.7069C51.3326 13.5173 51.2983 13.3221 51.2022 13.1553C51.1061 12.9885 50.9544 12.8609 50.7736 12.7947V12.7947Z" fill="black"/>
<path d="M55.1436 1.04488C55.1854 0.946882 55.207 0.841432 55.207 0.734883C55.207 0.628334 55.1854 0.522885 55.1436 0.424882C55.0355 0.235427 54.8609 0.0928795 54.6536 0.0248843C54.4483 -0.0262315 54.2312 0.00201321 54.0459 0.103978C53.8605 0.205943 53.7204 0.374117 53.6536 0.574884L51.0336 8.86488C51.003 8.96551 50.9926 9.07119 51.0029 9.17586C51.0132 9.28053 51.044 9.38214 51.0936 9.47488C51.1885 9.65365 51.3447 9.79214 51.5336 9.86488H51.6336H51.8136C51.988 9.86788 52.1586 9.81381 52.2994 9.71092C52.4402 9.60802 52.5435 9.46193 52.5936 9.29488L55.1436 1.04488Z" fill="black"/>
<path d="M0.243796 44.3747L5.8738 50.3747L11.4938 44.3747C11.5691 44.3012 11.6289 44.2133 11.6698 44.1162C11.7106 44.0192 11.7316 43.915 11.7316 43.8097C11.7316 43.7045 11.7106 43.6002 11.6698 43.5032C11.6289 43.4062 11.5691 43.3183 11.4938 43.2447C11.3486 43.1062 11.1545 43.0307 10.9538 43.0347C10.8437 43.0347 10.7347 43.0568 10.6334 43.0997C10.532 43.1427 10.4403 43.2056 10.3638 43.2847L6.6738 47.2847V15.1447C6.6738 14.9326 6.58951 14.7291 6.43948 14.579C6.28945 14.429 6.08597 14.3447 5.8738 14.3447C5.66162 14.3447 5.45814 14.429 5.30811 14.579C5.15808 14.7291 5.0738 14.9326 5.0738 15.1447V47.2547L1.3938 43.2547C1.31727 43.1756 1.22559 43.1127 1.12423 43.0697C1.02286 43.0268 0.913887 43.0047 0.803798 43.0047C0.60313 43.0007 0.409006 43.0762 0.263797 43.2147C0.182526 43.2873 0.117146 43.3759 0.0717689 43.475C0.0263913 43.574 0.00199574 43.6814 0.000117395 43.7904C-0.00176095 43.8993 0.0189193 44.0075 0.060855 44.108C0.102791 44.2086 0.165075 44.2994 0.243796 44.3747V44.3747Z" fill="black"/>
</svg>
