<svg width="76" height="50" viewBox="0 0 76 50" fill="none" xmlns="http://www.w3.org/2000/svg">
<path d="M69.8462 33.6059C70.082 33.6897 70.3224 33.7598 70.5662 33.8159L71.2262 33.9559C72.2262 34.1759 73.2262 34.4059 74.2962 34.5259C74.4263 34.5485 74.5595 34.5451 74.6882 34.5159C74.8169 34.4868 74.9386 34.4324 75.0462 34.3559C75.2033 34.188 75.2893 33.9659 75.2862 33.736C75.2862 33.496 75.2862 33.0059 74.2862 32.8959C73.4548 32.799 72.63 32.6521 71.8162 32.4559C71.3562 32.3559 70.9062 32.226 70.4562 32.086C70.0062 31.946 69.3662 31.776 68.8162 31.666C68.0729 31.4741 67.2842 31.5745 66.6127 31.9466C65.9411 32.3186 65.4378 32.934 65.2062 33.666C65.0487 34.1264 65.0055 34.6182 65.0804 35.0991C65.1553 35.5799 65.3461 36.0353 65.6362 36.4259C66.4737 37.6358 66.9553 39.0562 67.0262 40.5259C67.1862 43.4459 65.8862 45.8859 63.6462 46.8859C62.2707 47.5005 60.7167 47.5851 59.2825 47.1237C57.8484 46.6623 56.6353 45.6873 55.8762 44.3859C55.1567 43.1191 54.6817 41.7283 54.4762 40.2859C54.3513 38.862 54.3513 37.4299 54.4762 36.0059C54.4762 35.6559 54.4762 35.3159 54.4762 35.0059C54.5053 34.56 54.4451 34.1127 54.2991 33.6903C54.1531 33.2679 53.9244 32.8789 53.6262 32.5459C53.3408 32.26 53.0006 32.0347 52.626 31.8835C52.2514 31.7323 51.8501 31.6583 51.4462 31.666C49.4462 31.666 47.3462 31.666 45.2962 31.666C44.8938 31.6688 44.4961 31.7527 44.1267 31.9124C43.7573 32.0722 43.4239 32.3046 43.1462 32.5959C42.9013 32.8538 42.7112 33.1587 42.5874 33.4922C42.4637 33.8256 42.4088 34.1807 42.4262 34.5359C42.5231 35.3701 42.8031 36.1726 43.2462 36.8859C44.0765 38.27 44.4605 39.876 44.3462 41.486C44.1462 44.726 42.3462 46.876 39.4962 47.376C38.2358 47.5862 36.9412 47.3999 35.7912 46.8428C34.6412 46.2857 33.6926 45.3853 33.0762 44.266C31.6962 41.886 31.2862 39.1159 31.7762 35.5759C31.8948 35.0521 31.8888 34.5077 31.7585 33.9866C31.6282 33.4656 31.3774 32.9824 31.0262 32.5759C30.6273 32.2087 30.1492 31.9383 29.629 31.7857C29.1087 31.6331 28.5603 31.6024 28.0262 31.696C27.0273 31.7604 26.0252 31.7604 25.0262 31.696H23.7262H23.1562C22.8243 31.6527 22.4882 31.6527 22.1562 31.696C21.6812 31.7753 21.2337 31.9725 20.8546 32.2695C20.4755 32.5664 20.177 32.9538 19.9862 33.3959C19.7876 33.8521 19.7055 34.3505 19.7474 34.8463C19.7893 35.342 19.9539 35.8196 20.2262 36.236C21.2991 37.8317 21.8158 39.7368 21.6962 41.656C21.69 43.0502 21.1808 44.3955 20.2623 45.4444C19.3437 46.4934 18.0775 47.1757 16.6962 47.3659C15.4634 47.5186 14.2127 47.3085 13.0974 46.7615C11.982 46.2145 11.0503 45.3542 10.4162 44.2859C9.52926 42.8214 9.0462 41.1479 9.01623 39.4359C9.01623 38.2959 9.01623 37.1459 9.10623 36.0359C9.10623 35.5759 9.10623 35.1059 9.16623 34.6459C9.21514 34.1091 9.10102 33.57 8.83877 33.099C8.57652 32.6281 8.17834 32.2471 7.69623 32.0059C7.22534 31.7486 6.70387 31.5974 6.16837 31.5628C5.63286 31.5283 5.09628 31.6113 4.59623 31.806L3.37623 32.1359C2.44623 32.3959 1.50623 32.646 0.57623 32.916C0.39759 32.9524 0.23941 33.0552 0.133619 33.2036C0.0278274 33.3521 -0.0176978 33.5352 0.0062308 33.7159C0.0062308 34.3359 0.38623 34.446 0.64623 34.486C0.960527 34.5259 1.27957 34.5056 1.58623 34.4259L3.26623 33.9259C3.90623 33.7259 4.55623 33.5259 5.19623 33.3559C5.49542 33.2313 5.81979 33.179 6.14298 33.2034C6.46618 33.2277 6.77907 33.3279 7.05623 33.4959C7.27164 33.7415 7.42712 34.0336 7.51042 34.3495C7.59371 34.6653 7.60255 34.9961 7.53623 35.3159C7.40718 36.7086 7.3671 38.1082 7.41623 39.5059C7.43519 41.9149 8.28664 44.2431 9.82623 46.0959C10.7222 47.2125 11.912 48.0569 13.2618 48.5339C14.6115 49.0109 16.0677 49.1016 17.4662 48.7959C18.765 48.5863 19.974 48.0012 20.9442 47.1127C21.9144 46.2243 22.6034 45.0713 22.9262 43.7959C23.358 42.4492 23.4834 41.0229 23.2931 39.6214C23.1027 38.22 22.6016 36.8788 21.8262 35.696C21.65 35.4401 21.5395 35.1447 21.5046 34.836C21.4698 34.5273 21.5115 34.2147 21.6262 33.9259C21.9862 33.3659 22.9562 33.2959 23.2362 33.2859C24.1162 33.2859 24.9962 33.2859 25.8762 33.2859C26.7562 33.2859 27.5562 33.2859 28.3962 33.2859C28.6584 33.2531 28.9245 33.2752 29.1776 33.351C29.4307 33.4267 29.6653 33.5544 29.8662 33.726C30.0219 33.9299 30.132 34.1649 30.1889 34.4151C30.2459 34.6652 30.2484 34.9247 30.1962 35.1759L30.1262 35.8859C30.0268 36.7156 29.9767 37.5504 29.9762 38.3859C30.0462 40.7259 30.3862 43.7059 32.4062 46.0659C33.2981 47.2167 34.5014 48.0875 35.8733 48.5749C37.2453 49.0623 38.7282 49.146 40.1462 48.8159C41.4618 48.5957 42.6822 47.9895 43.6525 47.0744C44.6229 46.1592 45.2994 44.9763 45.5962 43.6759C46.0059 42.3401 46.1153 40.9303 45.9165 39.5473C45.7177 38.1642 45.2156 36.8423 44.4462 35.6759C44.2886 35.4311 44.1864 35.1548 44.1467 34.8664C44.107 34.5779 44.1307 34.2843 44.2162 34.0059C44.4562 33.4359 45.3762 33.2959 45.7062 33.2859C46.9862 33.2859 48.2662 33.2859 49.5362 33.2859H51.2062C51.4498 33.2576 51.6966 33.2842 51.9285 33.3638C52.1604 33.4434 52.3715 33.574 52.5462 33.7459C52.6915 33.9357 52.7943 34.1544 52.8478 34.3873C52.9013 34.6202 52.9041 34.8618 52.8562 35.0959C52.7762 35.7659 52.7062 36.4359 52.6362 37.0959L52.5462 38.0059C52.6462 41.4159 53.4162 44.0059 54.8462 45.8159C55.7354 47.073 56.9836 48.032 58.4272 48.5673C59.8708 49.1027 61.4425 49.1893 62.9362 48.8159C65.9362 48.1359 67.8362 46.1159 68.4662 42.8159C68.7241 41.5885 68.7339 40.3219 68.4952 39.0906C68.2565 37.8593 67.7741 36.6881 67.0762 35.6459C66.9019 35.3875 66.7998 35.0871 66.7804 34.7759C66.7611 34.4647 66.8252 34.154 66.9662 33.876C67.1878 33.676 67.4499 33.526 67.7346 33.4363C68.0193 33.3465 68.32 33.3191 68.6162 33.3559C69.0337 33.397 69.4459 33.4807 69.8462 33.6059Z" fill="black"/>
<path d="M72.4061 1.44586C72.5396 1.10167 72.5396 0.720044 72.4061 0.375858C72.3594 0.27408 72.2868 0.186346 72.1955 0.121418C72.1043 0.0564905 71.9976 0.0166444 71.8861 0.00585938C71.6949 0.0256641 71.5113 0.0914982 71.3511 0.197731C71.1909 0.303964 71.0588 0.447433 70.9661 0.61586C66.2416 8.01134 62.348 15.9058 59.3561 24.1559C57.6518 28.6667 56.6991 33.4266 56.5361 38.2459V38.6559C56.5361 39.0959 56.6061 39.6559 56.6961 40.3059C56.8009 41.7614 57.4424 43.1263 58.4961 44.1359C58.9296 44.5098 59.4403 44.7835 59.9917 44.9373C60.5431 45.0911 61.1217 45.1214 61.6861 45.0259C62.0975 44.9671 62.4906 44.8172 62.8366 44.5871C63.1826 44.357 63.4729 44.0525 63.6861 43.6959C64.1542 43.0088 64.416 42.2023 64.4408 41.3713C64.4656 40.5403 64.2524 39.7196 63.8261 39.0059C62.5831 36.9592 62.0719 34.551 62.3761 32.1759C62.8472 25.9807 64.3162 19.9024 66.7261 14.1759C67.8161 11.4559 69.0661 8.74586 70.2761 6.17586C70.9961 4.58586 71.7161 3.00586 72.4061 1.44586ZM62.6561 42.0859C62.621 42.4607 62.4463 42.8086 62.1665 43.0605C61.8868 43.3125 61.5226 43.45 61.1461 43.4459C61.0096 43.4552 60.8726 43.4552 60.7361 43.4459C60.2333 43.3687 59.7682 43.1332 59.4085 42.7735C59.0488 42.4138 58.8133 41.9487 58.7361 41.4459C58.4377 39.9207 58.2903 38.3699 58.2961 36.8159C58.4609 33.5125 59.0835 30.248 60.1461 27.1159C60.1723 27.0219 60.2092 26.9313 60.2561 26.8459L61.6661 23.4459L61.3061 26.8659C61.2461 27.4359 61.1761 27.9859 61.1161 28.5159C60.9761 29.6759 60.8561 30.7759 60.7961 31.8659C60.6803 33.1985 60.7104 34.5398 60.8861 35.8659C61.1434 37.0467 61.5677 38.1848 62.1461 39.2459C62.6581 40.0981 62.8396 41.1087 62.6561 42.0859Z" fill="black"/>
<path d="M17.1459 45.0059C17.6283 44.8964 18.0762 44.6692 18.4495 44.3447C18.8229 44.0202 19.1102 43.6084 19.2859 43.1459C19.6126 42.4282 19.7501 41.6387 19.6853 40.8528C19.6205 40.0668 19.3557 39.3106 18.9159 38.6559C17.9475 37.223 17.4735 35.513 17.5659 33.7859C17.6566 30.1224 18.1871 26.483 19.1459 22.9459C21.1637 15.5104 24.0186 8.32776 27.6559 1.53594C28.1359 0.615937 27.8359 0.345937 27.4959 0.145937C27.1559 -0.0540628 26.7759 -0.174061 26.2559 0.655939C21.5552 7.99327 17.6721 15.8233 14.6759 24.0059C12.9554 28.5449 11.9893 33.3349 11.8159 38.1859C11.8159 38.2959 11.8159 38.4459 11.8159 38.6059C11.8364 39.1752 11.8898 39.7428 11.9759 40.3059C12.0889 41.7358 12.718 43.0757 13.7459 44.0759C14.1935 44.497 14.7375 44.8019 15.3302 44.964C15.9229 45.1262 16.5463 45.1406 17.1459 45.0059ZM13.5259 36.7059C13.7285 33.4668 14.3469 30.2672 15.3659 27.1859C15.4069 27.0689 15.4571 26.9552 15.5159 26.8459L15.5959 26.6759L16.8559 24.0059L16.5459 27.0059C16.5459 27.5359 16.4259 28.0059 16.3659 28.5659C16.2259 29.7359 16.0959 30.8359 16.0559 31.9459C15.96 33.4375 16.0136 34.935 16.2159 36.4159C16.4542 37.4009 16.8456 38.3424 17.3759 39.2059L17.4459 39.3159C17.9294 40.1238 18.1068 41.0783 17.9459 42.0059C17.9078 42.2574 17.8167 42.498 17.6788 42.7117C17.5409 42.9254 17.3593 43.1075 17.1459 43.2459C16.9117 43.39 16.6408 43.4629 16.3659 43.4559C16.1524 43.4505 15.9406 43.4169 15.7359 43.3559C15.2365 43.2296 14.7874 42.9543 14.448 42.5668C14.1087 42.1792 13.8952 41.6976 13.8359 41.1859C13.5902 39.7059 13.4864 38.2057 13.5259 36.7059Z" fill="black"/>
<path d="M39.6061 45.0059C40.0885 44.8964 40.5364 44.6692 40.9097 44.3447C41.2831 44.0202 41.5704 43.6084 41.7461 43.1459C42.0728 42.4282 42.2103 41.6387 42.1455 40.8528C42.0808 40.0668 41.8159 39.3106 41.3761 38.6559C40.4077 37.223 39.9337 35.513 40.0261 33.7859C40.1138 30.1287 40.6443 26.4955 41.6061 22.9659C43.627 15.5206 46.4923 8.33055 50.1461 1.53594C50.6261 0.615937 50.3261 0.345937 49.9861 0.145937C49.6461 -0.0540628 49.2661 -0.174061 48.7461 0.655939C44.0385 7.99238 40.1486 15.8224 37.1461 24.0059C35.4256 28.5449 34.4595 33.3349 34.2861 38.1859C34.2861 38.2959 34.2861 38.4459 34.2861 38.6059C34.2861 39.0659 34.3461 39.6959 34.4461 40.3059C34.5591 41.7358 35.1882 43.0757 36.2161 44.0759C36.6627 44.4954 37.2049 44.7994 37.7958 44.9615C38.3866 45.1236 39.0081 45.1388 39.6061 45.0059ZM35.9661 36.7059C36.1687 33.4668 36.7871 30.2672 37.8061 27.1859C37.8472 27.0689 37.8973 26.9552 37.9561 26.8459L38.0361 26.6759L39.3061 24.0059L38.9861 27.0059C38.9861 27.5359 38.8761 28.0059 38.8061 28.5759C38.6661 29.7359 38.5361 30.8359 38.4961 31.9459C38.4002 33.4375 38.4538 34.935 38.6561 36.4159C38.8944 37.3978 39.2859 38.3359 39.8161 39.1959L39.8861 39.3159C40.3891 40.1459 40.5672 41.1325 40.3861 42.0859C40.3514 42.3324 40.2659 42.5689 40.1351 42.7806C40.0043 42.9923 39.831 43.1746 39.6261 43.3159C39.3919 43.46 39.121 43.5329 38.8461 43.5259C38.6327 43.5198 38.421 43.4861 38.2161 43.4259C37.7187 43.2958 37.2717 43.0194 36.933 42.6326C36.5943 42.2458 36.3794 41.7662 36.3161 41.2559C36.0526 39.7542 35.9354 38.2304 35.9661 36.7059Z" fill="black"/>
</svg>
