<svg width="56" height="57" viewBox="0 0 56 57" fill="none" xmlns="http://www.w3.org/2000/svg">
<path d="M55.3636 10.9603L44.3036 0.230281C44.2295 0.154858 44.1406 0.0955088 44.0426 0.0559379C43.9445 0.016367 43.8393 -0.00257727 43.7336 0.000281449C43.5226 0.00328709 43.3213 0.0895479 43.1736 0.240279L27.6336 16.2403L14.1936 2.80028C13.3316 1.94231 12.1649 1.46065 10.9486 1.46065C9.7324 1.46065 8.56567 1.94231 7.70363 2.80028L2.30363 8.20028C1.44566 9.06232 0.963997 10.229 0.963997 11.4453C0.963997 12.6615 1.44566 13.8282 2.30363 14.6903L15.9536 28.3003L13.1136 31.2303L0.233631 44.5103C0.0840209 44.6603 0 44.8634 0 45.0753C0 45.2871 0.0840209 45.4903 0.233631 45.6403L11.3036 56.3703C11.4493 56.5167 11.6471 56.5995 11.8536 56.6003C12.0646 56.5973 12.2659 56.511 12.4136 56.3603L27.9536 40.3603L37.4636 49.8003C38.5391 50.875 39.8876 51.6357 41.3636 52.0003L52.9336 54.9003L53.6136 55.0703H53.8036C54.0161 55.0694 54.2201 54.9871 54.3736 54.8403C54.4674 54.74 54.5355 54.6185 54.5721 54.4861C54.6087 54.3537 54.6126 54.2145 54.5836 54.0803L53.1536 48.3603V48.2903L51.5336 41.8303C51.1667 40.3552 50.4063 39.0073 49.3336 37.9303L39.6536 28.3003L55.3736 12.0903C55.5219 11.939 55.6042 11.7351 55.6023 11.5232C55.6004 11.3114 55.5146 11.1089 55.3636 10.9603ZM26.5036 17.4203L22.3036 21.7103L15.6136 15.0203L19.8736 10.8003L26.5036 17.4203ZM3.50363 13.5603C2.94488 12.9982 2.63125 12.2378 2.63125 11.4453C2.63125 10.6527 2.94488 9.89237 3.50363 9.33028L8.85363 3.98028C9.41572 3.42153 10.1761 3.1079 10.9686 3.1079C11.7612 3.1079 12.5215 3.42153 13.0836 3.98028L18.7636 9.66028L9.18363 19.2403L3.50363 13.5603ZM10.3036 20.3703L14.5336 16.1503L21.2436 22.8603L20.2436 23.8603L17.0436 27.1603L10.3036 20.3703ZM29.1036 39.1803L33.3036 34.8903L38.8036 40.3903L39.5036 45.3203L34.5736 44.6203L29.1036 39.1803ZM51.7036 49.1803L52.7036 53.1803L48.7036 52.1803C48.9811 51.5071 49.389 50.8954 49.9039 50.3806C50.4188 49.8657 51.0304 49.4578 51.7036 49.1803ZM46.0036 36.9203L48.1836 39.1003C49.0505 39.9703 49.6657 41.0588 49.9636 42.2503L51.3036 47.6503C50.3494 47.9995 49.4827 48.5523 48.7636 49.2703C48.0515 49.9901 47.4995 50.8523 47.1436 51.8003L41.7536 50.4503C40.5603 50.1571 39.4705 49.5413 38.6036 48.6703L36.4236 46.5003L40.2936 47.0603H40.4136C40.6246 47.0573 40.8259 46.971 40.9736 46.8203C41.0629 46.7331 41.1304 46.6261 41.1703 46.5079C41.2103 46.3897 41.2217 46.2637 41.2036 46.1403L40.4636 40.9503L45.6536 41.6903C45.7771 41.7084 45.9031 41.697 46.0213 41.657C46.1395 41.617 46.2465 41.5496 46.3336 41.4603C46.4208 41.3738 46.4869 41.2683 46.5268 41.1521C46.5667 41.0359 46.5793 40.9121 46.5636 40.7903L46.0036 36.9203ZM44.1236 35.0403L44.8236 39.9703L39.8936 39.2603L34.3736 33.7403L38.5336 29.4503L44.1236 35.0403ZM11.8536 54.6703L1.93363 45.0503L10.1236 36.6103L12.5036 38.9103C12.5772 38.9856 12.6651 39.0454 12.7621 39.0862C12.8591 39.1271 12.9634 39.1481 13.0686 39.1481C13.1739 39.1481 13.2781 39.1271 13.3751 39.0862C13.4722 39.0454 13.5601 38.9856 13.6336 38.9103C13.7832 38.7603 13.8673 38.5571 13.8673 38.3453C13.8673 38.1334 13.7832 37.9303 13.6336 37.7803L11.2536 35.4803L13.7236 32.9403L17.5736 36.6703C17.6462 36.7449 17.7334 36.8039 17.8297 36.8434C17.9261 36.883 18.0295 36.9024 18.1336 36.9003C18.3479 36.8988 18.5529 36.8125 18.7036 36.6603C18.7789 36.5867 18.8387 36.4988 18.8796 36.4018C18.9204 36.3048 18.9415 36.2006 18.9415 36.0953C18.9415 35.99 18.9204 35.8858 18.8796 35.7888C18.8387 35.6917 18.7789 35.6039 18.7036 35.5303L14.8136 31.8003L17.3036 29.2303L19.6736 31.5303C19.8236 31.6799 20.0268 31.7639 20.2386 31.7639C20.4505 31.7639 20.6537 31.6799 20.8036 31.5303C20.9532 31.3803 21.0373 31.1771 21.0373 30.9653C21.0373 30.7534 20.9532 30.5503 20.8036 30.4003L18.4236 28.0903L20.8836 25.5503L24.7436 29.2903C24.8162 29.3614 24.9022 29.4175 24.9966 29.4553C25.091 29.493 25.192 29.5117 25.2936 29.5103C25.4013 29.5103 25.508 29.4892 25.6075 29.448C25.707 29.4068 25.7975 29.3464 25.8736 29.2703C26.0232 29.1203 26.1073 28.9171 26.1073 28.7053C26.1073 28.4934 26.0232 28.2903 25.8736 28.1403L22.0236 24.4003L24.4836 21.8603L26.8636 24.1703C26.9362 24.2414 27.0222 24.2975 27.1166 24.3353C27.211 24.373 27.312 24.3917 27.4136 24.3903C27.5213 24.3903 27.628 24.3692 27.7275 24.328C27.827 24.2868 27.9175 24.2264 27.9936 24.1503C28.0689 24.0767 28.1287 23.9888 28.1696 23.8918C28.2104 23.7948 28.2315 23.6906 28.2315 23.5853C28.2315 23.48 28.2104 23.3758 28.1696 23.2788C28.1287 23.1817 28.0689 23.0939 27.9936 23.0203L25.5536 20.7003L28.0136 18.1603L31.8636 21.9003C32.0141 22.0456 32.2145 22.1279 32.4236 22.1303C32.5306 22.1294 32.6363 22.1068 32.7343 22.0638C32.8323 22.0208 32.9205 21.9584 32.9936 21.8803C33.1432 21.7303 33.2273 21.5271 33.2273 21.3153C33.2273 21.1034 33.1432 20.9003 32.9936 20.7503L29.1336 17.0103L31.6036 14.4703L33.9636 16.8003C34.1141 16.9456 34.3145 17.0278 34.5236 17.0303C34.6306 17.0294 34.7363 17.0068 34.8343 16.9638C34.9323 16.9208 35.0205 16.8584 35.0936 16.7803C35.2432 16.6303 35.3273 16.4271 35.3273 16.2153C35.3273 16.0034 35.2432 15.8003 35.0936 15.6503L32.7136 13.3503L35.1736 10.8003L39.0236 14.5303C39.1693 14.6767 39.3671 14.7595 39.5736 14.7603C39.6813 14.7603 39.788 14.7392 39.8875 14.698C39.987 14.6568 40.0775 14.5964 40.1536 14.5203C40.3039 14.3686 40.3881 14.1638 40.3881 13.9503C40.3881 13.7368 40.3039 13.532 40.1536 13.3803L36.3036 9.64028L38.7636 7.10028L41.1436 9.40028C41.293 9.54734 41.494 9.62993 41.7036 9.63028C41.8635 9.63008 42.0197 9.58198 42.152 9.49218C42.2843 9.40237 42.3866 9.27499 42.4458 9.12646C42.505 8.97794 42.5183 8.81508 42.4841 8.65891C42.4498 8.50273 42.3695 8.3604 42.2536 8.25028L39.8836 5.95028L43.7736 1.95028L53.6936 11.5703L11.8536 54.6703Z" fill="black"/>
<path d="M8.21382 43.6604C7.69303 44.1957 7.40232 44.9135 7.40381 45.6604C7.40508 46.038 7.4814 46.4117 7.62834 46.7596C7.77527 47.1075 7.98989 47.4228 8.25972 47.687C8.52955 47.9513 8.84921 48.1592 9.20012 48.2989C9.55104 48.4385 9.9262 48.507 10.3038 48.5004C10.6775 48.4967 11.0468 48.4188 11.3902 48.2711C11.7335 48.1235 12.0441 47.9091 12.3038 47.6404C12.5665 47.3712 12.7735 47.0529 12.9131 46.7036C13.0528 46.3544 13.1222 45.9811 13.1176 45.605C13.113 45.2289 13.0343 44.8575 12.8861 44.5118C12.7379 44.1661 12.523 43.853 12.2538 43.5904C11.9846 43.3277 11.6663 43.1207 11.3171 42.981C10.9678 42.8414 10.5945 42.7719 10.2185 42.7766C9.84238 42.7812 9.4709 42.8599 9.12523 43.0081C8.77956 43.1563 8.46646 43.3712 8.20382 43.6404L8.21382 43.6604ZM11.2138 46.5204C11.0997 46.6389 10.9631 46.7336 10.812 46.7988C10.6609 46.8641 10.4984 46.8986 10.3338 46.9004C10.1679 46.9058 10.0027 46.8775 9.84803 46.8174C9.69336 46.7572 9.55246 46.6664 9.43382 46.5504C9.1981 46.3141 9.06573 45.9941 9.06573 45.6604C9.06573 45.3267 9.1981 45.0066 9.43382 44.7704C9.55064 44.6498 9.69053 44.5541 9.84516 44.4888C9.99978 44.4235 10.166 44.39 10.3338 44.3904C10.6599 44.3913 10.9724 44.5206 11.2038 44.7504C11.3176 44.8691 11.4069 45.0091 11.4665 45.1624C11.5261 45.3157 11.5549 45.4792 11.5512 45.6437C11.5475 45.8081 11.5113 45.9702 11.4449 46.1206C11.3784 46.2711 11.2829 46.4069 11.1638 46.5204H11.2138Z" fill="black"/>
</svg>
