<svg width="38" height="57" viewBox="0 0 38 57" fill="none" xmlns="http://www.w3.org/2000/svg">
<path d="M20.7172 32.2039C20.4837 32.3467 20.2357 32.464 19.9772 32.5539C19.6861 32.6461 19.3826 32.6933 19.0772 32.6939C18.7751 32.6937 18.4748 32.6465 18.1872 32.5539C17.9231 32.4703 17.6709 32.3526 17.4372 32.2039" stroke="black" stroke-width="1.6" stroke-linecap="round" stroke-linejoin="round"/>
<path d="M8.14723 45.8138C8.47678 48.431 8.42288 51.0822 7.98723 53.6838C7.84752 54.4756 7.63323 55.2524 7.34723 56.0038" stroke="black" stroke-width="1.6" stroke-linecap="round" stroke-linejoin="round"/>
<path d="M30.1272 45.3339C29.7361 48.1061 29.7698 50.9218 30.2272 53.6839C30.3702 54.476 30.5878 55.2528 30.8772 56.0039" stroke="black" stroke-width="1.6" stroke-linecap="round" stroke-linejoin="round"/>
<path d="M16.0772 39.3138C18.1515 38.8495 20.3029 38.8495 22.3772 39.3138" stroke="black" stroke-width="1.6" stroke-linecap="round" stroke-linejoin="round"/>
<path d="M12.8572 2.20387C12.8572 2.20387 17.6672 -0.36613 25.3472 2.00387" stroke="black" stroke-width="1.6" stroke-linecap="round" stroke-linejoin="round"/>
<path d="M25.6672 2.12387C27.6672 1.93387 34.1872 2.02387 35.9672 10.7639C37.2972 17.3039 36.5372 28.5939 35.7872 34.6939C35.4689 37.4604 34.4581 40.1019 32.8483 42.3742C31.2385 44.6465 29.0816 46.4761 26.5772 47.6939C24.2572 48.8039 21.3372 50.2139 18.5772 50.1639" stroke="black" stroke-width="1.6" stroke-linecap="round" stroke-linejoin="round"/>
<path d="M12.5673 2.20389C12.5673 2.20389 12.6273 9.86389 7.08726 13.0139C6.44797 13.3737 5.86226 13.8214 5.34726 14.3439C4.02896 15.7948 3.31368 17.6938 3.34726 19.6539V28.4239C3.3393 29.6424 3.60468 30.8472 4.12386 31.9496C4.64305 33.052 5.40282 34.0239 6.34726 34.7939C7.43021 35.6922 8.76452 36.2336 10.1673 36.3439C13.3873 36.6039 15.5173 34.6339 18.8173 34.6339" stroke="black" stroke-width="1.6" stroke-linecap="round" stroke-linejoin="round"/>
<path d="M25.2772 2.20389C25.2772 2.20389 25.2072 9.86389 30.7472 13.0039C31.918 13.6647 32.8867 14.632 33.5491 15.8019C34.2116 16.9717 34.5428 18.3 34.5072 19.6439V28.4139C34.5152 29.6324 34.2498 30.8372 33.7306 31.9396C33.2115 33.042 32.4517 34.0139 31.5072 34.7839C30.4243 35.6822 29.09 36.2237 27.6872 36.3339C24.4772 36.5939 22.3372 34.6239 19.0472 34.6239" stroke="black" stroke-width="1.6" stroke-linecap="round" stroke-linejoin="round"/>
<path d="M12.6072 2.20387C12.6072 2.20387 3.82722 0.40387 1.72722 10.7639C0.397221 17.3039 1.15722 28.5939 1.90722 34.6939C2.22551 37.4604 3.23632 40.1019 4.84615 42.3742C6.45598 44.6465 8.61283 46.4761 11.1172 47.6939C13.4272 48.7939 16.3272 50.2039 19.0472 50.1639" stroke="black" stroke-width="1.6" stroke-linecap="round" stroke-linejoin="round"/>
</svg>
