<svg width="58" height="57" viewBox="0 0 58 57" fill="none" xmlns="http://www.w3.org/2000/svg">
<path d="M13.4748 38.56C14.3748 39.46 12.3648 42.94 8.97484 46.32C5.58484 49.7 2.11484 51.72 1.21484 50.82C0.314839 49.92 2.32484 46.44 5.70484 43.05C9.08484 39.66 12.5648 37.65 13.4748 38.56Z" stroke="black" stroke-width="1.6" stroke-linecap="round" stroke-linejoin="round"/>
<path d="M13.4748 38.5601L15.3848 40.4601C16.2848 41.3701 14.2748 44.8401 10.8848 48.2301C7.49484 51.6201 4.02485 53.6301 3.11485 52.7301L1.21484 50.8201" stroke="black" stroke-width="1.6" stroke-linecap="round" stroke-linejoin="round"/>
<path d="M8.56472 46.19L5.84473 43.46" stroke="black" stroke-width="1.6" stroke-linecap="round" stroke-linejoin="round"/>
<path d="M44.5547 34.21V37.68H42.5547C42.0328 37.6798 41.5315 37.8836 41.1579 38.248C40.7842 38.6123 40.5677 39.1082 40.5547 39.63V54.17C40.5547 54.4128 40.603 54.6533 40.6968 54.8773C40.7906 55.1013 40.9281 55.3044 41.1012 55.4747C41.2744 55.645 41.4797 55.7792 41.7052 55.8694C41.9307 55.9596 42.1719 56.0039 42.4147 56H54.6047C55.09 56 55.5555 55.8072 55.8987 55.464C56.2419 55.1208 56.4347 54.6553 56.4347 54.17V39.63C56.4216 39.1082 56.2052 38.6123 55.8315 38.248C55.4579 37.8836 54.9566 37.6798 54.4347 37.68H52.4347V34.21" stroke="black" stroke-width="1.6" stroke-linecap="round" stroke-linejoin="round"/>
<path d="M45.5147 29.75H51.5147C52.5597 29.75 53.5618 30.1651 54.3007 30.904C55.0396 31.6429 55.4547 32.645 55.4547 33.69V34.21H41.5747V33.69C41.5747 32.645 41.9898 31.6429 42.7287 30.904C43.4676 30.1651 44.4698 29.75 45.5147 29.75V29.75Z" stroke="black" stroke-width="1.6" stroke-linecap="round" stroke-linejoin="round"/>
<path d="M50.7949 36.3101H52.4749" stroke="black" stroke-width="1.6" stroke-linecap="round" stroke-linejoin="round"/>
<path d="M44.9648 36.3101H49.1048" stroke="black" stroke-width="1.6" stroke-linecap="round" stroke-linejoin="round"/>
<path d="M56.4347 41.6399H46.0347V52.5299H56.4347" stroke="black" stroke-width="1.6" stroke-linecap="round" stroke-linejoin="round"/>
<path d="M42.875 8.87012V29.7501" stroke="black" stroke-width="1.6" stroke-linecap="round" stroke-linejoin="round"/>
<path d="M18.335 22.0901V8.87012" stroke="black" stroke-width="1.6" stroke-linecap="round" stroke-linejoin="round"/>
<path d="M40.585 54.2901H18.335V31.5801" stroke="black" stroke-width="1.6" stroke-linecap="round" stroke-linejoin="round"/>
<path d="M21.465 1H39.215C40.9549 1 42.6234 1.69114 43.8537 2.92138C45.0839 4.15162 45.775 5.82018 45.775 7.56V8.42H14.915V7.56C14.915 5.82191 15.6048 4.15486 16.8329 2.92491C18.061 1.69496 19.727 1.00265 21.465 1V1Z" stroke="black" stroke-width="1.6" stroke-linecap="round" stroke-linejoin="round"/>
<path d="M20.845 48.01H18.335" stroke="black" stroke-width="1.6" stroke-linecap="round" stroke-linejoin="round"/>
<path d="M18.335 14.9199H37.165V48.0099H29.515" stroke="black" stroke-width="1.6" stroke-linecap="round" stroke-linejoin="round"/>
<path d="M20.0449 1.57007V4.99007" stroke="black" stroke-width="1.6" stroke-linecap="round" stroke-linejoin="round"/>
<path d="M24.0449 1.57007V4.99007" stroke="black" stroke-width="1.6" stroke-linecap="round" stroke-linejoin="round"/>
<path d="M28.0347 1.57007V4.99007" stroke="black" stroke-width="1.6" stroke-linecap="round" stroke-linejoin="round"/>
<path d="M32.0249 1.57007V4.99007" stroke="black" stroke-width="1.6" stroke-linecap="round" stroke-linejoin="round"/>
<path d="M36.0249 1.57007V4.99007" stroke="black" stroke-width="1.6" stroke-linecap="round" stroke-linejoin="round"/>
<path d="M40.0146 1.57007V4.99007" stroke="black" stroke-width="1.6" stroke-linecap="round" stroke-linejoin="round"/>
<path d="M29.5148 42.22V47.92C29.5148 49.0641 29.0631 50.162 28.2578 50.9748C27.4525 51.7875 26.3589 52.2494 25.2148 52.26C24.6453 52.26 24.0814 52.1476 23.5554 51.9294C23.0295 51.7112 22.5517 51.3913 22.1495 50.9882C21.7473 50.5851 21.4285 50.1066 21.2115 49.5801C20.9945 49.0536 20.8835 48.4894 20.8848 47.92V42.22" stroke="black" stroke-width="1.6" stroke-linecap="round" stroke-linejoin="round"/>
<path d="M20.8447 42.2201C20.8447 42.9701 22.7847 43.5901 25.1747 43.5901C27.5647 43.5901 29.5147 43.0001 29.5147 42.2201C29.5147 41.4401 27.5747 40.8501 25.2147 40.8501C22.8547 40.8501 20.8447 41.4601 20.8447 42.2201Z" stroke="black" stroke-width="1.6" stroke-linecap="round" stroke-linejoin="round"/>
<path d="M16.1047 32.17L12.1047 28.17C11.2932 27.3564 10.8374 26.2541 10.8374 25.105C10.8374 23.9558 11.2932 22.8536 12.1047 22.04C12.9122 21.2291 14.0072 20.77 15.1515 20.7625C16.2958 20.7551 17.3967 21.1998 18.2147 22L22.2147 26" stroke="black" stroke-width="1.6" stroke-linecap="round" stroke-linejoin="round"/>
<path d="M16.045 32.1701C16.575 32.7101 18.385 31.7701 20.045 30.0801C21.705 28.3901 22.675 26.5801 22.145 26.0801C21.615 25.5801 19.805 26.4901 18.145 28.1801C16.485 29.8701 15.505 31.6401 16.045 32.1701Z" stroke="black" stroke-width="1.6" stroke-linecap="round" stroke-linejoin="round"/>
<path d="M24.725 31.27C25.3546 31.27 25.865 30.7596 25.865 30.13C25.865 29.5004 25.3546 28.99 24.725 28.99C24.0954 28.99 23.585 29.5004 23.585 30.13C23.585 30.7596 24.0954 31.27 24.725 31.27Z" stroke="black" stroke-width="1.6" stroke-linecap="round" stroke-linejoin="round"/>
<path d="M22.4449 33.09C22.4569 33.3201 22.3996 33.5484 22.2803 33.7455C22.161 33.9426 21.9853 34.0993 21.7759 34.1953C21.5665 34.2913 21.3331 34.3223 21.1059 34.2841C20.8787 34.2459 20.6682 34.1404 20.5017 33.9812C20.3352 33.822 20.2204 33.6165 20.1721 33.3912C20.1237 33.166 20.1442 32.9314 20.2307 32.7179C20.3173 32.5045 20.466 32.3219 20.6575 32.1939C20.849 32.0659 21.0746 31.9983 21.3049 32C21.5988 31.9997 21.8814 32.113 22.0938 32.3161C22.3063 32.5192 22.432 32.7964 22.4449 33.09V33.09Z" stroke="black" stroke-width="1.6" stroke-linecap="round" stroke-linejoin="round"/>
<path d="M25.4046 35.6001C26.0343 35.6001 26.5446 35.0897 26.5446 34.4601C26.5446 33.8305 26.0343 33.3201 25.4046 33.3201C24.775 33.3201 24.2646 33.8305 24.2646 34.4601C24.2646 35.0897 24.775 35.6001 25.4046 35.6001Z" stroke="black" stroke-width="1.6" stroke-linecap="round" stroke-linejoin="round"/>
<path d="M24.265 38.11C24.2709 38.3367 24.2092 38.5599 24.0876 38.7513C23.966 38.9427 23.7901 39.0935 23.5824 39.1844C23.3747 39.2753 23.1446 39.3022 22.9215 39.2616C22.6984 39.2211 22.4925 39.115 22.3301 38.9568C22.1676 38.7986 22.056 38.5956 22.0096 38.3737C21.9631 38.1517 21.9838 37.921 22.0692 37.711C22.1545 37.5009 22.3005 37.321 22.4886 37.1944C22.6767 37.0678 22.8982 37.0001 23.125 37C23.4222 36.9999 23.7077 37.1159 23.9206 37.3232C24.1336 37.5306 24.2571 37.8129 24.265 38.11Z" stroke="black" stroke-width="1.6" stroke-linecap="round" stroke-linejoin="round"/>
<path d="M28.1449 38.79C28.7745 38.79 29.2849 38.2796 29.2849 37.65C29.2849 37.0204 28.7745 36.51 28.1449 36.51C27.5153 36.51 27.0049 37.0204 27.0049 37.65C27.0049 38.2796 27.5153 38.79 28.1449 38.79Z" stroke="black" stroke-width="1.6" stroke-linecap="round" stroke-linejoin="round"/>
</svg>
