<svg width="60" height="56" viewBox="0 0 60 56" fill="none" xmlns="http://www.w3.org/2000/svg">
<path d="M29.5 0.360027C29.4254 0.248347 29.3242 0.156977 29.2055 0.0941345C29.0868 0.0312924 28.9544 -0.00104924 28.82 2.59584e-05C28.6704 0.00161997 28.5244 0.0467962 28.4001 0.130027C20.1401 4.93003 14.62 12.83 12 23.6C10.5309 30.04 9.99213 36.6572 10.4001 43.25C10.4001 43.5434 10.4001 43.7934 10.4001 44C10.4601 45.66 10.5801 47.4 10.6201 47.74C10.8219 49.7692 11.7069 51.6696 13.1301 53.13C13.8107 53.8339 14.6314 54.3871 15.5391 54.754C16.4469 55.1209 17.4215 55.2933 18.4001 55.26C19.8405 55.2047 21.2341 54.7337 22.4128 53.904C23.5916 53.0743 24.5051 51.9213 25.0432 50.584C25.5812 49.2467 25.7209 47.7823 25.4453 46.3674C25.1698 44.9525 24.4907 43.6476 23.49 42.61C22.7962 41.8824 21.9612 41.3041 21.0362 40.9103C20.1111 40.5166 19.1154 40.3157 18.11 40.32C17.9095 40.3423 17.7241 40.4377 17.5895 40.5881C17.4549 40.7385 17.3805 40.9332 17.3805 41.135C17.3805 41.3368 17.4549 41.5316 17.5895 41.682C17.7241 41.8323 17.9095 41.9278 18.11 41.95C18.8967 41.9494 19.6754 42.1077 20.3994 42.4155C21.1233 42.7233 21.7776 43.1741 22.323 43.741C22.8685 44.3079 23.2937 44.9792 23.5733 45.7145C23.8529 46.4498 23.981 47.234 23.9501 48.02C23.8888 49.4892 23.2784 50.8819 22.2396 51.9226C21.2007 52.9633 19.8091 53.5762 18.34 53.64H18.1301C15.1301 53.64 12.7001 51.1 12.3301 47.64C12.3301 47.34 12.1801 45.64 12.1201 44.01C12.1201 43.79 12.1201 43.52 12.1201 43.21C11.7017 36.7636 12.2136 30.2905 13.6401 23.99C15.0011 17.7621 17.9382 11.9878 22.1701 7.22003L22.3301 7.35003C21.9834 7.91003 21.6501 8.49003 21.3301 9.09003C19.3447 12.7729 17.903 16.7239 17.0501 20.82C15.9096 26.4788 15.6231 32.2764 16.2 38.02C16.2092 38.1264 16.2393 38.2299 16.2885 38.3247C16.3377 38.4194 16.4051 38.5036 16.4868 38.5723C16.5685 38.641 16.663 38.6929 16.7647 38.7252C16.8665 38.7574 16.9737 38.7692 17.0801 38.76C17.1864 38.7508 17.2899 38.7208 17.3847 38.6716C17.4795 38.6224 17.5636 38.555 17.6323 38.4733C17.701 38.3916 17.753 38.2971 17.7852 38.1953C17.8174 38.0935 17.8292 37.9864 17.82 37.88C17.2599 32.324 17.5329 26.7154 18.6301 21.24C19.408 17.2946 20.759 13.4843 22.6401 9.93003C24.3052 6.71142 26.5651 3.83741 29.3001 1.46003C29.4664 1.33599 29.5795 1.15352 29.6166 0.949397C29.6537 0.745273 29.6121 0.534667 29.5 0.360027Z" fill="#020202"/>
<path d="M39.6099 45.4401C39.6125 46.8379 40.1683 48.1778 41.1557 49.1672C42.1432 50.1565 43.4821 50.7148 44.8799 50.7201H45.2299C46.5341 50.6275 47.7584 50.057 48.6681 49.1177C49.5778 48.1785 50.109 46.9367 50.1599 45.6301C50.1997 44.3562 49.773 43.1116 48.9599 42.1301C48.82 41.966 48.6218 41.8627 48.4071 41.8422C48.1925 41.8216 47.9783 41.8855 47.8099 42.0201C47.645 42.1599 47.542 42.3591 47.5232 42.5745C47.5045 42.7899 47.5716 43.0039 47.7099 43.1701C48.1775 43.7393 48.4619 44.4366 48.5258 45.1705C48.5896 45.9044 48.43 46.6404 48.0678 47.2818C47.7055 47.9233 47.1577 48.4401 46.4963 48.7643C45.8349 49.0886 45.0908 49.2052 44.3619 49.0987C43.633 48.9922 42.9534 48.6677 42.4124 48.1677C41.8713 47.6678 41.4943 47.0158 41.3307 46.2976C41.1671 45.5794 41.2246 44.8284 41.4958 44.1435C41.7669 43.4586 42.239 42.8717 42.8499 42.4601C43.6499 41.925 44.2925 41.1858 44.7109 40.319C45.1294 39.4523 45.3085 38.4894 45.2299 37.5301C44.8649 34.0525 45.2642 30.5372 46.3999 27.2301C47.9196 23.3736 48.1511 19.129 47.0599 15.1301V15.0801C47.0576 15.0435 47.0576 15.0067 47.0599 14.9701C47.0227 14.7857 46.9226 14.62 46.7766 14.5014C46.6306 14.3828 46.4479 14.3187 46.2599 14.3201H46.0999C45.9909 14.3413 45.8874 14.3844 45.7955 14.4467C45.7037 14.5091 45.6255 14.5895 45.5657 14.683C45.5058 14.7765 45.4656 14.8812 45.4474 14.9907C45.4292 15.1002 45.4335 15.2123 45.4599 15.3201C45.4599 15.3901 45.4599 15.4701 45.5299 15.6001C46.5423 19.2702 46.3317 23.1703 44.9299 26.7101C43.7089 30.2402 43.2721 33.994 43.6499 37.7101C43.7019 38.3829 43.5748 39.0576 43.2815 39.6653C42.9882 40.2731 42.539 40.7923 41.9799 41.1701C41.269 41.6372 40.682 42.2697 40.2693 43.0134C39.8565 43.7571 39.6302 44.5898 39.6099 45.4401Z" fill="#020202"/>
<path d="M58.9897 32.27H47.7197C47.5048 32.27 47.2988 32.3554 47.1469 32.5073C46.995 32.6592 46.9097 32.8652 46.9097 33.08C46.9097 33.2948 46.995 33.5009 47.1469 33.6528C47.2988 33.8047 47.5048 33.89 47.7197 33.89H58.9897C59.2045 33.89 59.4105 33.8047 59.5624 33.6528C59.7143 33.5009 59.7997 33.2948 59.7997 33.08C59.7997 32.8652 59.7143 32.6592 59.5624 32.5073C59.4105 32.3554 59.2045 32.27 58.9897 32.27Z" fill="#020202"/>
<path d="M41.3997 32.27H20.0297C19.8149 32.27 19.6089 32.3554 19.457 32.5073C19.3051 32.6592 19.2197 32.8652 19.2197 33.08C19.2197 33.2948 19.3051 33.5009 19.457 33.6528C19.6089 33.8047 19.8149 33.89 20.0297 33.89H41.3997C41.6146 33.89 41.8206 33.8047 41.9725 33.6528C42.1244 33.5009 42.2097 33.2948 42.2097 33.08C42.2097 32.8652 42.1244 32.6592 41.9725 32.5073C41.8206 32.3554 41.6146 32.27 41.3997 32.27Z" fill="#020202"/>
<path d="M8.4 32.27H0.810001C0.595176 32.27 0.389148 32.3554 0.237244 32.5073C0.0853392 32.6592 0 32.8652 0 33.08C0 33.2948 0.0853392 33.5009 0.237244 33.6528C0.389148 33.8047 0.595176 33.89 0.810001 33.89H8.4C8.61483 33.89 8.82085 33.8047 8.97276 33.6528C9.12466 33.5009 9.21 33.2948 9.21 33.08C9.21 32.8652 9.12466 32.6592 8.97276 32.5073C8.82085 32.3554 8.61483 32.27 8.4 32.27Z" fill="#020202"/>
<path d="M58.99 37.1301C57.4164 37.1581 55.8452 36.997 54.31 36.6501C52.6691 36.2836 50.9912 36.1091 49.31 36.1301C49.0943 36.1327 48.8882 36.2203 48.7366 36.3738C48.585 36.5273 48.5 36.7344 48.5 36.9501C48.5 37.1649 48.5853 37.371 48.7372 37.5229C48.8891 37.6748 49.0952 37.7601 49.31 37.7601C50.8836 37.7321 52.4548 37.8933 53.99 38.2401C55.6315 38.6021 57.3093 38.7733 58.99 38.7501C59.2048 38.7501 59.4109 38.6648 59.5628 38.5129C59.7147 38.361 59.8 38.1549 59.8 37.9401C59.8 37.7253 59.7147 37.5193 59.5628 37.3674C59.4109 37.2155 59.2048 37.1301 58.99 37.1301Z" fill="#020202"/>
<path d="M41.3297 36.2002H41.0097C40.5383 36.1462 40.064 36.1228 39.5897 36.1302C37.9084 36.1073 36.2303 36.2818 34.5897 36.6502C31.4991 37.2903 28.3102 37.2903 25.2197 36.6502C23.5788 36.2836 21.9009 36.1091 20.2197 36.1302C20.0039 36.1328 19.7979 36.2203 19.6463 36.3738C19.4947 36.5273 19.4097 36.7344 19.4097 36.9502C19.4097 37.165 19.495 37.371 19.6469 37.5229C19.7988 37.6748 20.0048 37.7602 20.2197 37.7602C21.7933 37.7322 23.3645 37.8933 24.8997 38.2402C28.1987 38.9161 31.6006 38.9161 34.8997 38.2402C36.435 37.8946 38.0061 37.7335 39.5797 37.7602C39.9972 37.7515 40.4149 37.7715 40.8297 37.8202H41.1697C41.3841 37.8369 41.5965 37.7687 41.7611 37.6302C41.9257 37.4918 42.0293 37.2943 42.0497 37.0802C42.0693 36.8683 42.0047 36.6573 41.87 36.4926C41.7353 36.3279 41.5412 36.2229 41.3297 36.2002Z" fill="#020202"/>
<path d="M8.40015 36.1301C6.71889 36.1075 5.04078 36.282 3.40015 36.6501C2.54292 36.8389 1.67447 36.9725 0.80015 37.0501C0.693779 37.0593 0.59026 37.0894 0.495504 37.1386C0.400748 37.1878 0.316611 37.2551 0.247896 37.3369C0.179181 37.4186 0.127232 37.513 0.0950181 37.6148C0.0628046 37.7166 0.0509554 37.8237 0.060148 37.9301C0.0693405 38.0365 0.0993926 38.14 0.148592 38.2348C0.197791 38.3295 0.265172 38.4137 0.346887 38.4824C0.428603 38.5511 0.523054 38.603 0.624845 38.6352C0.726637 38.6675 0.833778 38.6793 0.940149 38.6701C1.87495 38.5855 2.80346 38.4419 3.72015 38.2401C5.25435 37.8848 6.82543 37.7136 8.40015 37.7301C8.61497 37.7301 8.821 37.6448 8.97291 37.4929C9.12481 37.341 9.21015 37.1349 9.21015 36.9201C9.20246 36.7096 9.11404 36.5101 8.96323 36.363C8.81242 36.216 8.61079 36.1325 8.40015 36.1301Z" fill="#020202"/>
</svg>
