<svg width="640" height="384" viewBox="0 0 640 384" fill="none" xmlns="http://www.w3.org/2000/svg">
<path d="M176 192C220.11 192 256 156.11 256 112C256 67.89 220.11 32 176 32C131.89 32 96 67.89 96 112C96 156.11 131.89 192 176 192ZM528 64H304C295.16 64 288 71.16 288 80V224H64V16C64 7.16 56.84 0 48 0H16C7.16 0 0 7.16 0 16V368C0 376.84 7.16 384 16 384H48C56.84 384 64 376.84 64 368V320H576V368C576 376.84 583.16 384 592 384H624C632.84 384 640 376.84 640 368V176C640 114.14 589.86 64 528 64Z" fill="black"/>
</svg>
