<svg width="18" height="16" viewBox="0 0 18 16" fill="none" xmlns="http://www.w3.org/2000/svg">
<path d="M16.375 4.46779L9.54961 1.09904C9.41754 1.03389 9.27226 1 9.125 1C8.97774 1 8.83246 1.03389 8.70039 1.09904L1.875 4.46779C1.61334 4.59599 1.39274 4.79481 1.23812 5.04179C1.0835 5.28877 1.00102 5.57406 1 5.86544V13.0768C1 13.9397 1.70859 14.6393 2.58281 14.6393H15.6687C16.543 14.6393 17.2516 13.9397 17.2516 13.0768V5.86544C17.2504 5.57389 17.1677 5.28849 17.0128 5.04149C16.8579 4.7945 16.637 4.59577 16.375 4.46779Z" stroke="#FFDD58" stroke-width="1.25" stroke-linecap="round" stroke-linejoin="round"/>
<path d="M14.6455 12.1396L9.59629 8.2123C9.43172 8.0843 9.22919 8.01481 9.0207 8.01481C8.81222 8.01481 8.60968 8.0843 8.44512 8.2123L3.39551 12.1396M11.208 9.28809L16.5205 5.26465M1.52051 5.26465L6.9502 9.36621" stroke="#FFDD58" stroke-width="1.25" stroke-linecap="round" stroke-linejoin="round"/>
</svg>
