<svg width="16" height="16" viewBox="0 0 16 16" fill="none" xmlns="http://www.w3.org/2000/svg">
<path d="M0.000195171 7.6C0.000195183 7.31667 0.0961953 7.07933 0.288195 6.888C0.479529 6.696 0.716862 6.6 1.0002 6.6L12.1752 6.6L7.3002 1.725C7.1002 1.525 7.0002 1.28733 7.0002 1.012C7.0002 0.737333 7.1002 0.499999 7.3002 0.299999C7.5002 0.0999994 7.73353 -3.4277e-07 8.0002 -3.31114e-07C8.26686 -3.19457e-07 8.5002 0.0999994 8.7002 0.299999L15.3002 6.9C15.4002 7 15.4712 7.10833 15.5132 7.225C15.5545 7.34167 15.5752 7.46667 15.5752 7.6C15.5752 7.73333 15.5545 7.86267 15.5132 7.988C15.4712 8.11267 15.4002 8.21667 15.3002 8.3L8.70019 14.9C8.50019 15.1 8.26686 15.2 8.00019 15.2C7.73353 15.2 7.5002 15.1 7.3002 14.9C7.1002 14.7 7.00019 14.4623 7.00019 14.187C7.00019 13.9123 7.1002 13.675 7.3002 13.475L12.1752 8.6L1.0002 8.6C0.716862 8.6 0.479529 8.50433 0.288195 8.313C0.0961953 8.121 0.000195159 7.88333 0.000195171 7.6Z" fill="white"/>
</svg>
