<svg width="22" height="20" viewBox="0 0 22 20" fill="none" xmlns="http://www.w3.org/2000/svg">
<path d="M4.4442 2.22321C4.4439 2.81255 4.20951 3.37763 3.79257 3.79415C3.37564 4.21066 2.81033 4.44449 2.22099 4.4442C1.63165 4.4439 1.06657 4.20951 0.650052 3.79257C0.233536 3.37564 -0.00029439 2.81033 2.78164e-07 2.22099C0.000294947 1.63165 0.234691 1.06657 0.651624 0.650052C1.06856 0.233536 1.63387 -0.00029439 2.22321 2.78164e-07C2.81255 0.000294947 3.37763 0.234691 3.79415 0.651624C4.21066 1.06856 4.44449 1.63387 4.4442 2.22321ZM4.51086 6.08966H0.0666632V20H4.51086V6.08966ZM11.5327 6.08966H7.11072V20H11.4883V12.7004C11.4883 8.63397 16.788 8.25621 16.788 12.7004V20H21.1766V11.1894C21.1766 4.3342 13.3326 4.58975 11.4883 7.95623L11.5327 6.08966Z" fill="black"/>
</svg>
