<svg width="16" height="20" viewBox="0 0 16 20" fill="none" xmlns="http://www.w3.org/2000/svg">
<path d="M8.17459 0C4.06325 0 0 2.74089 0 7.17681C0 9.99784 1.58683 11.6007 2.54855 11.6007C2.94526 11.6007 3.17366 10.4947 3.17366 10.1822C3.17366 9.80951 2.22397 9.01609 2.22397 7.46532C2.22397 4.24357 4.67635 1.9595 7.85001 1.9595C10.5789 1.9595 12.5985 3.51026 12.5985 6.35935C12.5985 8.48715 11.745 12.4783 8.98003 12.4783C7.98225 12.4783 7.12872 11.757 7.12872 10.7231C7.12872 9.20843 8.18661 7.74182 8.18661 6.17903C8.18661 3.52629 4.42389 4.00715 4.42389 7.21287C4.42389 7.88607 4.50804 8.6314 4.80858 9.2445C4.25559 11.6247 3.12558 15.1711 3.12558 17.6234C3.12558 18.3808 3.23377 19.1261 3.3059 19.8835C3.44214 20.0358 3.37402 20.0197 3.58239 19.9436C5.602 17.1787 5.52987 16.6377 6.4435 13.0192C6.93638 13.9569 8.21065 14.4618 9.22045 14.4618C13.476 14.4618 15.3875 10.3144 15.3875 6.57573C15.3875 2.59663 11.9493 0 8.17459 0Z" fill="black"/>
</svg>
