<svg width="23" height="20" viewBox="0 0 23 20" fill="none" xmlns="http://www.w3.org/2000/svg">
<path d="M22.1719 8.89046C22.1713 8.32335 22.008 7.76833 21.7013 7.29131C21.3946 6.81428 20.9575 6.43531 20.4418 6.19939C19.9261 5.96347 19.3535 5.88053 18.7921 5.96041C18.2306 6.04029 17.7039 6.27964 17.2744 6.65003C15.7191 5.82607 13.8675 5.32614 11.9326 5.21505L12.414 2.32657L14.4323 2.64134C14.5269 3.16188 14.8028 3.63212 15.2109 3.96878C15.6191 4.30544 16.1332 4.48678 16.6623 4.4807C17.1913 4.47462 17.7011 4.2815 18.1015 3.93556C18.5018 3.58961 18.7667 3.11315 18.8494 2.59057C18.9321 2.06798 18.8272 1.533 18.5532 1.08036C18.2793 0.627728 17.854 0.286649 17.3526 0.117533C16.8513 -0.0515817 16.3063 -0.0378194 15.8142 0.156383C15.322 0.350585 14.9145 0.712696 14.6637 1.17858L11.9141 0.752716C11.7215 0.723309 11.5251 0.770948 11.3674 0.885315C11.2098 0.999682 11.1035 1.17157 11.0716 1.36374L10.4328 5.20579C8.41459 5.28911 6.47042 5.78904 4.85027 6.65003C4.25979 6.16183 3.50313 5.92138 2.73915 5.97916C1.97516 6.03693 1.26327 6.38844 0.75292 6.95989C0.24257 7.53134 -0.0265461 8.27828 0.00206897 9.04391C0.0306841 9.80954 0.354804 10.5343 0.906386 11.0661C0.766339 11.5632 0.694702 12.0771 0.693454 12.5936C0.693454 14.6211 1.80441 16.519 3.8319 17.917C5.85939 19.3149 8.34052 20 11.0624 20C13.7842 20 16.3487 19.2594 18.2928 17.917C20.237 16.5746 21.4313 14.6211 21.4313 12.5936C21.4307 12.0801 21.359 11.5692 21.2183 11.0753C21.5182 10.7957 21.7575 10.4575 21.9215 10.0817C22.0855 9.7059 22.1707 9.30048 22.1719 8.89046ZM5.87791 11.4827C5.87791 11.1897 5.96478 10.9033 6.12755 10.6597C6.29031 10.4161 6.52165 10.2263 6.79232 10.1142C7.06299 10.0021 7.36082 9.97272 7.64816 10.0299C7.9355 10.087 8.19944 10.2281 8.4066 10.4353C8.61376 10.6424 8.75484 10.9064 8.81199 11.1937C8.86915 11.481 8.83981 11.7789 8.7277 12.0495C8.61558 12.3202 8.42573 12.5516 8.18213 12.7143C7.93854 12.8771 7.65215 12.964 7.35918 12.964C6.96632 12.964 6.58956 12.8079 6.31176 12.5301C6.03397 12.2523 5.87791 11.8755 5.87791 11.4827ZM14.46 16.2135C13.4093 16.7551 12.2444 17.0377 11.0624 17.0377C9.88031 17.0377 8.71538 16.7551 7.66469 16.2135C7.50328 16.1168 7.3847 15.9624 7.33303 15.7815C7.28137 15.6006 7.30048 15.4068 7.3865 15.2394C7.47252 15.0721 7.61899 14.9438 7.79618 14.8806C7.97337 14.8173 8.16799 14.8238 8.34052 14.8989C9.18229 15.3325 10.1155 15.5587 11.0624 15.5587C12.0092 15.5587 12.9424 15.3325 13.7842 14.8989C13.9567 14.8238 14.1514 14.8173 14.3285 14.8806C14.5057 14.9438 14.6522 15.0721 14.7382 15.2394C14.8242 15.4068 14.8434 15.6006 14.7917 15.7815C14.74 15.9624 14.6214 16.1168 14.46 16.2135ZM14.7655 12.964C14.4726 12.964 14.1862 12.8771 13.9426 12.7143C13.699 12.5516 13.5091 12.3202 13.397 12.0495C13.2849 11.7789 13.2556 11.481 13.3127 11.1937C13.3699 10.9064 13.511 10.6424 13.7181 10.4353C13.9253 10.2281 14.1892 10.087 14.4766 10.0299C14.7639 9.97272 15.0617 10.0021 15.3324 10.1142C15.6031 10.2263 15.8344 10.4161 15.9972 10.6597C16.1599 10.9033 16.2468 11.1897 16.2468 11.4827C16.2468 11.8755 16.0908 12.2523 15.813 12.5301C15.5352 12.8079 15.1584 12.964 14.7655 12.964Z" fill="black"/>
</svg>
