<svg width="25" height="20" viewBox="0 0 25 20" fill="none" xmlns="http://www.w3.org/2000/svg">
<path d="M24.6118 2.35294C23.7059 2.76471 22.7294 3.03529 21.7176 3.16471C22.7529 2.54118 23.5529 1.55294 23.9294 0.364706C22.9529 0.952941 21.8706 1.36471 20.7294 1.6C19.8 0.588235 18.4941 0 17.0118 0C14.2471 0 11.9882 2.25882 11.9882 5.04706C11.9882 5.44706 12.0353 5.83529 12.1176 6.2C7.92941 5.98824 4.2 3.97647 1.71765 0.929412C1.28235 1.67059 1.03529 2.54118 1.03529 3.45882C1.03529 5.21177 1.91765 6.76471 3.28235 7.64706C2.44706 7.64706 1.67059 7.41177 0.988236 7.05882V7.09412C0.988236 9.54118 2.72941 11.5882 5.03529 12.0471C4.29497 12.2497 3.51776 12.2778 2.76471 12.1294C3.08424 13.1323 3.71004 14.0099 4.55414 14.6387C5.39823 15.2676 6.41817 15.6161 7.47059 15.6353C5.68662 17.0476 3.47529 17.811 1.2 17.8C0.8 17.8 0.4 17.7765 0 17.7294C2.23529 19.1647 4.89412 20 7.74118 20C17.0118 20 22.1059 12.3059 22.1059 5.63529C22.1059 5.41176 22.1059 5.2 22.0941 4.97647C23.0824 4.27059 23.9294 3.37647 24.6118 2.35294Z" fill="black"/>
</svg>
