<svg width="55" height="55" viewBox="0 0 55 55" fill="none" xmlns="http://www.w3.org/2000/svg">
<path d="M32.81 27.4776C32.7168 27.664 32.5743 27.8212 32.398 27.9323C32.2217 28.0434 32.0183 28.104 31.81 28.1076C31.6293 28.1122 31.4504 28.0709 31.29 27.9876C31.129 27.9394 30.9803 27.8568 30.8543 27.7455C30.7284 27.6342 30.6281 27.4969 30.5605 27.343C30.4928 27.1891 30.4595 27.0224 30.4626 26.8543C30.4658 26.6863 30.5055 26.5209 30.5789 26.3697C30.6523 26.2185 30.7577 26.085 30.8878 25.9786C31.0178 25.8721 31.1695 25.7952 31.3323 25.7531C31.495 25.7111 31.6649 25.7049 31.8303 25.735C31.9957 25.7652 32.1525 25.8309 32.29 25.9276C32.5637 26.065 32.7721 26.305 32.8695 26.5954C32.9669 26.8858 32.9455 27.2029 32.81 27.4776V27.4776ZM36.5 17.7076C36.3644 17.6372 36.2161 17.5946 36.0638 17.5822C35.9115 17.5698 35.7582 17.5878 35.613 17.6353C35.4678 17.6828 35.3334 17.7587 35.2179 17.8587C35.1023 17.9587 35.0079 18.0807 34.94 18.2176C34.8714 18.352 34.8302 18.4987 34.8187 18.6492C34.8073 18.7997 34.8258 18.9509 34.8732 19.0942C34.9207 19.2374 34.9961 19.3698 35.0951 19.4837C35.1941 19.5976 35.3147 19.6907 35.45 19.7576C35.6083 19.8474 35.7881 19.8924 35.97 19.8876C36.1775 19.8861 36.3807 19.8274 36.5571 19.718C36.7335 19.6087 36.8763 19.4528 36.97 19.2676C37.1124 18.998 37.1429 18.6831 37.055 18.3912C36.967 18.0993 36.7676 17.8537 36.5 17.7076V17.7076ZM34.4 21.8276C34.2663 21.7567 34.1199 21.7132 33.9692 21.6995C33.8185 21.6858 33.6666 21.7022 33.5223 21.7478C33.378 21.7934 33.2443 21.8673 33.1289 21.9651C33.0134 22.0629 32.9186 22.1828 32.85 22.3176C32.7099 22.5909 32.6838 22.9085 32.7776 23.2009C32.8713 23.4934 33.0771 23.7367 33.35 23.8776C33.5146 23.9604 33.6958 24.0048 33.88 24.0076C34.1401 24.0095 34.3931 23.9233 34.5978 23.7629C34.8026 23.6025 34.9469 23.3774 35.0072 23.1245C35.0676 22.8715 35.0404 22.6055 34.9301 22.37C34.8198 22.1345 34.6329 21.9433 34.4 21.8276V21.8276ZM20.4 49.2376C20.1725 49.2376 19.9502 49.305 19.7611 49.4314C19.572 49.5578 19.4246 49.7374 19.3375 49.9475C19.2505 50.1576 19.2277 50.3889 19.2721 50.6119C19.3165 50.835 19.426 51.0399 19.5868 51.2008C19.7477 51.3616 19.9526 51.4711 20.1756 51.5155C20.3987 51.5599 20.63 51.5371 20.8401 51.4501C21.0502 51.363 21.2298 51.2156 21.3562 51.0265C21.4825 50.8374 21.55 50.615 21.55 50.3876C21.5487 50.2353 21.5174 50.0847 21.4579 49.9444C21.3984 49.8042 21.3118 49.6771 21.2032 49.5703C21.0945 49.4635 20.9659 49.3791 20.8247 49.3221C20.6834 49.265 20.5323 49.2363 20.38 49.2376H20.4ZM15.78 49.2376C15.553 49.2396 15.3316 49.3087 15.1438 49.4363C14.956 49.5638 14.8102 49.7441 14.7247 49.9544C14.6392 50.1647 14.6178 50.3956 14.6633 50.618C14.7088 50.8404 14.8191 51.0444 14.9804 51.2042C15.1416 51.3641 15.3465 51.4726 15.5693 51.5162C15.7921 51.5597 16.0228 51.5364 16.2324 51.4491C16.4419 51.3617 16.6209 51.2143 16.7469 51.0255C16.8728 50.8366 16.94 50.6146 16.94 50.3876C16.9387 50.2344 16.9071 50.083 16.8469 49.9421C16.7868 49.8012 16.6994 49.6736 16.5897 49.5667C16.4799 49.4598 16.3501 49.3756 16.2077 49.3192C16.0653 49.2627 15.9132 49.235 15.76 49.2376H15.78ZM29.62 49.2376C29.3904 49.2256 29.1624 49.2827 28.9656 49.4016C28.7687 49.5204 28.6121 49.6956 28.5157 49.9043C28.4194 50.1131 28.3879 50.346 28.4253 50.5729C28.4626 50.7998 28.5672 51.0103 28.7253 51.1771C28.8835 51.344 29.0881 51.4597 29.3127 51.5091C29.5372 51.5586 29.7714 51.5396 29.9851 51.4546C30.1987 51.3696 30.382 51.2225 30.5112 51.0323C30.6404 50.8421 30.7097 50.6175 30.71 50.3876C30.7077 50.0902 30.5912 49.8049 30.3847 49.5909C30.1781 49.3769 29.8972 49.2504 29.6 49.2376H29.62ZM6.56 49.2376C6.33255 49.2376 6.11021 49.305 5.92109 49.4314C5.73198 49.5578 5.58458 49.7374 5.49754 49.9475C5.4105 50.1576 5.38772 50.3889 5.43209 50.6119C5.47647 50.835 5.586 51.0399 5.74683 51.2008C5.90766 51.3616 6.11257 51.4711 6.33564 51.5155C6.55872 51.5599 6.78995 51.5371 7.00008 51.4501C7.21022 51.363 7.38983 51.2156 7.51619 51.0265C7.64255 50.8374 7.71 50.615 7.71 50.3876C7.71002 50.2349 7.67963 50.0837 7.62059 49.9428C7.56155 49.802 7.47505 49.6743 7.36613 49.5673C7.25722 49.4602 7.12807 49.3759 6.98623 49.3193C6.84439 49.2627 6.6927 49.2349 6.54 49.2376H6.56ZM11.17 49.2376C10.9425 49.2376 10.7202 49.305 10.5311 49.4314C10.342 49.5578 10.1946 49.7374 10.1075 49.9475C10.0205 50.1576 9.99772 50.3889 10.0421 50.6119C10.0865 50.835 10.196 51.0399 10.3568 51.2008C10.5177 51.3616 10.7226 51.4711 10.9456 51.5155C11.1687 51.5599 11.3999 51.5371 11.6101 51.4501C11.8202 51.363 11.9998 51.2156 12.1262 51.0265C12.2526 50.8374 12.32 50.615 12.32 50.3876C12.3187 50.2353 12.2874 50.0847 12.2279 49.9444C12.1684 49.8042 12.0818 49.6771 11.9732 49.5703C11.8645 49.4635 11.7359 49.3791 11.5947 49.3221C11.4534 49.265 11.3023 49.2363 11.15 49.2376H11.17ZM48.07 49.2376C47.8426 49.2376 47.6202 49.305 47.4311 49.4314C47.242 49.5578 47.0946 49.7374 47.0075 49.9475C46.9205 50.1576 46.8977 50.3889 46.9421 50.6119C46.9865 50.835 47.096 51.0399 47.2568 51.2008C47.4177 51.3616 47.6226 51.4711 47.8456 51.5155C48.0687 51.5599 48.3 51.5371 48.5101 51.4501C48.7202 51.363 48.8998 51.2156 49.0262 51.0265C49.1526 50.8374 49.22 50.615 49.22 50.3876C49.22 50.2349 49.1896 50.0837 49.1306 49.9428C49.0715 49.802 48.985 49.6743 48.8761 49.5673C48.7672 49.4602 48.6381 49.3759 48.4962 49.3193C48.3544 49.2627 48.2027 49.2349 48.05 49.2376H48.07ZM1.95 49.2376C1.72255 49.2376 1.50021 49.305 1.31109 49.4314C1.12198 49.5578 0.97458 49.7374 0.887539 49.9475C0.800498 50.1576 0.777725 50.3889 0.822098 50.6119C0.866471 50.835 0.975995 51.0399 1.13683 51.2008C1.29766 51.3616 1.50257 51.4711 1.72565 51.5155C1.94873 51.5599 2.17995 51.5371 2.39008 51.4501C2.60022 51.363 2.77983 51.2156 2.90619 51.0265C3.03255 50.8374 3.1 50.615 3.1 50.3876C3.09869 50.2353 3.06739 50.0847 3.00788 49.9444C2.94838 49.8042 2.86183 49.6771 2.75319 49.5703C2.64454 49.4635 2.51592 49.3791 2.37468 49.3221C2.23344 49.265 2.08234 49.2363 1.93 49.2376H1.95ZM52.68 49.2376C52.4526 49.2376 52.2302 49.305 52.0411 49.4314C51.852 49.5578 51.7046 49.7374 51.6175 49.9475C51.5305 50.1576 51.5077 50.3889 51.5521 50.6119C51.5965 50.835 51.706 51.0399 51.8668 51.2008C52.0277 51.3616 52.2326 51.4711 52.4556 51.5155C52.6787 51.5599 52.91 51.5371 53.1201 51.4501C53.3302 51.363 53.5098 51.2156 53.6362 51.0265C53.7626 50.8374 53.83 50.615 53.83 50.3876C53.8276 50.0885 53.7097 49.8019 53.501 49.5876C53.2923 49.3733 53.0089 49.2479 52.71 49.2376H52.68ZM38.84 49.2376C38.613 49.2396 38.3916 49.3087 38.2038 49.4363C38.016 49.5638 37.8702 49.7441 37.7847 49.9544C37.6992 50.1647 37.6778 50.3956 37.7233 50.618C37.7688 50.8404 37.8791 51.0444 38.0404 51.2042C38.2016 51.3641 38.4065 51.4726 38.6293 51.5162C38.8521 51.5597 39.0828 51.5364 39.2924 51.4491C39.5019 51.3617 39.6809 51.2143 39.8069 51.0255C39.9328 50.8366 40 50.6146 40 50.3876C39.9987 50.2344 39.9671 50.083 39.9069 49.9421C39.8468 49.8012 39.7594 49.6736 39.6497 49.5667C39.5399 49.4598 39.4101 49.3756 39.2677 49.3192C39.1253 49.2627 38.9732 49.235 38.82 49.2376H38.84ZM43.46 49.2376C43.2326 49.2376 43.0102 49.305 42.8211 49.4314C42.632 49.5578 42.4846 49.7374 42.3975 49.9475C42.3105 50.1576 42.2877 50.3889 42.3321 50.6119C42.3765 50.835 42.486 51.0399 42.6468 51.2008C42.8077 51.3616 43.0126 51.4711 43.2356 51.5155C43.4587 51.5599 43.69 51.5371 43.9001 51.4501C44.1102 51.363 44.2898 51.2156 44.4162 51.0265C44.5426 50.8374 44.61 50.615 44.61 50.3876C44.6087 50.2353 44.5774 50.0847 44.5179 49.9444C44.4584 49.8042 44.3718 49.6771 44.2632 49.5703C44.1545 49.4635 44.0259 49.3791 43.8847 49.3221C43.7434 49.265 43.5923 49.2363 43.44 49.2376H43.46ZM34.23 49.2376C34.003 49.2396 33.7816 49.3087 33.5938 49.4363C33.406 49.5638 33.2602 49.7441 33.1747 49.9544C33.0892 50.1647 33.0678 50.3956 33.1133 50.618C33.1588 50.8404 33.2691 51.0444 33.4304 51.2042C33.5916 51.3641 33.7965 51.4726 34.0193 51.5162C34.2421 51.5597 34.4728 51.5364 34.6824 51.4491C34.8919 51.3617 35.0709 51.2143 35.1969 51.0255C35.3228 50.8366 35.39 50.6146 35.39 50.3876C35.3887 50.2344 35.3571 50.083 35.2969 49.9421C35.2368 49.8012 35.1494 49.6736 35.0397 49.5667C34.9299 49.4598 34.8001 49.3756 34.6577 49.3192C34.5153 49.2627 34.3632 49.235 34.21 49.2376H34.23ZM25.01 49.2376C24.7826 49.2376 24.5602 49.305 24.3711 49.4314C24.182 49.5578 24.0346 49.7374 23.9475 49.9475C23.8605 50.1576 23.8377 50.3889 23.8821 50.6119C23.9265 50.835 24.036 51.0399 24.1968 51.2008C24.3577 51.3616 24.5626 51.4711 24.7856 51.5155C25.0087 51.5599 25.24 51.5371 25.4501 51.4501C25.6602 51.363 25.8398 51.2156 25.9662 51.0265C26.0926 50.8374 26.16 50.615 26.16 50.3876C26.16 50.2349 26.1296 50.0837 26.0706 49.9428C26.0115 49.802 25.925 49.6743 25.8161 49.5673C25.7072 49.4602 25.5781 49.3759 25.4362 49.3193C25.2944 49.2627 25.1427 49.2349 24.99 49.2376H25.01ZM45.71 52.6976C45.483 52.6996 45.2616 52.7687 45.0738 52.8963C44.886 53.0238 44.7402 53.2041 44.6547 53.4144C44.5692 53.6247 44.5478 53.8556 44.5933 54.078C44.6388 54.3004 44.7491 54.5044 44.9104 54.6642C45.0716 54.8241 45.2765 54.9326 45.4993 54.9762C45.7221 55.0197 45.9528 54.9964 46.1624 54.9091C46.3719 54.8217 46.5509 54.6743 46.6769 54.4855C46.8028 54.2966 46.87 54.0746 46.87 53.8476C46.87 53.6957 46.8399 53.5454 46.7815 53.4052C46.7231 53.265 46.6375 53.1378 46.5296 53.0309C46.4218 52.924 46.2938 52.8395 46.1532 52.7823C46.0125 52.7251 45.8619 52.6963 45.71 52.6976ZM41.1 52.6976C40.8725 52.6976 40.6502 52.765 40.4611 52.8914C40.272 53.0178 40.1246 53.1974 40.0375 53.4075C39.9505 53.6176 39.9277 53.8489 39.9721 54.072C40.0165 54.295 40.126 54.4999 40.2868 54.6608C40.4477 54.8216 40.6526 54.9311 40.8756 54.9755C41.0987 55.0199 41.3299 54.9971 41.5401 54.9101C41.7502 54.823 41.9298 54.6756 42.0562 54.4865C42.1826 54.2974 42.25 54.075 42.25 53.8476C42.2501 53.5477 42.1331 53.2597 41.9238 53.0448C41.7146 52.83 41.4298 52.7054 41.13 52.6976H41.1ZM31.88 52.6976C31.6525 52.6976 31.4302 52.765 31.2411 52.8914C31.052 53.0178 30.9046 53.1974 30.8175 53.4075C30.7305 53.6176 30.7077 53.8489 30.7521 54.072C30.7965 54.295 30.906 54.4999 31.0668 54.6608C31.2277 54.8216 31.4326 54.9311 31.6556 54.9755C31.8787 55.0199 32.1099 54.9971 32.3201 54.9101C32.5302 54.823 32.7098 54.6756 32.8362 54.4865C32.9626 54.2974 33.03 54.075 33.03 53.8476C33.0301 53.5477 32.9131 53.2597 32.7038 53.0448C32.4946 52.83 32.2098 52.7054 31.91 52.6976H31.88ZM4.2 52.6976C3.97299 52.6996 3.75164 52.7687 3.56384 52.8963C3.37605 53.0238 3.2302 53.2041 3.1447 53.4144C3.05919 53.6247 3.03783 53.8556 3.08333 54.078C3.12882 54.3004 3.23913 54.5044 3.40035 54.6642C3.56157 54.8241 3.7665 54.9326 3.9893 54.9762C4.2121 55.0197 4.44281 54.9964 4.65236 54.9091C4.86192 54.8217 5.04094 54.6743 5.16686 54.4855C5.29279 54.2966 5.35999 54.0746 5.36 53.8476C5.36005 53.546 5.24163 53.2565 5.03027 53.0414C4.81891 52.8263 4.53152 52.7028 4.23 52.6976H4.2ZM50.33 52.6976C50.1026 52.6976 49.8802 52.765 49.6911 52.8914C49.502 53.0178 49.3546 53.1974 49.2675 53.4075C49.1805 53.6176 49.1577 53.8489 49.2021 54.072C49.2465 54.295 49.356 54.4999 49.5168 54.6608C49.6777 54.8216 49.8826 54.9311 50.1056 54.9755C50.3287 55.0199 50.56 54.9971 50.7701 54.9101C50.9802 54.823 51.1598 54.6756 51.2862 54.4865C51.4125 54.2974 51.48 54.075 51.48 53.8476C51.4801 53.5477 51.3631 53.2597 51.1538 53.0448C50.9446 52.83 50.6598 52.7054 50.36 52.6976H50.33ZM36.49 52.6976C36.185 52.6976 35.8925 52.8188 35.6768 53.0344C35.4612 53.2501 35.34 53.5426 35.34 53.8476C35.34 54.1526 35.4612 54.4451 35.6768 54.6608C35.8925 54.8764 36.185 54.9976 36.49 54.9976C36.795 54.9976 37.0875 54.8764 37.3032 54.6608C37.5188 54.4451 37.64 54.1526 37.64 53.8476C37.64 53.5426 37.5188 53.2501 37.3032 53.0344C37.0875 52.8188 36.795 52.6976 36.49 52.6976ZM18.04 52.6976C17.8126 52.6976 17.5902 52.765 17.4011 52.8914C17.212 53.0178 17.0646 53.1974 16.9775 53.4075C16.8905 53.6176 16.8677 53.8489 16.9121 54.072C16.9565 54.295 17.066 54.4999 17.2268 54.6608C17.3877 54.8216 17.5926 54.9311 17.8156 54.9755C18.0387 55.0199 18.2699 54.9971 18.4801 54.9101C18.6902 54.823 18.8698 54.6756 18.9962 54.4865C19.1226 54.2974 19.19 54.075 19.19 53.8476C19.1901 53.5477 19.0731 53.2597 18.8638 53.0448C18.6546 52.83 18.3698 52.7054 18.07 52.6976H18.04ZM13.43 52.6976C13.2026 52.6976 12.9802 52.765 12.7911 52.8914C12.602 53.0178 12.4546 53.1974 12.3675 53.4075C12.2805 53.6176 12.2577 53.8489 12.3021 54.072C12.3465 54.295 12.456 54.4999 12.6168 54.6608C12.7777 54.8216 12.9826 54.9311 13.2056 54.9755C13.4287 55.0199 13.66 54.9971 13.8701 54.9101C14.0802 54.823 14.2598 54.6756 14.3862 54.4865C14.5126 54.2974 14.58 54.075 14.58 53.8476C14.5801 53.5477 14.4631 53.2597 14.2538 53.0448C14.0446 52.83 13.7598 52.7054 13.46 52.6976H13.43ZM27.26 52.6976C27.033 52.6996 26.8116 52.7687 26.6238 52.8963C26.436 53.0238 26.2902 53.2041 26.2047 53.4144C26.1192 53.6247 26.0978 53.8556 26.1433 54.078C26.1888 54.3004 26.2991 54.5044 26.4604 54.6642C26.6216 54.8241 26.8265 54.9326 27.0493 54.9762C27.2721 55.0197 27.5028 54.9964 27.7124 54.9091C27.9219 54.8217 28.1009 54.6743 28.2269 54.4855C28.3528 54.2966 28.42 54.0746 28.42 53.8476C28.42 53.546 28.3016 53.2565 28.0903 53.0414C27.8789 52.8263 27.5915 52.7028 27.29 52.6976H27.26ZM8.82 52.6976C8.59255 52.6976 8.37021 52.765 8.1811 52.8914C7.99198 53.0178 7.84458 53.1974 7.75754 53.4075C7.6705 53.6176 7.64772 53.8489 7.6921 54.072C7.73647 54.295 7.84599 54.4999 8.00682 54.6608C8.16765 54.8216 8.37257 54.9311 8.59565 54.9755C8.81872 55.0199 9.04995 54.9971 9.26009 54.9101C9.47022 54.823 9.64982 54.6756 9.77619 54.4865C9.90255 54.2974 9.97 54.075 9.97 53.8476C9.9701 53.5477 9.85307 53.2597 9.64385 53.0448C9.43463 52.83 9.14977 52.7054 8.85 52.6976H8.82ZM22.65 52.6976C22.423 52.6996 22.2016 52.7687 22.0138 52.8963C21.826 53.0238 21.6802 53.2041 21.5947 53.4144C21.5092 53.6247 21.4878 53.8556 21.5333 54.078C21.5788 54.3004 21.6891 54.5044 21.8504 54.6642C22.0116 54.8241 22.2165 54.9326 22.4393 54.9762C22.6621 55.0197 22.8928 54.9964 23.1024 54.9091C23.3119 54.8217 23.4909 54.6743 23.6169 54.4855C23.7428 54.2966 23.81 54.0746 23.81 53.8476C23.8103 53.5511 23.696 53.2659 23.491 53.0516C23.2861 52.8373 23.0062 52.7105 22.71 52.6976H22.65ZM53.81 46.5876H0.809998C0.595172 46.5876 0.389148 46.5023 0.237244 46.3504C0.0853392 46.1985 0 45.9924 0 45.7776C0 45.5628 0.0853392 45.3568 0.237244 45.2048C0.389148 45.0529 0.595172 44.9676 0.809998 44.9676H53.81C54.0248 44.9676 54.2309 45.0529 54.3828 45.2048C54.5347 45.3568 54.62 45.5628 54.62 45.7776C54.62 45.9924 54.5347 46.1985 54.3828 46.3504C54.2309 46.5023 54.0248 46.5876 53.81 46.5876Z" fill="black"/>
<path d="M31.78 28.4575C31.5394 28.4594 31.3021 28.4009 31.09 28.2875C30.742 28.1044 30.4799 27.792 30.36 27.4175C30.2975 27.2312 30.2732 27.0342 30.2887 26.8383C30.3042 26.6425 30.359 26.4517 30.45 26.2775C30.5819 26.0101 30.7911 25.7884 31.0504 25.6411C31.3097 25.4939 31.6073 25.4278 31.9046 25.4515C32.2019 25.4752 32.4852 25.5876 32.7179 25.774C32.9506 25.9605 33.122 26.2126 33.21 26.4975C33.288 26.725 33.3106 26.9679 33.2758 27.2059C33.241 27.4439 33.1499 27.6701 33.01 27.8658C32.8701 28.0614 32.6855 28.2208 32.4715 28.3307C32.2576 28.4406 32.0205 28.4978 31.78 28.4975V28.4575Z" fill="black"/>
<path d="M33.8799 24.3477C33.644 24.3471 33.4113 24.2924 33.1999 24.1877C33.0216 24.0998 32.8631 23.9764 32.7341 23.8251C32.6051 23.6738 32.5084 23.4977 32.4499 23.3077C32.3898 23.118 32.3681 22.9182 32.3859 22.72C32.4038 22.5218 32.461 22.3291 32.554 22.1532C32.6471 21.9773 32.7742 21.8217 32.928 21.6954C33.0819 21.5691 33.2593 21.4747 33.4499 21.4177C33.6356 21.3592 33.831 21.338 34.0249 21.3551C34.2188 21.3723 34.4074 21.4275 34.5799 21.5177C34.8766 21.6724 35.113 21.9218 35.2516 22.2263C35.3902 22.5308 35.4231 22.8729 35.3449 23.1982C35.2667 23.5235 35.0821 23.8133 34.8202 24.0216C34.5584 24.2299 34.2345 24.3447 33.8999 24.3477H33.8799Z" fill="black"/>
<path d="M35.9701 20.2375C35.7248 20.2423 35.4828 20.1801 35.2701 20.0575C34.9235 19.8776 34.6613 19.5688 34.5401 19.1975C34.4814 19.0078 34.4607 18.8083 34.4792 18.6106C34.4977 18.4128 34.5551 18.2206 34.648 18.0451C34.7409 17.8695 34.8675 17.714 35.0206 17.5874C35.1737 17.4609 35.3502 17.3658 35.5401 17.3075C35.9205 17.1864 36.3332 17.2187 36.6901 17.3975V17.3975C37.0372 17.581 37.2992 17.8924 37.4205 18.2658C37.5419 18.6392 37.513 19.0451 37.3401 19.3975C37.219 19.6562 37.0246 19.8737 36.7811 20.023C36.5376 20.1723 36.2556 20.2469 35.9701 20.2375V20.2375Z" fill="black"/>
<path d="M53.8099 40.3575H25.8099L27.8099 36.2375L28.6099 36.6575C28.7726 36.7443 28.9597 36.7737 29.1412 36.7411C29.3226 36.7084 29.4878 36.6156 29.6099 36.4775L32.5199 33.1775H32.7099C33.0499 33.193 33.3895 33.142 33.7099 33.0275C34.1002 32.9042 34.462 32.7045 34.7744 32.4401C35.0869 32.1758 35.3437 31.852 35.5299 31.4875L44.7099 13.7975L46.0399 14.4875C46.1852 14.5653 46.3508 14.5968 46.5145 14.578C46.6782 14.5592 46.8323 14.4909 46.9562 14.3822C47.0801 14.2736 47.1678 14.1297 47.2078 13.9699C47.2478 13.81 47.2381 13.6417 47.1799 13.4875C47.1142 13.2815 46.9707 13.1093 46.7799 13.0075L41.3599 10.1975L42.7399 7.52754L43.0499 7.68754C43.4109 7.87902 43.8066 7.99625 44.2137 8.03232C44.6207 8.06839 45.0309 8.02256 45.4199 7.89754C45.8091 7.77483 46.1701 7.57652 46.4825 7.31397C46.7948 7.05142 47.0522 6.72979 47.2399 6.36754L48.3099 4.36754C48.3518 4.26954 48.3733 4.16409 48.3733 4.05754C48.3733 3.95099 48.3518 3.84555 48.3099 3.74754C48.2793 3.64585 48.2279 3.5516 48.1591 3.47071C48.0903 3.38983 48.0054 3.32406 47.9099 3.27754L41.7699 0.087543C41.581 -0.00825921 41.362 -0.0262117 41.1599 0.0375399C41.0585 0.0687348 40.9645 0.120301 40.8837 0.189079C40.8029 0.257857 40.737 0.342403 40.6899 0.437541L39.6199 2.43754C39.4319 2.80168 39.3175 3.19928 39.2832 3.60765C39.2489 4.01601 39.2953 4.42714 39.4199 4.81754C39.5411 5.2074 39.7389 5.56917 40.0016 5.88168C40.2643 6.19418 40.5867 6.45115 40.9499 6.63754L41.2599 6.79754L39.8799 9.45754L34.4499 6.63754C34.3536 6.59599 34.2498 6.57456 34.1449 6.57456C34.04 6.57456 33.9363 6.59599 33.8399 6.63754C33.7372 6.6686 33.6417 6.72002 33.5593 6.78874C33.4768 6.85746 33.409 6.94207 33.3599 7.03754C33.2805 7.2331 33.2805 7.45198 33.3599 7.64754C33.3911 7.74897 33.4427 7.84297 33.5115 7.92379C33.5803 8.0046 33.6648 8.07053 33.7599 8.11754L35.0899 8.81754L25.8899 26.5175C25.626 27.0263 25.5078 27.5982 25.5484 28.17C25.5889 28.7417 25.7868 29.2911 26.1199 29.7575L26.2099 29.8875L25.2099 34.1675C25.1656 34.3418 25.1821 34.526 25.2567 34.6896C25.3312 34.8533 25.4594 34.9866 25.6199 35.0675L26.4599 35.5075L24.0499 40.3675H0.769943C0.571907 40.3896 0.388968 40.484 0.256111 40.6325C0.123254 40.781 0.0498047 40.9733 0.0498047 41.1725C0.0498047 41.3718 0.123254 41.5641 0.256111 41.7126C0.388968 41.8611 0.571907 41.9554 0.769943 41.9775H53.7699C53.8832 41.9902 53.9978 41.9788 54.1064 41.9441C54.2149 41.9094 54.3149 41.8522 54.3999 41.7762C54.4848 41.7003 54.5527 41.6072 54.5992 41.5032C54.6458 41.3992 54.6698 41.2865 54.6698 41.1725C54.6698 41.0586 54.6458 40.9459 54.5992 40.8419C54.5527 40.7379 54.4848 40.6448 54.3999 40.5688C54.3149 40.4929 54.2149 40.4357 54.1064 40.401C53.9978 40.3663 53.8832 40.3549 53.7699 40.3675L53.8099 40.3575ZM41.0299 4.35754C40.969 4.17058 40.9464 3.97323 40.9636 3.77734C40.9808 3.58144 41.0374 3.39103 41.1299 3.21754L41.8199 1.88754L46.5199 4.32754L45.8299 5.65754C45.742 5.83472 45.6184 5.99186 45.467 6.11918C45.3156 6.2465 45.1396 6.34125 44.9499 6.39754C44.8049 6.44582 44.6528 6.46948 44.4999 6.46754C44.2599 6.46471 44.0238 6.40654 43.8099 6.29754L41.8099 5.23754C41.629 5.15115 41.4669 5.0298 41.333 4.88049C41.1991 4.73117 41.0961 4.55684 41.0299 4.36754V4.35754ZM40.6299 11.6675L43.2899 13.0275L41.9099 15.7175L39.2499 14.3375L40.6299 11.6675ZM36.5399 9.53754L39.1999 10.9175L37.8199 13.5775L35.1599 12.1975L36.5399 9.53754ZM27.3399 27.2375L34.4099 13.6375L41.1699 17.1475L34.0999 30.7575C34.0091 30.9327 33.8847 31.0882 33.7337 31.2152C33.5827 31.3422 33.4081 31.4381 33.2199 31.4975C33.0747 31.5451 32.9227 31.5687 32.7699 31.5675C32.5296 31.567 32.293 31.5087 32.0799 31.3975L27.9799 29.2675C27.6275 29.0842 27.3622 28.7686 27.2422 28.3899C27.1223 28.0112 27.1574 27.6004 27.3399 27.2475V27.2375ZM27.6399 30.9075L30.9199 32.6075L28.9199 34.9275L26.9199 33.9275L27.6399 30.9075Z" fill="black"/>
</svg>
