<svg width="496" height="496" viewBox="0 0 496 496" fill="none" xmlns="http://www.w3.org/2000/svg">
<path d="M248 0C111.033 0 0 111.033 0 248C0 384.967 111.033 496 248 496C384.967 496 496 384.967 496 248C496 111.033 384.967 0 248 0ZM248 48C358.532 48 448 137.451 448 248C448 358.532 358.549 448 248 448C137.468 448 48 358.549 48 248C48 137.468 137.451 48 248 48ZM388.204 178.267L365.668 155.549C361.001 150.844 353.403 150.813 348.698 155.481L207.346 295.697L147.554 235.42C142.887 230.715 135.289 230.684 130.584 235.351L107.865 257.887C103.16 262.554 103.129 270.152 107.797 274.858L198.578 366.374C203.245 371.079 210.843 371.11 215.548 366.442L388.137 195.238C392.841 190.57 392.871 182.972 388.204 178.267Z" fill="black"/>
</svg>
