<svg width="47" height="55" viewBox="0 0 47 55" fill="none" xmlns="http://www.w3.org/2000/svg">
<path d="M6.38021 7.90989C6.53297 7.75147 6.61833 7.53997 6.61833 7.31989C6.61833 7.09982 6.53297 6.88832 6.38021 6.72989C6.22405 6.58845 6.02092 6.51005 5.81022 6.50989C5.70076 6.50795 5.59204 6.52822 5.49064 6.56947C5.38923 6.61072 5.29724 6.6721 5.22021 6.74989C5.14107 6.82642 5.07815 6.9181 5.0352 7.01946C4.99225 7.12083 4.97015 7.22981 4.97022 7.3399C4.97556 7.50318 5.0284 7.66137 5.12227 7.79508C5.21615 7.92879 5.34697 8.03223 5.49874 8.09272C5.6505 8.15321 5.81661 8.16814 5.97672 8.13566C6.13684 8.10319 6.28401 8.02473 6.40022 7.90989H6.38021Z" fill="black"/>
<path d="M46.19 31.48L43 22.97V22.9C43 22.15 43 20.07 43 19.81C42.9999 17.7051 42.7174 15.6097 42.16 13.58C40 5.08 32.68 0 22.76 0H22.61C22.04 0 21.54 0 21.06 0C16.8246 0.248816 12.7101 1.50716 9.06 3.67C8.96525 3.72369 8.8823 3.79594 8.81612 3.88243C8.74993 3.96892 8.70186 4.06786 8.67479 4.17335C8.64772 4.27884 8.64219 4.38871 8.65855 4.49638C8.67491 4.60405 8.71282 4.70731 8.77 4.8C8.88555 4.98483 9.06843 5.11751 9.28 5.17C9.38565 5.19831 9.49593 5.20493 9.60421 5.18946C9.71249 5.17399 9.81651 5.13676 9.91 5.08C13.3394 3.07087 17.193 1.89595 21.16 1.65C21.6 1.65 22.09 1.65 22.62 1.65C23.3 1.65 23.97 1.65 24.62 1.73C20.1826 2.98933 16.1165 5.30545 12.77 8.48C9.67537 9.2942 6.64133 10.3234 3.69 11.56C3.69181 11.5334 3.69181 11.5066 3.69 11.48C3.7443 11.3835 3.7777 11.2766 3.78804 11.1664C3.79837 11.0561 3.78541 10.9449 3.75 10.84C3.68428 10.634 3.54076 10.4618 3.35 10.36C3.14756 10.2803 2.92244 10.2803 2.72 10.36C2.52471 10.413 2.35676 10.5381 2.25 10.71C0.969253 13.3381 0.23769 16.1997 0.0999985 19.12C-1.52737e-06 20.21 0 21.26 0 22.26C0 26.65 0.849999 32.85 4.89 37.49C6.36712 39.1659 7.19388 41.3162 7.22 43.55C7.21978 44.0358 7.17964 44.5208 7.1 45L5.6 53.69C5.57838 53.8011 5.57917 53.9154 5.60231 54.0261C5.62544 54.1369 5.67047 54.2419 5.73473 54.3351C5.799 54.4282 5.88122 54.5076 5.97657 54.5685C6.07192 54.6295 6.17848 54.6708 6.29 54.69H6.43C6.62328 54.6877 6.80955 54.6172 6.95592 54.491C7.1023 54.3648 7.19937 54.1909 7.23 54L8.73 45.3C8.83124 44.7323 8.88144 44.1567 8.88 43.58C8.85538 40.9479 7.88256 38.4129 6.14 36.44C5.44026 35.6401 4.82687 34.7686 4.31 33.84C17 19.69 36.42 15.32 40.77 14.48C41.1952 16.2182 41.4134 18.0006 41.42 19.79C41.42 20.05 41.42 22.79 41.42 23.07L41.49 23.45L44.73 32.11L44.98 32.61H39.78C39.6528 32.6092 39.5272 32.6377 39.4127 32.6931C39.2983 32.7486 39.1981 32.8297 39.12 32.93C39.0441 33.0299 38.9914 33.1454 38.9654 33.2682C38.9395 33.3909 38.9411 33.5179 38.97 33.64L40.2 38.58L38.77 41.7C38.7178 41.8266 38.6939 41.9632 38.7 42.1L38.95 46.1C38.9425 46.4921 38.7848 46.8663 38.5094 47.1454C38.234 47.4245 37.8619 47.5873 37.47 47.6V47.6C37.3504 47.6142 37.2296 47.6142 37.11 47.6L30.26 47.13L24 45.95H23.8C23.6325 45.9456 23.4679 45.9947 23.33 46.09C23.153 46.2166 23.0313 46.4063 22.99 46.62C22.9683 46.7267 22.9687 46.8368 22.991 46.9434C23.0134 47.05 23.0573 47.151 23.12 47.24C23.1802 47.331 23.2582 47.409 23.3493 47.4691C23.4403 47.5293 23.5426 47.5704 23.65 47.59L29.25 48.59L28.73 53.72C28.7138 53.8248 28.7206 53.9319 28.75 54.0337C28.7793 54.1356 28.8305 54.2299 28.9 54.31C28.9655 54.3958 29.0484 54.4668 29.1431 54.5185C29.2379 54.5701 29.3424 54.6013 29.45 54.61H29.56C29.7641 54.6083 29.9603 54.5304 30.1101 54.3917C30.2599 54.253 30.3526 54.0634 30.37 53.86L30.89 48.77L36.8 49.17C37.0208 49.2121 37.2452 49.2322 37.47 49.23C38.302 49.2247 39.0981 48.8905 39.6845 48.3003C40.2709 47.7102 40.6 46.912 40.6 46.08L40.36 42.16L41.82 38.95C41.9007 38.7818 41.9185 38.5902 41.87 38.41L40.87 34.24H44.41C44.9404 34.24 45.4491 34.0293 45.8242 33.6542C46.1993 33.2791 46.41 32.7704 46.41 32.24C46.388 31.9745 46.3132 31.7162 46.19 31.48ZM28.9 2.48C31.3107 3.08189 33.5602 4.20492 35.49 5.77C28.9441 5.67249 22.4094 6.34375 16.02 7.77C19.7626 4.88583 24.2106 3.05895 28.9 2.48ZM37.07 7.32C38.5479 8.99392 39.6646 10.9548 40.35 13.08C39.07 13.33 36.76 13.83 33.8 14.7C20.61 13.25 6 19.86 1.63 22.03C1.63 21.17 1.63 20.27 1.76 19.28C1.88405 17.3452 2.25024 15.4336 2.85 13.59C5.33 12.4 18.51 6.61 37.07 7.29V7.32ZM3.56 32.37C2.39998 29.6211 1.75592 26.6821 1.66 23.7C4.53 22.24 17.43 16.07 29.76 15.98C21.89 18.75 11.52 23.75 3.56 32.37Z" fill="black"/>
</svg>
