<svg width="56" height="56" viewBox="0 0 56 56" fill="none" xmlns="http://www.w3.org/2000/svg">
<path d="M49.0179 20.9747L49.8379 18.2747C49.8987 18.0647 49.8772 17.8395 49.7779 17.6447C49.6765 17.4597 49.5084 17.3203 49.3079 17.2547H49.2379C49.0301 17.207 48.8119 17.2391 48.6267 17.3447C48.4415 17.4503 48.3027 17.6216 48.2379 17.8247L47.4079 20.5247C46.7762 22.5923 45.7209 24.5057 44.3091 26.143C42.8973 27.7803 41.16 29.1057 39.2079 30.0347L23.5179 37.4547C23.2779 37.6047 22.6279 37.9547 22.0079 38.2447L21.7179 38.3847C21.4579 38.5047 21.1779 38.6247 20.8879 38.7347C20.4995 38.8888 20.1021 39.0191 19.6979 39.1247C19.3372 39.2324 18.9641 39.2929 18.5879 39.3047C18.1179 39.3047 17.8779 39.2247 17.7379 39.0147L17.6679 38.9447V38.8447C17.6079 38.7247 17.5679 38.4147 18.3879 37.5247C18.5686 37.3223 18.7624 37.1319 18.9679 36.9547L19.1679 36.7747C19.5219 36.4581 19.9034 36.1736 20.3079 35.9247C20.6879 35.6547 21.0779 35.4047 21.4779 35.1647C21.8779 34.9247 22.5479 34.5347 23.0979 34.2447L39.0979 24.6647C40.3296 23.9256 41.2232 22.7341 41.5879 21.3447L46.9579 1.01471C46.9638 0.948177 46.9638 0.881243 46.9579 0.81471C46.9579 0.635567 46.8992 0.46135 46.7909 0.318688C46.6825 0.176027 46.5304 0.0727751 46.3579 0.0247125C46.1486 -0.0250103 45.9283 0.00742025 45.7422 0.115327C45.5562 0.223233 45.4186 0.398393 45.3579 0.60471L39.9579 20.9347C39.701 21.9018 39.0814 22.7326 38.2279 23.2547L25.6679 30.7947V30.2147C25.6179 29.4247 25.6079 28.6047 25.6679 27.8047V27.6047L34.4779 22.3247C35.6981 21.6008 36.5852 20.4264 36.9479 19.0547L42.3079 1.05471C42.3142 0.978174 42.3142 0.901249 42.3079 0.824712C42.3102 0.649054 42.2547 0.477498 42.1499 0.336526C42.0451 0.195554 41.8968 0.0930072 41.7279 0.0447129C41.5223 -0.0141341 41.3019 0.010658 41.1145 0.113686C40.9272 0.216715 40.7882 0.389623 40.7279 0.594712L35.3679 18.5947C35.114 19.5635 34.4889 20.3933 33.6279 20.9047L25.7879 25.6047L25.8779 24.8947C26.8249 18.5951 29.1576 12.5841 32.7079 7.29471C32.8405 7.11967 32.8981 6.89912 32.8681 6.68157C32.8381 6.46403 32.7229 6.26732 32.5479 6.13471C32.3728 6.0021 32.1523 5.94446 31.9347 5.97447C31.7172 6.00447 31.5205 6.11967 31.3879 6.29471C25.1979 14.0247 21.3879 21.5947 20.1479 28.8047V28.9647L17.8679 30.3347C16.6544 30.9553 15.4879 31.6638 14.3779 32.4547C11.8779 34.2747 10.9579 35.8947 11.6479 37.2747C11.7681 37.5565 11.9472 37.8094 12.1731 38.0163C12.3991 38.2233 12.6666 38.3796 12.9579 38.4747C13.8315 38.661 14.7389 38.6127 15.5879 38.3347L16.0779 38.2047V38.7047C16.0645 39.0502 16.1366 39.3937 16.2879 39.7047C16.5085 40.0982 16.8334 40.4231 17.2269 40.6436C17.6204 40.8642 18.0671 40.9718 18.5179 40.9547H18.6079C19.0644 40.9233 19.5167 40.8463 19.9579 40.7247L20.2979 40.6447L20.3779 40.9847C20.9157 43.1315 21.6766 45.2161 22.6479 47.2047C22.8179 47.5747 22.9979 47.9647 23.0779 48.2047V48.2747V48.3647C22.9148 49.9949 23.3891 51.625 24.4014 52.9132C25.4137 54.2014 26.8853 55.0477 28.5079 55.2747C28.7861 55.3146 29.0668 55.3346 29.3479 55.3347C30.9318 55.3345 32.4575 54.7377 33.6211 53.6632C34.7848 52.5886 35.501 51.1152 35.6271 49.5363C35.7532 47.9574 35.2799 46.389 34.3016 45.1434C33.3233 43.8977 31.9116 43.0663 30.3479 42.8147L30.1979 42.7547C28.8388 41.3859 27.8124 39.7231 27.1979 37.8947L27.0779 37.5847L39.9579 31.4747C42.1145 30.4497 44.0339 28.9867 45.5937 27.1789C47.1536 25.3711 48.3198 23.2582 49.0179 20.9747V20.9747ZM21.3179 32.7347C21.3179 31.8647 21.4479 31.0247 21.5579 30.1847C21.6379 29.6847 21.7279 29.1847 21.8179 28.6547C21.9079 28.1247 22.0279 27.6547 22.1579 27.0847C22.6605 25.0337 23.3294 23.0271 24.1579 21.0847L27.2579 14.3647L24.8179 21.3047C24.4384 22.997 24.1843 24.715 24.0579 26.4447C24.0579 26.9147 23.9979 27.3747 23.9879 27.8247C23.9779 28.2747 23.9879 28.7347 23.9879 29.1747C23.9879 29.9547 24.0479 30.7347 24.1179 31.4747V31.6947L21.2679 33.3447L21.3179 32.7347ZM13.8979 36.9647C13.7326 36.9669 13.5677 36.9468 13.4079 36.9047C13.3268 36.8881 13.2505 36.8534 13.1847 36.8032C13.1189 36.7529 13.0653 36.6885 13.0279 36.6147V36.6147C12.5079 35.6147 16.0279 33.1347 18.5679 31.8347L19.7679 31.1147L19.7179 31.7947C19.6479 32.5947 19.6079 33.4147 19.6079 34.2247V34.4047L19.3479 34.5847L19.1879 34.7047L19.0079 34.8347L18.0979 35.5347C16.7989 36.2683 15.3746 36.7532 13.8979 36.9647V36.9647ZM30.0079 44.3747C30.9225 44.4971 31.7802 44.8884 32.4722 45.4988C33.1643 46.1092 33.6595 46.9114 33.8951 47.8036C34.1307 48.6958 34.0962 49.6379 33.7958 50.5104C33.4954 51.3829 32.9428 52.1466 32.2079 52.7047C31.4086 53.3416 30.4197 53.6935 29.3979 53.7047C29.1848 53.7192 28.971 53.7192 28.7579 53.7047C27.5336 53.5381 26.4252 52.8931 25.6754 51.911C24.9257 50.9288 24.5958 49.6896 24.7579 48.4647C24.8179 48.0247 24.6179 47.5847 24.1579 46.6147C23.2011 44.6203 22.4635 42.5281 21.9579 40.3747L21.8879 40.1447L22.1579 40.0247C22.8419 39.7273 23.5095 39.3935 24.1579 39.0247L25.6879 38.2947L25.8279 38.6447C25.9879 39.0647 26.1579 39.4347 26.3079 39.7747C27.2779 41.9147 28.8979 44.2247 30.0079 44.3747Z" fill="black"/>
<path d="M50.6979 12.7947H50.5779H50.4479C50.2684 12.7962 50.0936 12.8525 49.9471 12.9562C49.8005 13.0599 49.6891 13.2059 49.6279 13.3747C49.5976 13.4737 49.5873 13.5777 49.5976 13.6807C49.6079 13.7837 49.6386 13.8837 49.6879 13.9747C49.7355 14.0741 49.8039 14.1622 49.8884 14.2329C49.9729 14.3036 50.0717 14.3554 50.1779 14.3847C50.257 14.4023 50.3389 14.4023 50.4179 14.3847C50.6104 14.3842 50.7966 14.3161 50.9439 14.1922C51.0912 14.0682 51.1902 13.8965 51.2236 13.7069C51.257 13.5173 51.2226 13.3221 51.1265 13.1553C51.0304 12.9885 50.8787 12.8609 50.6979 12.7947V12.7947Z" fill="black"/>
<path d="M55.0679 1.04488C55.1097 0.946882 55.1313 0.841432 55.1313 0.734883C55.1313 0.628334 55.1097 0.522885 55.0679 0.424882C54.9598 0.235427 54.7852 0.0928795 54.5779 0.0248843C54.3726 -0.0262315 54.1556 0.00201321 53.9702 0.103978C53.7848 0.205943 53.6447 0.374117 53.5779 0.574884L50.9579 8.86488C50.9273 8.96551 50.9169 9.07119 50.9272 9.17586C50.9375 9.28053 50.9683 9.38214 51.0179 9.47488C51.1128 9.65365 51.2691 9.79214 51.4579 9.86488H51.5579H51.7379C51.9123 9.86788 52.0829 9.81381 52.2237 9.71092C52.3645 9.60802 52.4678 9.46193 52.5179 9.29488L55.0679 1.04488Z" fill="black"/>
<path d="M11.4878 16.0547L5.86784 10.0547L0.237843 16.0547C0.162552 16.1283 0.102727 16.2161 0.061882 16.3132C0.0210373 16.4102 0 16.5144 0 16.6197C0 16.725 0.0210373 16.8292 0.061882 16.9262C0.102727 17.0232 0.162552 17.1111 0.237843 17.1847C0.382043 17.326 0.575963 17.405 0.777843 17.4047C0.888558 17.4029 0.997795 17.379 1.09912 17.3343C1.20045 17.2897 1.29182 17.2252 1.36784 17.1447L5.05784 13.1447V45.2447C5.05784 45.4569 5.14213 45.6603 5.29216 45.8104C5.44219 45.9604 5.64567 46.0447 5.85785 46.0447C6.07002 46.0447 6.2735 45.9604 6.42353 45.8104C6.57356 45.6603 6.65784 45.4569 6.65784 45.2447V13.1447L10.3378 17.1447C10.4139 17.2252 10.5052 17.2897 10.6066 17.3343C10.7079 17.379 10.8171 17.4029 10.9278 17.4047C11.1297 17.405 11.3236 17.326 11.4678 17.1847C11.5444 17.1125 11.6058 17.0256 11.6484 16.9293C11.691 16.833 11.7139 16.7292 11.7157 16.6239C11.7176 16.5186 11.6984 16.414 11.6593 16.3163C11.6201 16.2185 11.5618 16.1296 11.4878 16.0547Z" fill="black"/>
</svg>
