<svg width="66" height="55" viewBox="0 0 66 55" fill="none" xmlns="http://www.w3.org/2000/svg">
<path d="M20.1949 49.3201C19.06 49.2658 17.9522 48.9547 16.9549 48.4101C16.4449 48.1601 15.6749 47.8601 14.7849 47.5101C10.4849 45.8401 3.28491 43.0401 0.0949142 36.4501C0.0391209 36.3421 0.0116006 36.2217 0.0149162 36.1001V29.9201C0.0174414 29.7105 0.101175 29.5099 0.248509 29.3607C0.395843 29.2115 0.595296 29.1253 0.804917 29.1201C0.914917 29.1201 12.0549 28.9701 23.2049 29.1201C35.0149 29.2901 37.2049 42.6901 37.2049 42.8201C37.2217 42.9319 37.2144 43.046 37.1833 43.1547C37.1523 43.2634 37.0982 43.3641 37.0249 43.4501C36.9556 43.5383 36.8677 43.61 36.7674 43.6601C36.6671 43.7102 36.557 43.7376 36.4449 43.7401C26.3249 44.1901 23.0049 47.2801 22.0449 48.5801C22.0449 48.5801 21.9849 48.6701 21.9749 48.6701C21.743 48.9009 21.4637 49.0785 21.1563 49.1907C20.849 49.3029 20.521 49.3471 20.1949 49.3201ZM1.61491 35.9101C4.61491 41.8201 11.3149 44.4501 15.3649 46.0201C16.2849 46.3801 17.0849 46.6901 17.6649 47.0201C19.6049 48.0201 20.6649 47.7701 20.7949 47.6601C21.7949 46.2301 25.3549 42.8601 35.4549 42.2301C34.8049 39.4201 32.0949 30.8901 23.1849 30.7601C13.7649 30.6401 4.34491 30.7601 1.61491 30.7601V35.9101Z" fill="black"/>
<path d="M23.1047 47.2701C23.0283 47.2799 22.951 47.2799 22.8747 47.2701C22.3147 47.1101 9.05468 43.1501 0.204676 32.9501C0.133762 32.87 0.0793228 32.7767 0.0444624 32.6756C0.00960195 32.5744 -0.00499501 32.4674 0.00150509 32.3606C0.0080052 32.2538 0.0354751 32.1494 0.0823462 32.0532C0.129217 31.957 0.194569 31.871 0.274676 31.8001C0.354782 31.7292 0.448073 31.6748 0.549219 31.6399C0.650365 31.6051 0.757389 31.5905 0.864176 31.597C0.970963 31.6035 1.07542 31.6309 1.17159 31.6778C1.26777 31.7247 1.35376 31.79 1.42468 31.8701C9.96468 41.7001 23.2047 45.6701 23.3347 45.7101C23.5134 45.7685 23.6658 45.8878 23.7652 46.0473C23.8647 46.2068 23.9048 46.3962 23.8786 46.5823C23.8523 46.7685 23.7614 46.9394 23.6217 47.0652C23.482 47.1909 23.3025 47.2635 23.1147 47.2701H23.1047Z" fill="black"/>
<path d="M20.555 30.67H16.695C16.4828 30.67 16.2794 30.5857 16.1293 30.4357C15.9793 30.2857 15.895 30.0822 15.895 29.87V24.06C15.895 23.8478 15.9793 23.6444 16.1293 23.4943C16.2794 23.3443 16.4828 23.26 16.695 23.26H20.555C20.7672 23.26 20.9707 23.3443 21.1207 23.4943C21.2707 23.6444 21.355 23.8478 21.355 24.06V29.87C21.355 30.0822 21.2707 30.2857 21.1207 30.4357C20.9707 30.5857 20.7672 30.67 20.555 30.67V30.67ZM17.495 29.07H19.755V24.86H17.495V29.07Z" fill="black"/>
<path d="M55.0747 18.32H23.8947C21.8994 18.32 19.9856 17.5281 18.5738 16.1181C17.1619 14.7081 16.3674 12.7954 16.3647 10.8V10.06C16.3647 8.06295 17.1581 6.14766 18.5702 4.73552C19.9824 3.32337 21.8977 2.53003 23.8947 2.53003H55.0747C57.071 2.53268 58.9848 3.32686 60.3963 4.73844C61.8079 6.15001 62.6021 8.06376 62.6047 10.06V10.8C62.6021 12.7954 61.8076 14.7081 60.3957 16.1181C58.9839 17.5281 57.0701 18.32 55.0747 18.32ZM23.8947 4.12003C22.3228 4.12267 20.816 4.74829 19.7045 5.85981C18.593 6.97132 17.9674 8.47811 17.9647 10.05V10.8C17.9674 12.372 18.593 13.8787 19.7045 14.9903C20.816 16.1018 22.3228 16.7274 23.8947 16.73H55.0747C56.6467 16.7274 58.1535 16.1018 59.265 14.9903C60.3765 13.8787 61.0021 12.372 61.0047 10.8V10.06C61.0021 8.48811 60.3765 6.98133 59.265 5.86981C58.1535 4.75829 56.6467 4.13268 55.0747 4.13003L23.8947 4.12003Z" fill="black"/>
<path d="M24.4249 15.0301C23.5132 15.0301 22.6219 14.7597 21.8638 14.2531C21.1057 13.7466 20.5148 13.0266 20.1659 12.1842C19.8169 11.3419 19.7256 10.4149 19.9035 9.5207C20.0814 8.62644 20.5205 7.80502 21.1652 7.1603C21.8099 6.51558 22.6313 6.07652 23.5256 5.89864C24.4198 5.72076 25.3467 5.81206 26.1891 6.16098C27.0315 6.5099 27.7515 7.10077 28.258 7.85888C28.7646 8.61699 29.0349 9.50829 29.0349 10.4201C29.0349 11.6427 28.5493 12.8153 27.6847 13.6798C26.8202 14.5444 25.6476 15.0301 24.4249 15.0301V15.0301ZM24.4249 7.41006C23.8316 7.41006 23.2516 7.58601 22.7582 7.91565C22.2649 8.2453 21.8804 8.71383 21.6533 9.26201C21.4262 9.81019 21.3668 10.4134 21.4826 10.9953C21.5983 11.5773 21.8841 12.1118 22.3036 12.5314C22.7232 12.9509 23.2577 13.2367 23.8397 13.3524C24.4216 13.4682 25.0248 13.4088 25.573 13.1817C26.1212 12.9546 26.5897 12.5701 26.9194 12.0768C27.249 11.5834 27.4249 11.0034 27.4249 10.4101C27.4249 9.61441 27.1089 8.85135 26.5463 8.28874C25.9837 7.72613 25.2206 7.41006 24.4249 7.41006V7.41006Z" fill="black"/>
<path d="M54.7846 15.03C53.8741 15.024 52.9858 14.7486 52.2316 14.2385C51.4775 13.7284 50.8913 13.0063 50.547 12.1634C50.2026 11.3206 50.1156 10.3946 50.2969 9.50235C50.4781 8.61008 50.9195 7.79147 51.5654 7.14974C52.2113 6.50802 53.0328 6.07193 53.9262 5.89647C54.8196 5.72101 55.745 5.81404 56.5856 6.16382C57.4262 6.51361 58.1445 7.10448 58.6497 7.86193C59.1549 8.61938 59.4246 9.50947 59.4246 10.42C59.4233 11.0275 59.3022 11.6288 59.0681 12.1895C58.8341 12.7502 58.4918 13.2592 58.0608 13.6874C57.6298 14.1156 57.1186 14.4546 56.5564 14.685C55.9942 14.9154 55.3921 15.0326 54.7846 15.03ZM54.7846 7.40996C54.1912 7.40996 53.6112 7.58591 53.1179 7.91556C52.6245 8.2452 52.24 8.71373 52.013 9.26191C51.7859 9.81009 51.7265 10.4133 51.8422 10.9952C51.958 11.5772 52.2437 12.1117 52.6633 12.5313C53.0828 12.9508 53.6174 13.2366 54.1993 13.3523C54.7813 13.4681 55.3845 13.4087 55.9326 13.1816C56.4808 12.9545 56.9494 12.57 57.279 12.0767C57.6086 11.5833 57.7846 11.0033 57.7846 10.41C57.7846 9.61431 57.4685 8.85125 56.9059 8.28864C56.3433 7.72603 55.5802 7.40996 54.7846 7.40996V7.40996Z" fill="black"/>
<path d="M53.9148 50.9H42.4948C42.2827 50.9 42.0792 50.8157 41.9291 50.6657C41.7791 50.5156 41.6948 50.3121 41.6948 50.1V17.52C41.6948 17.3078 41.7791 17.1043 41.9291 16.9543C42.0792 16.8043 42.2827 16.72 42.4948 16.72H53.9148C54.127 16.72 54.3305 16.8043 54.4805 16.9543C54.6305 17.1043 54.7148 17.3078 54.7148 17.52V50.1C54.7148 50.3121 54.6305 50.5156 54.4805 50.6657C54.3305 50.8157 54.127 50.9 53.9148 50.9V50.9ZM43.2948 49.3H53.1148V18.3H43.2948V49.3Z" fill="black"/>
<path d="M58.475 54.6001H37.945C37.8031 54.5986 37.664 54.5598 37.5418 54.4877C37.4195 54.4155 37.3184 54.3125 37.2485 54.1889C37.1786 54.0654 37.1424 53.9256 37.1436 53.7836C37.1447 53.6417 37.1832 53.5025 37.255 53.3801L39.505 49.6801C39.5751 49.5627 39.6748 49.4658 39.7942 49.3992C39.9135 49.3325 40.0483 49.2983 40.185 49.3001H56.185C56.3229 49.2995 56.4586 49.3341 56.5793 49.4006C56.7001 49.4671 56.8018 49.5633 56.875 49.6801L59.125 53.3801C59.1969 53.5025 59.2353 53.6417 59.2364 53.7836C59.2376 53.9256 59.2014 54.0654 59.1315 54.1889C59.0616 54.3125 58.9605 54.4155 58.8383 54.4877C58.716 54.5598 58.577 54.5986 58.435 54.6001H58.475ZM39.365 53.0001H57.055L55.775 50.9001H40.635L39.365 53.0001Z" fill="black"/>
<path d="M65.035 54.6H31.425C31.2128 54.6 31.0093 54.5157 30.8593 54.3657C30.7093 54.2157 30.625 54.0122 30.625 53.8C30.625 53.5878 30.7093 53.3843 30.8593 53.2343C31.0093 53.0843 31.2128 53 31.425 53H65.085C65.2972 53 65.5007 53.0843 65.6507 53.2343C65.8007 53.3843 65.885 53.5878 65.885 53.8C65.885 54.0122 65.8007 54.2157 65.6507 54.3657C65.5007 54.5157 65.2972 54.6 65.085 54.6H65.035Z" fill="black"/>
<path d="M23.8948 18.32H23.6948V23.27H13.5648V1.6H23.6948V2.53H25.2948V0.799999C25.2948 0.587826 25.2106 0.384343 25.0605 0.234314C24.9105 0.0842849 24.707 0 24.4948 0H12.7648C12.5527 0 12.3492 0.0842849 12.1992 0.234314C12.0491 0.384343 11.9648 0.587826 11.9648 0.799999V24.06C11.9648 24.2722 12.0491 24.4757 12.1992 24.6257C12.3492 24.7757 12.5527 24.86 12.7648 24.86H24.4948C24.707 24.86 24.9105 24.7757 25.0605 24.6257C25.2106 24.4757 25.2948 24.2722 25.2948 24.06V18.32H23.8948Z" fill="black"/>
</svg>
