<svg width="44" height="56" viewBox="0 0 44 56" fill="none" xmlns="http://www.w3.org/2000/svg">
<path d="M27.1541 38.8004C26.8793 38.8003 26.6049 38.7769 26.3341 38.7304C24.3341 38.4404 23.1041 36.9104 22.7541 34.4204C22.7236 34.2016 22.7812 33.9796 22.9144 33.8033C23.0475 33.6271 23.2453 33.5109 23.4641 33.4804C23.6829 33.4499 23.9048 33.5076 24.0811 33.6407C24.2574 33.7739 24.3736 33.9716 24.4041 34.1904C24.6541 35.9304 25.4041 36.9004 26.5841 37.0804C27.0118 37.2104 27.4707 37.1934 27.8876 37.0321C28.3045 36.8708 28.6553 36.5744 28.8841 36.1904C29.0167 36.0087 29.216 35.8872 29.4383 35.8525C29.6605 35.8178 29.8874 35.8728 30.0691 36.0054C30.2507 36.138 30.3723 36.3373 30.407 36.5596C30.4417 36.7818 30.3867 37.0087 30.2541 37.1904C29.9229 37.706 29.4624 38.126 28.9186 38.4084C28.3747 38.6909 27.7664 38.826 27.1541 38.8004Z" fill="black"/>
<path d="M30.3245 32.5006C30.1135 32.4986 29.9109 32.4173 29.7571 32.2727C29.6033 32.1282 29.5096 31.9311 29.4945 31.7206C29.4727 31.2025 29.375 30.6903 29.2045 30.2006C28.5566 28.7574 28.1966 27.2017 28.1445 25.6206C28.0048 23.4442 27.6498 21.287 27.0845 19.1806C26.7517 17.7224 26.5608 16.2355 26.5145 14.7406C26.2078 16.4192 26.0738 18.1247 26.1145 19.8306C26.179 21.8378 26.0551 23.8465 25.7445 25.8306C25.5986 26.8148 25.3264 27.776 24.9345 28.6906C24.8315 28.8703 24.6657 29.0056 24.469 29.0706C24.2723 29.1355 24.0585 29.1254 23.8688 29.0423C23.679 28.9593 23.5267 28.809 23.441 28.6204C23.3553 28.4318 23.3423 28.2182 23.4045 28.0206C23.7341 27.2346 23.9691 26.4121 24.1045 25.5706C24.3756 23.6935 24.476 21.7958 24.4045 19.9006C24.2045 14.3606 26.6945 7.02059 26.7945 6.67059C26.8613 6.46982 27.0014 6.30165 27.1868 6.19968C27.3722 6.09772 27.5892 6.06947 27.7945 6.12059C27.9886 6.17022 28.1577 6.28915 28.2701 6.45496C28.3825 6.62076 28.4303 6.82196 28.4045 7.02059C28.4045 7.10059 27.6345 14.5206 28.6945 18.7706C29.2873 20.9952 29.6591 23.2729 29.8045 25.5706C29.8429 26.9507 30.1521 28.3097 30.7145 29.5706C30.9612 30.2389 31.1094 30.9396 31.1545 31.6506C31.1682 31.8718 31.094 32.0896 30.9478 32.2563C30.8017 32.423 30.5957 32.5252 30.3745 32.5406L30.3245 32.5006Z" fill="black"/>
<path d="M30.5545 55.0206H22.7945C21.9702 54.9615 21.2023 54.5798 20.6576 53.9583C20.1128 53.3368 19.8351 52.5256 19.8845 51.7006V35.9606C19.8717 35.8432 19.8837 35.7245 19.9198 35.6121C19.9559 35.4998 20.0153 35.3963 20.0941 35.3084C20.1728 35.2205 20.2693 35.1502 20.377 35.1021C20.4848 35.0539 20.6015 35.0291 20.7195 35.0291C20.8376 35.0291 20.9543 35.0539 21.0621 35.1021C21.1698 35.1502 21.2663 35.2205 21.345 35.3084C21.4238 35.3963 21.4832 35.4998 21.5193 35.6121C21.5554 35.7245 21.5674 35.8432 21.5545 35.9606V51.7006C21.5545 52.5906 22.1245 53.3506 22.7945 53.3506H30.5545C31.2345 53.3506 31.7945 52.5906 31.7945 51.7006V40.2606C31.7945 40.0378 31.883 39.8241 32.0406 39.6666C32.1981 39.5091 32.4118 39.4206 32.6345 39.4206C32.8573 39.4206 33.071 39.5091 33.2285 39.6666C33.386 39.8241 33.4745 40.0378 33.4745 40.2606V51.7006C33.5239 52.5272 33.2448 53.3398 32.6979 53.9616C32.1511 54.5834 31.3807 54.964 30.5545 55.0206Z" fill="black"/>
<path d="M29.4845 51.6204C29.2626 51.6178 29.0504 51.5285 28.8934 51.3715C28.7365 51.2146 28.6471 51.0024 28.6445 50.7804V49.3004C28.6471 49.0785 28.7365 48.8663 28.8934 48.7094C29.0504 48.5524 29.2626 48.463 29.4845 48.4604C29.7056 48.4631 29.9167 48.5527 30.0721 48.71C30.2274 48.8672 30.3146 49.0794 30.3145 49.3004V50.7804C30.3146 51.0015 30.2274 51.2137 30.0721 51.3709C29.9167 51.5282 29.7056 51.6178 29.4845 51.6204Z" fill="black"/>
<path d="M29.4845 45.2005C29.2618 45.2005 29.0481 45.112 28.8906 44.9545C28.733 44.797 28.6445 44.5833 28.6445 44.3605V42.8805C28.6472 42.6595 28.7368 42.4484 28.8941 42.293C29.0513 42.1376 29.2635 42.0505 29.4845 42.0505C29.7047 42.0505 29.9158 42.138 30.0714 42.2936C30.2271 42.4493 30.3145 42.6604 30.3145 42.8805V44.3605C30.3159 44.4704 30.2954 44.5794 30.2542 44.6812C30.2131 44.7831 30.1522 44.8758 30.075 44.9539C29.9978 45.032 29.9058 45.0941 29.8045 45.1364C29.7031 45.1787 29.5944 45.2005 29.4845 45.2005Z" fill="black"/>
<path d="M26.4044 48.0206C26.1817 48.0206 25.968 47.9321 25.8105 47.7746C25.6529 47.617 25.5645 47.4034 25.5645 47.1806V45.7006C25.5671 45.4796 25.6567 45.2685 25.814 45.1131C25.9712 44.9577 26.1834 44.8706 26.4044 44.8706C26.6246 44.8706 26.8357 44.9581 26.9913 45.1137C27.147 45.2694 27.2345 45.4805 27.2345 45.7006V47.1806C27.2358 47.2904 27.2153 47.3994 27.1742 47.5013C27.133 47.6032 27.0721 47.6958 26.9949 47.774C26.9177 47.8521 26.8258 47.9141 26.7244 47.9565C26.623 47.9988 26.5143 48.0206 26.4044 48.0206Z" fill="black"/>
<path d="M37.7641 40.0205C37.4808 40.0201 37.1997 39.9693 36.9341 39.8705L17.2741 32.3905C14.6206 31.3809 12.2247 29.7939 10.26 27.7444C8.29529 25.695 6.81084 23.2343 5.91414 20.5405L0.0241383 1.10049C-0.0264894 0.893879 0.00315824 0.675752 0.107097 0.490148C0.211035 0.304544 0.381523 0.165288 0.58414 0.100492C0.789613 0.0443271 1.00888 0.0703208 1.19552 0.172975C1.38217 0.275629 1.52154 0.446886 1.58414 0.650491L7.50414 20.0205C8.32292 22.4785 9.67817 24.7237 11.4717 26.5934C13.2653 28.463 15.4522 29.9103 17.8741 30.8305L37.5241 38.3405C37.6239 38.3791 37.7315 38.3929 37.8378 38.3807C37.944 38.3685 38.0457 38.3307 38.1341 38.2705C38.2213 38.2101 38.2924 38.1294 38.3412 38.0353C38.39 37.9411 38.4151 37.8365 38.4141 37.7305C38.4136 37.6124 38.3819 37.4966 38.3222 37.3948C38.2624 37.2929 38.1769 37.2086 38.0741 37.1505L20.5541 27.5905C16.1369 25.1879 12.8481 21.137 11.4041 16.3205L7.29414 1.07049C7.25367 0.861496 7.29406 0.644933 7.40715 0.464578C7.52023 0.284223 7.69757 0.153529 7.90332 0.0989164C8.10907 0.0443036 8.32788 0.0698436 8.51552 0.170377C8.70317 0.270911 8.84563 0.438937 8.91414 0.640489L12.9941 15.8505C14.3273 20.2522 17.3517 23.9455 21.4041 26.1205L38.9241 35.6905C39.2841 35.8763 39.5891 36.1532 39.8088 36.4935C40.0285 36.8338 40.1553 37.2257 40.1765 37.6303C40.1977 38.0348 40.1127 38.4378 39.9298 38.7993C39.7469 39.1607 39.4726 39.468 39.1341 39.6905C38.7217 39.9374 38.2438 40.0526 37.7641 40.0205Z" fill="black"/>
<path d="M41.4041 38.2605C41.1197 38.2615 40.8377 38.2072 40.5741 38.1005L38.4041 37.3005C38.3015 37.2626 38.2074 37.2049 38.1272 37.1305C38.0469 37.0562 37.9822 36.9668 37.9367 36.8673C37.8911 36.7679 37.8657 36.6604 37.8618 36.5512C37.858 36.4419 37.8757 36.3329 37.9141 36.2305C37.9926 36.0225 38.1504 35.8542 38.3529 35.7623C38.5553 35.6705 38.7859 35.6626 38.9941 35.7405L41.1141 36.5405C41.2138 36.5791 41.3215 36.5929 41.4277 36.5807C41.534 36.5685 41.6357 36.5307 41.7241 36.4705C41.8164 36.4075 41.8909 36.3217 41.9403 36.2216C41.9898 36.1214 42.0127 36.0101 42.0066 35.8986C42.0006 35.787 41.9659 35.6789 41.9059 35.5846C41.8459 35.4904 41.7626 35.4132 41.6641 35.3605L32.5441 30.3605C32.4476 30.304 32.3631 30.2291 32.2956 30.14C32.228 30.0509 32.1786 29.9493 32.1503 29.8411C32.122 29.733 32.1153 29.6203 32.1305 29.5095C32.1457 29.3987 32.1826 29.292 32.2391 29.1955C32.2956 29.0989 32.3705 29.0145 32.4596 28.9469C32.5487 28.8794 32.6503 28.83 32.7584 28.8017C32.8666 28.7734 32.9793 28.7666 33.0901 28.7819C33.2009 28.7971 33.3076 28.834 33.4041 28.8905L42.5141 33.8905C42.8717 34.0784 43.1742 34.3561 43.3921 34.6962C43.6099 35.0364 43.7356 35.4274 43.7568 35.8307C43.778 36.2341 43.6939 36.6361 43.5129 36.9972C43.3318 37.3583 43.06 37.6661 42.7241 37.8905C42.3304 38.1417 41.871 38.2705 41.4041 38.2605Z" fill="black"/>
<path d="M21.4641 23.7804C21.2676 23.7814 21.0767 23.7143 20.9241 23.5904C18.1156 21.2012 16.0508 18.057 14.9741 14.5304L11.6641 1.02042C11.6182 0.807305 11.6558 0.584682 11.7694 0.398566C11.8829 0.21245 12.0636 0.0770707 12.2741 0.020415C12.4888 -0.0277942 12.7138 0.0101492 12.9008 0.126086C13.0878 0.242023 13.2219 0.426696 13.2741 0.640414L16.5841 14.0204C17.5629 17.2355 19.4483 20.0999 22.0141 22.2704C22.1417 22.383 22.2322 22.5316 22.2735 22.6967C22.3147 22.8617 22.3049 23.0354 22.2453 23.1948C22.1857 23.3542 22.079 23.4916 21.9396 23.5891C21.8001 23.6865 21.6343 23.7393 21.4641 23.7404V23.7804Z" fill="black"/>
<path d="M17.5743 32.4405C17.3931 32.4386 17.2173 32.3781 17.0732 32.2681C16.9292 32.158 16.8246 32.0043 16.7751 31.8299C16.7256 31.6556 16.7338 31.4698 16.7986 31.3005C16.8633 31.1312 16.9811 30.9874 17.1343 30.8905L19.7044 29.3305C19.7982 29.2618 19.9054 29.2133 20.019 29.1881C20.1326 29.1629 20.2502 29.1616 20.3643 29.1843C20.4784 29.207 20.5866 29.2531 20.682 29.3198C20.7773 29.3864 20.8578 29.4722 20.9183 29.5716C20.9788 29.671 21.0179 29.7819 21.0333 29.8973C21.0487 30.0126 21.0399 30.1299 21.0076 30.2416C20.9752 30.3534 20.92 30.4573 20.8455 30.5466C20.7709 30.6359 20.6786 30.7087 20.5743 30.7605L18.0043 32.3205C17.8749 32.3995 17.726 32.441 17.5743 32.4405Z" fill="black"/>
<path d="M14.4044 30.5105C14.2232 30.5086 14.0474 30.4481 13.9033 30.3381C13.7593 30.228 13.6547 30.0743 13.6052 29.8999C13.5557 29.7255 13.5639 29.5398 13.6287 29.3705C13.6934 29.2012 13.8112 29.0574 13.9644 28.9605L16.5344 27.4005C16.7227 27.2851 16.9492 27.2493 17.1639 27.3009C17.3786 27.3524 17.5641 27.4872 17.6794 27.6755C17.7948 27.8638 17.8306 28.0902 17.7791 28.3049C17.7275 28.5197 17.5927 28.7051 17.4044 28.8205L14.8344 30.3905C14.705 30.4695 14.5561 30.511 14.4044 30.5105Z" fill="black"/>
<path d="M21.3044 33.6304C21.1617 33.6304 21.0213 33.5936 20.897 33.5235C20.7726 33.4535 20.6684 33.3525 20.5944 33.2304C20.4799 33.0405 20.445 32.8131 20.4975 32.5977C20.5499 32.3823 20.6854 32.1963 20.8744 32.0804L23.4044 30.5204C23.4973 30.4626 23.6008 30.4239 23.7088 30.4067C23.8168 30.3895 23.9272 30.3941 24.0334 30.4202C24.1397 30.4462 24.2396 30.4933 24.3274 30.5586C24.4151 30.6239 24.4889 30.7061 24.5444 30.8004C24.6599 30.989 24.6963 31.2156 24.6457 31.4309C24.5952 31.6462 24.4618 31.8328 24.2744 31.9504L21.7044 33.5104C21.5827 33.5819 21.4455 33.6231 21.3044 33.6304Z" fill="black"/>
</svg>
