<svg width="53" height="56" viewBox="0 0 53 56" fill="none" xmlns="http://www.w3.org/2000/svg">
<path d="M29.8713 49.0495C29.7681 49.0634 29.6689 49.098 29.5795 49.1513C29.4901 49.2046 29.4125 49.2754 29.3513 49.3595C28.8313 50.0595 28.4213 50.7395 28.0513 51.3595C27.2213 52.7495 26.7513 53.4795 26.0513 53.4795C25.3513 53.4795 24.6713 52.6095 23.6713 51.0495C23.3613 50.5295 23.0413 49.9795 22.6713 49.4095C22.5443 49.2512 22.3624 49.1464 22.1618 49.1157C21.9612 49.0851 21.7564 49.1309 21.5879 49.244C21.4194 49.3572 21.2995 49.5295 21.252 49.7268C21.2045 49.9241 21.2328 50.1321 21.3313 50.3095C21.6813 50.8295 21.9913 51.3095 22.3313 51.8895C23.3313 53.5595 24.2313 55.1295 26.0213 55.1295C27.8113 55.1295 28.5513 53.7295 29.4413 52.2295C29.8113 51.6295 30.1813 51.0095 30.6413 50.3895C30.7072 50.3057 30.7555 50.2094 30.7832 50.1064C30.8109 50.0035 30.8175 49.8959 30.8025 49.7904C30.7876 49.6848 30.7514 49.5833 30.6962 49.4921C30.641 49.4008 30.5679 49.3217 30.4813 49.2595C30.4001 49.1836 30.3038 49.1256 30.1987 49.0894C30.0936 49.0532 29.982 49.0396 29.8713 49.0495Z" fill="black"/>
<path d="M1.73143 21.2695C1.84143 21.1395 2.25143 21.1694 2.80143 21.4794C2.89215 21.534 2.99314 21.5693 3.0981 21.583C3.20305 21.5968 3.30972 21.5888 3.41143 21.5595C3.51462 21.5318 3.61122 21.4838 3.69555 21.4182C3.77987 21.3526 3.8502 21.2708 3.90239 21.1776C3.95459 21.0844 3.98759 20.9817 3.99945 20.8755C4.0113 20.7693 4.00178 20.6619 3.97143 20.5594C3.94491 20.4588 3.8985 20.3645 3.83496 20.282C3.77141 20.1996 3.69201 20.1307 3.60143 20.0794C2.34143 19.3594 1.18143 19.4094 0.501435 20.2194C-0.818565 21.7894 0.501432 25.2994 4.06143 29.6194C4.13932 29.7104 4.23595 29.7834 4.34469 29.8334C4.45344 29.8835 4.57172 29.9094 4.69143 29.9095C4.87611 29.9045 5.05454 29.8415 5.20143 29.7295C5.36489 29.5914 5.46788 29.3948 5.48843 29.1818C5.50899 28.9688 5.44547 28.7563 5.31143 28.5895C1.30143 23.7395 1.46143 21.5795 1.73143 21.2695Z" fill="black"/>
<path d="M51.8415 20.2295C51.1615 19.4195 50.0015 19.3695 48.7415 20.0895C48.5583 20.1952 48.4224 20.3669 48.3615 20.5695C48.3121 20.7757 48.3405 20.9929 48.4415 21.1795C48.4942 21.2719 48.5646 21.353 48.6487 21.4182C48.7328 21.4834 48.8289 21.5314 48.9315 21.5595C49.0332 21.5888 49.1399 21.5968 49.2449 21.583C49.3498 21.5693 49.4508 21.534 49.5415 21.4795C50.0915 21.1695 50.5415 21.1395 50.6115 21.2695C50.8815 21.5795 51.0415 23.7395 47.0315 28.5995C46.8998 28.7667 46.8355 28.9772 46.8515 29.1895C46.8691 29.3893 46.961 29.5752 47.1092 29.7104C47.2574 29.8456 47.4509 29.9202 47.6515 29.9195C47.7712 29.9194 47.8895 29.8935 47.9983 29.8434C48.107 29.7934 48.2036 29.7204 48.2815 29.6295C51.8315 25.3095 53.1615 21.7995 51.8415 20.2295Z" fill="black"/>
<path d="M21.2116 45.9896C21.1158 45.7996 20.9513 45.6531 20.7516 45.5796C19.1278 45.0316 17.6264 44.1723 16.3316 43.0496C16.1702 42.9126 15.9615 42.8442 15.7503 42.8592C15.5391 42.8742 15.3421 42.9712 15.2016 43.1296C15.064 43.2927 14.9954 43.503 15.0103 43.7158C15.0253 43.9287 15.1226 44.1273 15.2816 44.2696C16.7484 45.5315 18.4466 46.4961 20.2816 47.1096C20.368 47.12 20.4553 47.12 20.5416 47.1096C20.6776 47.1078 20.811 47.0718 20.9295 47.005C21.0479 46.9381 21.1476 46.8424 21.2194 46.7268C21.2911 46.6112 21.3326 46.4795 21.34 46.3436C21.3474 46.2078 21.3204 46.0723 21.2616 45.9496L21.2116 45.9896Z" fill="black"/>
<path d="M32.1115 47.1095C33.9466 46.496 35.6448 45.5314 37.1115 44.2695C37.2712 44.1284 37.3713 43.9317 37.3915 43.7195C37.404 43.5043 37.3322 43.2928 37.1915 43.1295C37.1214 43.0436 37.0344 42.9731 36.9359 42.9222C36.8374 42.8713 36.7295 42.8411 36.6188 42.8336C36.5082 42.8261 36.3972 42.8414 36.2928 42.8786C36.1883 42.9157 36.0926 42.9739 36.0115 43.0495C34.7167 44.1722 33.2153 45.0316 31.5915 45.5795C31.4146 45.6446 31.2658 45.7693 31.171 45.9323C31.0762 46.0952 31.0411 46.2861 31.0719 46.4721C31.1027 46.6581 31.1974 46.8275 31.3397 46.9512C31.482 47.0748 31.663 47.145 31.8515 47.1495C31.9395 47.1467 32.0268 47.1333 32.1115 47.1095Z" fill="black"/>
<path d="M41.2213 5.81964C37.1033 2.07499 31.7373 0 26.1713 0C20.6053 0 15.2393 2.07499 11.1213 5.81964C7.12131 9.43964 4.84131 14.1596 4.84131 18.7596C4.84131 23.7096 6.38131 32.1296 7.84131 37.8896C8.57391 40.9007 10.0048 43.697 12.0182 46.0527C14.0316 48.4083 16.5711 50.2571 19.4313 51.4496C19.624 51.5161 19.8347 51.5066 20.0205 51.4229C20.2064 51.3393 20.3533 51.1879 20.4313 50.9996C20.5114 50.8007 20.5114 50.5786 20.4313 50.3796C20.3424 50.1859 20.1807 50.035 19.9813 49.9596C17.3728 48.8473 15.0614 47.1388 13.2327 44.9715C11.404 42.8041 10.1088 40.2381 9.45131 37.4796C9.18131 36.4796 8.91131 35.2996 8.64131 34.1196V33.9096C8.64131 33.7096 8.55131 33.5196 8.51131 33.3096L8.08131 31.1696C7.92798 30.423 7.78798 29.683 7.66131 28.9496V28.8396C7.02044 25.5249 6.64591 22.1642 6.54131 18.7896C6.54131 10.6896 14.9713 1.63964 26.2613 1.63964C37.5513 1.63964 45.9813 10.6396 45.9813 18.7896C45.808 22.7924 45.3165 26.7749 44.5113 30.6996V30.8396C44.5113 30.9496 44.5113 31.0596 44.4413 31.1796L43.9513 33.5796L43.8613 34.0096V34.1296C43.5513 35.5296 43.2613 36.6996 43.0313 37.4496C41.1213 43.6496 37.0313 48.2696 31.9313 50.1396C31.7391 50.214 31.5825 50.3588 31.4933 50.5446C31.4041 50.7304 31.3891 50.9432 31.4513 51.1396C31.5098 51.2943 31.6136 51.4277 31.7493 51.5223C31.8849 51.6169 32.046 51.6682 32.2113 51.6696C32.3007 51.6839 32.3919 51.6839 32.4813 51.6696C38.1013 49.6696 42.4813 44.6696 44.5713 37.9496C45.5713 34.5896 47.6313 23.8296 47.6313 18.7896C47.5013 14.1596 45.2113 9.43964 41.2213 5.81964Z" fill="black"/>
<path d="M7.20117 31.3196C7.47492 31.7305 7.8125 32.0951 8.20117 32.3996" stroke="black" stroke-width="1.6" stroke-linecap="round" stroke-linejoin="round"/>
<path d="M10.7915 32.1894C12.1815 30.8494 12.5215 27.9794 14.4515 27.5494C17.7915 26.8094 20.9815 30.3894 26.1715 30.3694C31.5415 30.3694 34.4215 26.7094 37.6815 27.2494C40.9415 27.7894 39.8615 32.1594 42.6815 32.8394" stroke="black" stroke-width="1.6" stroke-linecap="round" stroke-linejoin="round" stroke-dasharray="2.83 2.83"/>
<path d="M44.0215 32.6594C44.4201 32.3503 44.705 31.9178 44.8315 31.4294" stroke="black" stroke-width="1.6" stroke-linecap="round" stroke-linejoin="round"/>
</svg>
