<svg width="53" height="56" viewBox="0 0 53 56" fill="none" xmlns="http://www.w3.org/2000/svg">
<path d="M26.5101 51.0622C29.8801 51.0622 32.6201 47.9422 32.6201 44.0622C32.6251 42.6873 32.2589 41.3364 31.5601 40.1522L31.2701 39.6822C30.4219 38.5735 30.0029 37.1955 30.0901 35.8022C30.865 23.2708 35.395 11.263 43.0901 1.34224C43.2137 1.17654 43.2719 0.971076 43.2535 0.765173C43.2351 0.559271 43.1414 0.367388 42.9903 0.226248C42.8393 0.085108 42.6415 0.00462226 42.4348 0.000193006C42.2282 -0.00423625 42.0271 0.0677027 41.8701 0.202242C32.2001 9.06224 25.9701 21.2022 23.3701 36.2022C23.1626 37.3653 22.6942 38.4662 22.0001 39.4222C21.8501 39.6522 21.7001 39.8822 21.5601 40.1222C20.8272 41.3267 20.4461 42.7124 20.4601 44.1222C20.4101 47.9322 23.1501 51.0622 26.5101 51.0622ZM28.4201 35.7622C28.3106 37.4938 28.8172 39.2083 29.8501 40.6022L30.1301 41.0622C30.6826 41.9667 30.983 43.0025 31.0001 44.0622C31.0001 46.9822 29.0001 49.3422 26.5601 49.3422C24.1201 49.3422 22.0801 47.0622 22.0801 44.0622C22.0706 42.9701 22.3649 41.8968 22.9301 40.9622L23.3301 40.3422C24.1637 39.2014 24.7341 37.8899 25.0001 36.5022C26.8201 26.0622 30.4301 17.0622 35.7501 9.64224C31.4755 17.7243 28.9764 26.6263 28.4201 35.7522V35.7622Z" fill="black"/>
<path d="M52.16 35.9623H36.38C35.9131 35.9595 35.4542 36.0825 35.0512 36.3183C34.6483 36.554 34.3162 36.894 34.09 37.3023C33.847 37.7107 33.7187 38.1771 33.7187 38.6523C33.7187 39.1276 33.847 39.594 34.09 40.0023C34.8949 41.3518 35.3277 42.8904 35.3445 44.4616C35.3612 46.0327 34.9613 47.5802 34.1854 48.9465C33.4094 50.3128 32.2853 51.449 30.9273 52.2395C29.5694 53.0299 28.0262 53.4463 26.455 53.4463C24.8838 53.4463 23.3406 53.0299 21.9827 52.2395C20.6247 51.449 19.5006 50.3128 18.7246 48.9465C17.9487 47.5802 17.5488 46.0327 17.5655 44.4616C17.5823 42.8904 18.0151 41.3518 18.82 40.0023C19.0658 39.5913 19.1956 39.1213 19.1956 38.6423C19.1956 38.1634 19.0658 37.6934 18.82 37.2823C18.5941 36.8766 18.2633 36.5391 17.8621 36.3051C17.461 36.0711 17.0044 35.9493 16.54 35.9523H0.84C0.617218 35.9523 0.403559 36.0408 0.246029 36.1984C0.0884983 36.3559 0 36.5696 0 36.7924C0 37.0151 0.0884983 37.2288 0.246029 37.3863C0.403559 37.5438 0.617218 37.6323 0.84 37.6323H16.62C16.7889 37.6294 16.9554 37.6726 17.1016 37.7571C17.2479 37.8417 17.3683 37.9645 17.45 38.1124C17.5378 38.2644 17.584 38.4368 17.584 38.6124C17.584 38.7879 17.5378 38.9603 17.45 39.1124C16.5178 40.6703 16.0035 42.4425 15.9568 44.2574C15.91 46.0723 16.3324 47.8686 17.1832 49.4725C18.0339 51.0764 19.2841 52.4336 20.8129 53.4128C22.3417 54.3921 24.0973 54.9603 25.91 55.0623H26.51C28.3802 55.0639 30.2172 54.5689 31.8333 53.6277C33.4494 52.6865 34.7866 51.3331 35.7081 49.7057C36.6296 48.0783 37.1024 46.2354 37.0781 44.3653C37.0539 42.4953 36.5334 40.6653 35.57 39.0623C35.4822 38.9103 35.436 38.7379 35.436 38.5623C35.436 38.3868 35.4822 38.2144 35.57 38.0623C35.6509 37.9138 35.7711 37.7904 35.9175 37.7057C36.064 37.621 36.2309 37.5783 36.4 37.5823H52.16C52.3828 37.5823 52.5964 37.4938 52.754 37.3363C52.9115 37.1788 53 36.9651 53 36.7423C53 36.5196 52.9115 36.3059 52.754 36.1484C52.5964 35.9908 52.3828 35.9023 52.16 35.9023V35.9623Z" fill="black"/>
</svg>
