<svg width="62" height="42" viewBox="0 0 62 42" fill="none" xmlns="http://www.w3.org/2000/svg">
<path d="M1.59588 32.1678C1.59588 32.1678 6.97588 24.9278 23.2159 34.8578C39.4559 44.7878 46.4759 39.9278 49.3859 33.9278C49.3859 33.9278 23.8359 17.5878 14.9459 26.2778C14.9459 26.2778 -3.29412 29.5078 1.94588 36.2778C5.66588 41.1378 17.5559 32.1378 17.5559 32.1378" stroke="black" stroke-width="1.6" stroke-linecap="round" stroke-linejoin="round"/>
<path d="M14.9463 26.2778C14.9463 26.2778 15.6663 4.13778 36.7663 2.37778C36.7663 2.37778 38.5263 -0.722222 40.7663 2.37778C40.7663 2.37778 67.7663 6.75778 59.2863 34.2378C59.2863 34.2378 58.4563 36.7178 49.3563 33.9278" stroke="black" stroke-width="1.6" stroke-linecap="round" stroke-linejoin="round"/>
<path d="M43.4761 3.0979C43.4761 3.0979 55.5861 12.9479 50.9461 28.5679" stroke="black" stroke-width="1.6" stroke-linecap="round" stroke-linejoin="round"/>
<path d="M36.766 2.37793C33.6498 3.98154 30.9549 6.29643 28.8997 9.13519C26.8445 11.974 25.4866 15.2568 24.936 18.7179" stroke="black" stroke-width="1.6" stroke-linecap="round" stroke-linejoin="round"/>
</svg>
