<svg width="46" height="57" viewBox="0 0 46 57" fill="none" xmlns="http://www.w3.org/2000/svg">
<path d="M30.7703 52.8399H4.19025C3.34687 52.8399 2.53802 52.5049 1.94165 51.9085C1.34529 51.3122 1.01025 50.5033 1.01025 49.6599V22.9999C1.01025 21.3582 1.66241 19.7838 2.82327 18.6229C3.98412 17.4621 5.55857 16.8099 7.20026 16.8099H9.57026V10.9199" stroke="black" stroke-width="1.6" stroke-linecap="round" stroke-linejoin="round"/>
<path d="M26.25 10.9199V16.7799H28.62C29.4359 16.7799 30.2437 16.9409 30.9973 17.2538C31.7508 17.5666 32.4352 18.0251 33.0112 18.6029C33.5871 19.1808 34.0434 19.8666 34.3538 20.6211C34.6642 21.3757 34.8226 22.184 34.82 22.9999V30.2999" stroke="black" stroke-width="1.6" stroke-linecap="round" stroke-linejoin="round"/>
<path d="M32.1104 10.9199L3.26035 10.9199V7.77992C3.26032 5.98866 3.96914 4.27018 5.232 2.99982C6.49486 1.72947 8.20912 1.01049 10.0004 0.999924L25.3304 0.999924C27.1285 0.999924 28.853 1.71424 30.1245 2.98574C31.396 4.25723 32.1104 5.98175 32.1104 7.77992V10.9199Z" stroke="black" stroke-width="1.6" stroke-linecap="round" stroke-linejoin="round"/>
<path d="M27.1503 16.78H9.57031" stroke="black" stroke-width="1.6" stroke-linecap="round" stroke-linejoin="round"/>
<path d="M11.8203 13.6201H9.57031" stroke="black" stroke-width="1.6" stroke-linecap="round" stroke-linejoin="round"/>
<path d="M26.2501 13.6201H16.3301" stroke="black" stroke-width="1.6" stroke-linecap="round" stroke-linejoin="round"/>
<path d="M17.6899 1.44995V6.40995" stroke="black" stroke-width="1.6" stroke-linecap="round" stroke-linejoin="round"/>
<path d="M23.1001 1.44995V6.40995" stroke="black" stroke-width="1.6" stroke-linecap="round" stroke-linejoin="round"/>
<path d="M28.0503 1.44995V6.40995" stroke="black" stroke-width="1.6" stroke-linecap="round" stroke-linejoin="round"/>
<path d="M12.73 1.44995V6.40995" stroke="black" stroke-width="1.6" stroke-linecap="round" stroke-linejoin="round"/>
<path d="M6.87012 1.44995V6.40995" stroke="black" stroke-width="1.6" stroke-linecap="round" stroke-linejoin="round"/>
<path d="M1 23.54H22.65V47.89H1" stroke="black" stroke-width="1.6" stroke-linecap="round" stroke-linejoin="round"/>
<path d="M43.8303 52.8401H30.7603V56.0001H43.8303V52.8401Z" stroke="black" stroke-width="1.6" stroke-linecap="round" stroke-linejoin="round"/>
<path d="M43.8303 49.6899H30.7603V52.8499H43.8303V49.6899Z" stroke="black" stroke-width="1.6" stroke-linecap="round" stroke-linejoin="round"/>
<path d="M42.03 46.53H28.96V49.69H42.03V46.53Z" stroke="black" stroke-width="1.6" stroke-linecap="round" stroke-linejoin="round"/>
<path d="M44.7302 43.3799H31.6602V46.5399H44.7302V43.3799Z" stroke="black" stroke-width="1.6" stroke-linecap="round" stroke-linejoin="round"/>
<path d="M38.2002 42.9301C41.8121 42.9301 44.7402 40.002 44.7402 36.3901C44.7402 32.7782 41.8121 29.8501 38.2002 29.8501C34.5882 29.8501 31.6602 32.7782 31.6602 36.3901C31.6602 40.002 34.5882 42.9301 38.2002 42.9301Z" stroke="black" stroke-width="1.6" stroke-linecap="round" stroke-linejoin="round"/>
<path d="M32.4399 39.48L43.3799 33.01" stroke="black" stroke-width="1.6" stroke-linecap="round" stroke-linejoin="round"/>
<path d="M10.21 38.31C10.9808 39.095 11.4546 40.1238 11.55 41.22C11.6158 41.6475 11.5885 42.0843 11.4698 42.5003C11.351 42.9162 11.1437 43.3016 10.8621 43.63C10.5805 43.9584 10.2311 44.2219 9.83809 44.4026C9.44504 44.5833 9.01756 44.6769 8.58496 44.6769C8.15236 44.6769 7.72488 44.5833 7.33183 44.4026C6.93878 44.2219 6.58946 43.9584 6.30782 43.63C6.02618 43.3016 5.81889 42.9162 5.70016 42.5003C5.58143 42.0843 5.55407 41.6475 5.61996 41.22C5.7597 40.0977 6.24957 39.048 7.01996 38.22" stroke="black" stroke-width="1.6" stroke-linecap="round" stroke-linejoin="round"/>
<path d="M21.5799 37.9999H12.3699C13.0108 38.9718 13.3802 40.0973 13.4399 41.2599C13.3833 42.5068 12.8481 43.6838 11.9457 44.5462C11.0433 45.4085 9.84312 45.8897 8.59494 45.8897C7.34676 45.8897 6.14663 45.4085 5.24422 44.5462C4.34181 43.6838 3.80661 42.5068 3.74994 41.2599C3.84627 40.0583 4.2491 38.9015 4.91994 37.8999H2.18994" stroke="black" stroke-width="1.6" stroke-linecap="round" stroke-linejoin="round"/>
<path d="M7.02002 38.2201C7.02002 38.2201 8.29002 29.1101 16.27 25.5601C14.2839 27.018 12.6906 28.946 11.633 31.1713C10.5754 33.3965 10.0864 35.8494 10.21 38.3101" stroke="black" stroke-width="1.6" stroke-linecap="round" stroke-linejoin="round"/>
</svg>
