<svg width="57" height="57" viewBox="0 0 57 57" fill="none" xmlns="http://www.w3.org/2000/svg">
<path d="M46.6316 36.6102H22.1916C21.9794 36.6102 21.7759 36.6945 21.6259 36.8445C21.4759 36.9945 21.3916 37.198 21.3916 37.4102V53.7402C21.3916 54.4934 21.6908 55.2158 22.2234 55.7484C22.756 56.281 23.4784 56.5802 24.2316 56.5802H44.6016C45.3531 56.5775 46.0729 56.2771 46.6033 55.7448C47.1338 55.2125 47.4316 54.4917 47.4316 53.7402V37.4102C47.4329 37.3047 47.4132 37.2001 47.3734 37.1024C47.3337 37.0048 47.2748 36.916 47.2003 36.8415C47.1257 36.7669 47.037 36.7081 46.9393 36.6683C46.8417 36.6286 46.737 36.6088 46.6316 36.6102ZM45.8316 38.2102V42.7402H22.9916V38.2102H45.8316ZM44.6016 54.9402H24.2316C23.9088 54.9429 23.5979 54.8186 23.3659 54.5941C23.1339 54.3696 22.9995 54.0629 22.9916 53.7402V44.3202H45.8016V53.7402C45.794 54.056 45.6651 54.3569 45.4417 54.5803C45.2183 54.8037 44.9175 54.9326 44.6016 54.9402Z" fill="#050505"/>
<path d="M41.5419 46.7903H27.2819C27.0698 46.7903 26.8663 46.8746 26.7162 47.0246C26.5662 47.1746 26.4819 47.3781 26.4819 47.5903C26.4819 47.8025 26.5662 48.0059 26.7162 48.156C26.8663 48.306 27.0698 48.3903 27.2819 48.3903H41.5419C41.7541 48.3903 41.9576 48.306 42.1076 48.156C42.2576 48.0059 42.3419 47.8025 42.3419 47.5903C42.3419 47.3781 42.2576 47.1746 42.1076 47.0246C41.9576 46.8746 41.7541 46.7903 41.5419 46.7903Z" fill="#050505"/>
<path d="M39.502 50.8701H29.322C29.1098 50.8701 28.9063 50.9544 28.7563 51.1044C28.6063 51.2545 28.522 51.4579 28.522 51.6701C28.522 51.8823 28.6063 52.0858 28.7563 52.2358C28.9063 52.3858 29.1098 52.4701 29.322 52.4701H39.502C39.7141 52.4701 39.9176 52.3858 40.0677 52.2358C40.2177 52.0858 40.302 51.8823 40.302 51.6701C40.302 51.4579 40.2177 51.2545 40.0677 51.1044C39.9176 50.9544 39.7141 50.8701 39.502 50.8701Z" fill="#050505"/>
<path d="M21.1716 22.6403C22.0166 22.6403 22.7016 21.9553 22.7016 21.1103C22.7016 20.2653 22.0166 19.5803 21.1716 19.5803C20.3266 19.5803 19.6416 20.2653 19.6416 21.1103C19.6416 21.9553 20.3266 22.6403 21.1716 22.6403Z" fill="#050505"/>
<path d="M13.8017 50.6502V31.1202C13.8109 29.5988 14.3764 28.1333 15.3917 27.0002H26.9317C27.947 28.1333 28.5126 29.5988 28.5217 31.1202V34.3502H30.1217V31.1202C30.1248 29.1925 29.4121 27.3323 28.1217 25.9002V13.9802C28.1217 13.768 28.0374 13.5645 27.8874 13.4145C27.7374 13.2645 27.5339 13.1802 27.3217 13.1802H15.0617C14.8495 13.1802 14.6461 13.2645 14.496 13.4145C14.346 13.5645 14.2617 13.768 14.2617 13.9802V25.9002C12.9755 27.3348 12.2634 29.1934 12.2617 31.1202V50.6502C12.2644 51.4017 12.5647 52.1215 13.0971 52.6519C13.6294 53.1823 14.3502 53.4802 15.1017 53.4802H19.1717V51.8802H15.0617C14.898 51.8828 14.7355 51.853 14.5834 51.7925C14.4313 51.732 14.2926 51.642 14.1755 51.5277C14.0584 51.4133 13.965 51.2769 13.9009 51.1263C13.8367 50.9757 13.803 50.8139 13.8017 50.6502ZM23.4117 25.4002H18.9117V17.8402H23.4317L23.4117 25.4002ZM15.8617 14.7402H26.4817V25.4002H25.0317V17.0402C25.0317 16.828 24.9474 16.6245 24.7974 16.4745C24.6474 16.3245 24.4439 16.2402 24.2317 16.2402H18.1117C17.8995 16.2402 17.6961 16.3245 17.546 16.4745C17.396 16.6245 17.3117 16.828 17.3117 17.0402V25.4002H15.8617V14.7402Z" fill="#050505"/>
<path d="M1.96154 5.61011H24.0915L23.7115 10.7401L25.3115 10.8601L25.7515 4.86011L26.0415 0.860111C26.0506 0.750962 26.0366 0.641127 26.0004 0.53775C25.9643 0.434373 25.9067 0.339773 25.8315 0.260112C25.7578 0.176706 25.6669 0.110273 25.5651 0.0653871C25.4632 0.0205015 25.3528 -0.00177133 25.2415 0.000109991H0.801543C0.690543 0.000145264 0.580764 0.0232805 0.47919 0.0680421C0.377615 0.112804 0.286468 0.178214 0.211543 0.260112C0.138365 0.34111 0.0820953 0.435902 0.0460346 0.538932C0.00997387 0.641963 -0.00515092 0.751157 0.00154376 0.860111L0.301543 4.86011L3.06154 42.5701V48.6501C3.06154 48.8623 3.14583 49.0658 3.29586 49.2158C3.44589 49.3658 3.64937 49.4501 3.86154 49.4501H9.97154V47.8501H4.66154V43.3001H9.97154V41.7401H4.60154L1.96154 5.61011ZM24.3815 1.54011L24.2015 4.01011H1.80154L1.62154 1.54011H24.3815Z" fill="#050505"/>
<path d="M6.91182 8.09033C6.69964 8.09033 6.49616 8.17462 6.34613 8.32465C6.1961 8.47468 6.11182 8.67816 6.11182 8.89034C6.11182 9.10251 6.1961 9.30599 6.34613 9.45602C6.49616 9.60605 6.69964 9.69033 6.91182 9.69033H19.1318C19.344 9.69033 19.5475 9.60605 19.6975 9.45602C19.8475 9.30599 19.9318 9.10251 19.9318 8.89034C19.9318 8.67816 19.8475 8.47468 19.6975 8.32465C19.5475 8.17462 19.344 8.09033 19.1318 8.09033H6.91182Z" fill="#050505"/>
<path d="M18.1115 30.5002C17.8994 30.5002 17.6959 30.5845 17.5458 30.7346C17.3958 30.8846 17.3115 31.0881 17.3115 31.3002C17.3115 31.5124 17.3958 31.7159 17.5458 31.8659C17.6959 32.016 17.8994 32.1002 18.1115 32.1002H24.2315C24.4437 32.1002 24.6472 32.016 24.7972 31.8659C24.9472 31.7159 25.0315 31.5124 25.0315 31.3002C25.0315 31.0881 24.9472 30.8846 24.7972 30.7346C24.6472 30.5845 24.4437 30.5002 24.2315 30.5002H18.1115Z" fill="#050505"/>
<path d="M52.5319 19.7401V15.0001C52.5319 14.788 52.4476 14.5845 52.2976 14.4344C52.1475 14.2844 51.944 14.2001 51.7319 14.2001H49.4719V9.74014H50.7119C50.924 9.74014 51.1275 9.65585 51.2776 9.50582C51.4276 9.35579 51.5119 9.15231 51.5119 8.94014C51.5119 8.72796 51.4276 8.52448 51.2776 8.37445C51.1275 8.22442 50.924 8.14014 50.7119 8.14014H37.4719C37.2597 8.14014 37.0562 8.22442 36.9062 8.37445C36.7562 8.52448 36.6719 8.72796 36.6719 8.94014C36.6719 9.15231 36.7562 9.35579 36.9062 9.50582C37.0562 9.65585 37.2597 9.74014 37.4719 9.74014H43.8019V14.2501H41.5419C41.3297 14.2501 41.1262 14.3344 40.9762 14.4845C40.8262 14.6345 40.7419 14.838 40.7419 15.0501V19.7401C39.4735 20.7691 38.4502 22.0675 37.7462 23.5412C37.0422 25.0149 36.6752 26.6269 36.6719 28.2601V34.3701H38.2719V28.2401C38.2721 26.8288 38.5894 25.4356 39.2004 24.1634C39.8114 22.8912 40.7005 21.7726 41.8019 20.8901H51.4019C52.5172 21.7646 53.4204 22.88 54.0438 24.1528C54.6672 25.4256 54.9947 26.8229 55.0019 28.2401V50.6501C54.9995 50.9705 54.8732 51.2774 54.6495 51.5067C54.4258 51.736 54.122 51.8698 53.8019 51.8801H49.6919V53.4801H53.8019C54.5534 53.4801 55.2742 53.1823 55.8065 52.6519C56.3388 52.1214 56.6392 51.4016 56.6419 50.6501V28.2401C56.6307 26.6071 56.2561 24.997 55.5452 23.5268C54.8343 22.0565 53.805 20.763 52.5319 19.7401ZM45.4019 9.74014H47.8719V14.2501H45.4019V9.74014ZM50.9319 19.3401H42.3419V15.8001H50.9319V19.3401Z" fill="#050505"/>
<path d="M49.6917 28.0202C49.9039 28.0202 50.1074 27.9359 50.2574 27.7859C50.4075 27.6358 50.4917 27.4323 50.4917 27.2202C50.4917 27.008 50.4075 26.8045 50.2574 26.6545C50.1074 26.5045 49.9039 26.4202 49.6917 26.4202H43.5817C43.4767 26.4202 43.3726 26.4409 43.2756 26.4811C43.1785 26.5213 43.0903 26.5802 43.0161 26.6545C42.9418 26.7288 42.8828 26.817 42.8426 26.914C42.8024 27.0111 42.7817 27.1151 42.7817 27.2202C42.7817 27.3252 42.8024 27.4293 42.8426 27.5263C42.8828 27.6234 42.9418 27.7116 43.0161 27.7859C43.0903 27.8601 43.1785 27.9191 43.2756 27.9593C43.3726 27.9995 43.4767 28.0202 43.5817 28.0202H49.6917Z" fill="#050505"/>
</svg>
