<svg width="70" height="58" viewBox="0 0 70 58" fill="none" xmlns="http://www.w3.org/2000/svg">
<path d="M14.2401 29.4353C14.4802 29.4373 14.7155 29.3678 14.9161 29.2356C15.1166 29.1034 15.2732 28.9145 15.366 28.693C15.4588 28.4715 15.4836 28.2274 15.4373 27.9918C15.3909 27.7561 15.2755 27.5396 15.1056 27.3698C14.9358 27.2 14.7193 27.0845 14.4837 27.0381C14.248 26.9918 14.0039 27.0166 13.7824 27.1094C13.5609 27.2022 13.372 27.3589 13.2398 27.5594C13.1076 27.7599 13.0381 27.9952 13.0401 28.2353C13.0401 28.5536 13.1665 28.8588 13.3916 29.0839C13.6166 29.3089 13.9218 29.4353 14.2401 29.4353V29.4353Z" fill="black"/>
<path d="M13.1002 35.4454C12.8633 35.4473 12.6322 35.5194 12.4362 35.6524C12.2402 35.7855 12.0879 35.9736 11.9987 36.193C11.9094 36.4125 11.887 36.6534 11.9344 36.8855C11.9819 37.1176 12.0969 37.3305 12.2652 37.4974C12.4334 37.6642 12.6472 37.7775 12.8797 37.823C13.1122 37.8685 13.353 37.8441 13.5717 37.753C13.7903 37.6619 13.9772 37.5081 14.1086 37.311C14.24 37.1139 14.3101 36.8823 14.3102 36.6454C14.3102 36.4869 14.2788 36.3301 14.2179 36.1838C14.1569 36.0376 14.0676 35.9048 13.9552 35.7933C13.8427 35.6817 13.7092 35.5935 13.5624 35.5338C13.4157 35.4741 13.2586 35.444 13.1002 35.4454V35.4454Z" fill="black"/>
<path d="M29.22 40.0654C28.9827 40.0654 28.7507 40.1358 28.5533 40.2677C28.356 40.3995 28.2022 40.5869 28.1114 40.8062C28.0205 41.0255 27.9968 41.2668 28.0431 41.4995C28.0894 41.7323 28.2037 41.9461 28.3715 42.114C28.5393 42.2818 28.7531 42.3961 28.9859 42.4424C29.2187 42.4887 29.46 42.4649 29.6792 42.3741C29.8985 42.2833 30.0859 42.1295 30.2178 41.9321C30.3496 41.7348 30.42 41.5028 30.42 41.2654C30.42 41.1078 30.389 40.9518 30.3287 40.8062C30.2684 40.6606 30.18 40.5283 30.0685 40.4169C29.9571 40.3055 29.8248 40.2171 29.6792 40.1568C29.5336 40.0965 29.3776 40.0654 29.22 40.0654V40.0654Z" fill="black"/>
<path d="M8.07035 41.0653C8.06838 41.3054 8.13791 41.5407 8.2701 41.7413C8.4023 41.9418 8.59117 42.0984 8.81267 42.1912C9.03417 42.284 9.27829 42.3088 9.51393 42.2625C9.74958 42.2161 9.96609 42.1007 10.1359 41.9308C10.3057 41.761 10.4212 41.5445 10.4675 41.3089C10.5139 41.0732 10.4891 40.8291 10.3963 40.6076C10.3035 40.3861 10.1468 40.1972 9.94633 40.065C9.74582 39.9328 9.51051 39.8633 9.27035 39.8653C8.95209 39.8653 8.64687 39.9917 8.42182 40.2167C8.19678 40.4418 8.07035 40.747 8.07035 41.0653V41.0653Z" fill="black"/>
<path d="M11.2103 45.5454C10.9729 45.5454 10.7409 45.6158 10.5436 45.7477C10.3462 45.8795 10.1924 46.0669 10.1016 46.2862C10.0108 46.5055 9.98701 46.7467 10.0333 46.9795C10.0796 47.2123 10.1939 47.4261 10.3617 47.5939C10.5296 47.7618 10.7434 47.8761 10.9761 47.9224C11.2089 47.9687 11.4502 47.9449 11.6695 47.8541C11.8887 47.7632 12.0762 47.6094 12.208 47.4121C12.3399 47.2148 12.4103 46.9828 12.4103 46.7454C12.4103 46.4272 12.2838 46.1219 12.0588 45.8969C11.8337 45.6718 11.5285 45.5454 11.2103 45.5454V45.5454Z" fill="black"/>
<path d="M17.1802 46.6353C16.9433 46.6373 16.7123 46.7093 16.5163 46.8424C16.3203 46.9754 16.168 47.1635 16.0787 47.383C15.9894 47.6024 15.9671 47.8434 16.0145 48.0755C16.062 48.3076 16.177 48.5205 16.3452 48.6873C16.5135 48.8541 16.7273 48.9674 16.9598 49.0129C17.1923 49.0584 17.433 49.0341 17.6517 48.943C17.8704 48.8518 18.0573 48.698 18.1887 48.5009C18.3201 48.3038 18.3902 48.0722 18.3902 47.8353C18.3902 47.6769 18.3589 47.52 18.2979 47.3738C18.237 47.2275 18.1477 47.0948 18.0352 46.9832C17.9227 46.8716 17.7893 46.7835 17.6425 46.7238C17.4958 46.664 17.3387 46.634 17.1802 46.6353V46.6353Z" fill="black"/>
<path d="M20.97 44.5252C21.6328 44.5252 22.17 43.988 22.17 43.3252C22.17 42.6625 21.6328 42.1252 20.97 42.1252C20.3073 42.1252 19.77 42.6625 19.77 43.3252C19.77 43.988 20.3073 44.5252 20.97 44.5252Z" fill="black"/>
<path d="M27.7601 47.1953C27.5227 47.1953 27.2907 47.2657 27.0934 47.3976C26.896 47.5294 26.7422 47.7168 26.6514 47.9361C26.5606 48.1554 26.5368 48.3966 26.5831 48.6294C26.6294 48.8622 26.7437 49.076 26.9115 49.2438C27.0793 49.4117 27.2932 49.526 27.526 49.5723C27.7587 49.6186 28 49.5948 28.2193 49.504C28.4386 49.4131 28.626 49.2593 28.7578 49.062C28.8897 48.8647 28.9601 48.6326 28.9601 48.3953C28.9574 48.0779 28.8302 47.7742 28.6057 47.5497C28.3812 47.3252 28.0775 47.1979 27.7601 47.1953V47.1953Z" fill="black"/>
<path d="M23.1604 52.6853C22.9202 52.6834 22.6849 52.7529 22.4844 52.8851C22.2839 53.0173 22.1273 53.2062 22.0345 53.4277C21.9416 53.6492 21.9168 53.8933 21.9632 54.1289C22.0096 54.3646 22.125 54.5811 22.2948 54.7509C22.4647 54.9207 22.6812 55.0362 22.9168 55.0825C23.1525 55.1289 23.3966 55.1041 23.6181 55.0113C23.8396 54.9185 24.0284 54.7618 24.1606 54.5613C24.2928 54.3608 24.3624 54.1255 24.3604 53.8853C24.3604 53.5671 24.234 53.2619 24.0089 53.0368C23.7839 52.8118 23.4787 52.6853 23.1604 52.6853V52.6853Z" fill="black"/>
<path d="M16.2203 55.0852C15.9834 55.0872 15.7524 55.1593 15.5563 55.2923C15.3603 55.4254 15.2081 55.6135 15.1188 55.8329C15.0295 56.0524 15.0071 56.2933 15.0546 56.5254C15.102 56.7575 15.2171 56.9704 15.3853 57.1372C15.5535 57.3041 15.7673 57.4174 15.9998 57.4629C16.2323 57.5084 16.4731 57.484 16.6918 57.3929C16.9105 57.3018 17.0973 57.148 17.2287 56.9509C17.3601 56.7538 17.4303 56.5222 17.4303 56.2852C17.4303 56.1268 17.3989 55.9699 17.338 55.8237C17.2771 55.6775 17.1878 55.5447 17.0753 55.4332C16.9628 55.3216 16.8293 55.2334 16.6826 55.1737C16.5358 55.114 16.3787 55.0839 16.2203 55.0852V55.0852Z" fill="black"/>
<path d="M9.07012 53.6252C8.83278 53.6252 8.60077 53.6956 8.40343 53.8275C8.20609 53.9593 8.05229 54.1467 7.96146 54.366C7.87064 54.5853 7.84687 54.8266 7.89318 55.0593C7.93948 55.2921 8.05377 55.506 8.22159 55.6738C8.38941 55.8416 8.60323 55.9559 8.83601 56.0022C9.06879 56.0485 9.31007 56.0247 9.52934 55.9339C9.74861 55.8431 9.93602 55.6893 10.0679 55.4919C10.1997 55.2946 10.2701 55.0626 10.2701 54.8252C10.2701 54.6677 10.2391 54.5116 10.1788 54.366C10.1185 54.2204 10.0301 54.0881 9.91865 53.9767C9.80722 53.8653 9.67493 53.7769 9.52934 53.7166C9.38375 53.6563 9.2277 53.6252 9.07012 53.6252V53.6252Z" fill="black"/>
<path d="M3.56029 48.8252C3.32014 48.8233 3.08483 48.8928 2.88432 49.025C2.68381 49.1572 2.52717 49.3461 2.43435 49.5676C2.34153 49.7891 2.31673 50.0332 2.3631 50.2688C2.40947 50.5045 2.52491 50.721 2.69473 50.8908C2.86455 51.0606 3.08107 51.1761 3.31672 51.2224C3.55236 51.2688 3.79647 51.244 4.01798 51.1512C4.23948 51.0584 4.42835 50.9017 4.56054 50.7012C4.69273 50.5007 4.76227 50.2654 4.76029 50.0252C4.76029 49.707 4.63386 49.4018 4.40882 49.1767C4.18377 48.9517 3.87855 48.8252 3.56029 48.8252V48.8252Z" fill="black"/>
<path d="M1.2 42.1252C0.881741 42.1252 0.576515 42.2517 0.351471 42.4767C0.126427 42.7018 0 43.007 0 43.3252C0 43.6435 0.126427 43.9487 0.351471 44.1738C0.576515 44.3988 0.881741 44.5252 1.2 44.5252C1.51826 44.5252 1.82348 44.3988 2.04853 44.1738C2.27357 43.9487 2.4 43.6435 2.4 43.3252C2.4 43.007 2.27357 42.7018 2.04853 42.4767C1.82348 42.2517 1.51826 42.1252 1.2 42.1252Z" fill="black"/>
<path d="M2.67998 37.3854C2.91732 37.3854 3.14933 37.315 3.34666 37.1831C3.544 37.0513 3.69781 36.8638 3.78864 36.6446C3.87946 36.4253 3.90322 36.184 3.85692 35.9512C3.81062 35.7185 3.69633 35.5046 3.52851 35.3368C3.36069 35.169 3.14687 35.0547 2.91409 35.0084C2.68131 34.9621 2.44003 34.9859 2.22076 35.0767C2.00149 35.1675 1.81407 35.3213 1.68222 35.5187C1.55036 35.716 1.47998 35.948 1.47998 36.1853C1.47998 36.3429 1.51102 36.499 1.57133 36.6446C1.63163 36.7902 1.72002 36.9225 1.83145 37.0339C1.94288 37.1453 2.07517 37.2337 2.22076 37.294C2.36635 37.3543 2.52239 37.3854 2.67998 37.3854V37.3854Z" fill="black"/>
<path d="M8.62021 30.3653C8.62021 30.1279 8.54984 29.8959 8.41798 29.6986C8.28612 29.5013 8.09871 29.3475 7.87943 29.2566C7.66016 29.1658 7.41888 29.142 7.18611 29.1883C6.95333 29.2346 6.73951 29.3489 6.57169 29.5168C6.40386 29.6846 6.28958 29.8984 6.24327 30.1312C6.19697 30.364 6.22073 30.6052 6.31156 30.8245C6.40239 31.0438 6.55619 31.2312 6.75353 31.363C6.95087 31.4949 7.18288 31.5653 7.42022 31.5653C7.73848 31.5653 8.0437 31.4389 8.26874 31.2138C8.49379 30.9888 8.62021 30.6835 8.62021 30.3653V30.3653Z" fill="black"/>
<path d="M69.3202 5.57526C69.1721 5.41657 68.9672 5.32307 68.7502 5.31526V5.31526C68.5404 5.30971 68.3364 5.38487 68.1802 5.52526C67.4046 6.30657 66.4453 6.88077 65.3902 7.19526C64.6778 7.36732 63.9292 7.31136 63.2502 7.03526C61.8964 6.31521 60.6863 5.35257 59.6802 4.19526C57.4202 1.99526 54.8502 -0.49474 50.8302 0.08526C49.5041 0.293952 48.2444 0.807407 47.1502 1.58526C45.8012 2.53703 44.5752 3.65218 43.5002 4.90526C43.2688 4.81887 43.0265 4.76503 42.7802 4.74526C42.2871 4.70881 41.7932 4.80551 41.3502 5.02526L41.1702 5.15526C40.5302 5.75526 39.9002 6.39526 39.3402 6.95526C38.1171 8.30535 36.7218 9.48882 35.1902 10.4753L35.0702 10.5653C33.0702 11.5653 30.3502 13.8853 27.5402 17.1153C23.8302 21.3753 20.7602 26.1153 20.0702 28.7453C20.0702 28.8653 20.0102 28.9753 19.9902 29.0853C19.9233 29.3912 19.8831 29.7024 19.8702 30.0153C18.1434 31.8534 16.5745 33.8337 15.1802 35.9353L14.3002 37.3553C13.6061 38.5213 13.0554 39.767 12.6602 41.0653L10.4402 46.4153C10.3809 46.5453 10.3571 46.6888 10.3711 46.831C10.3852 46.9733 10.4366 47.1093 10.5202 47.2253C10.5958 47.3299 10.6949 47.4152 10.8096 47.4742C10.9242 47.5333 11.0512 47.5645 11.1802 47.5653C11.3498 47.5624 11.5142 47.5065 11.6502 47.4053L16.3402 44.0053C17.8142 43.1593 19.1609 42.1089 20.3402 40.8853C21.384 39.8179 22.3593 38.6857 23.2602 37.4953L24.0102 36.4953C24.1602 36.3053 24.3002 36.1053 24.4402 35.9053L24.9102 35.2553C25.1002 34.9953 25.3102 34.7253 25.4902 34.4653C25.7702 34.3763 26.0441 34.2694 26.3102 34.1453C28.7402 33.0053 33.0602 28.5353 36.5702 23.5053C38.3889 21.0803 39.8069 18.3793 40.7702 15.5053L40.8302 15.3553C41.425 13.7397 42.2648 12.2253 43.3202 10.8653C43.9002 10.0253 44.5002 9.15526 45.0102 8.24526C45.0102 8.24526 45.0102 8.24526 45.0102 8.18526V8.03526C45.0968 7.68408 45.1122 7.31912 45.0556 6.96189C44.9989 6.60466 44.8713 6.26239 44.6802 5.95526C45.6527 4.82333 46.761 3.81572 47.9802 2.95526C48.8717 2.31508 49.8979 1.88749 50.9802 1.70526C54.2302 1.24526 56.3902 3.34526 58.4902 5.38526C59.6651 6.69661 61.0895 7.76067 62.6802 8.51526C63.6652 8.91064 64.7493 8.98757 65.7802 8.73526C67.0965 8.37339 68.3002 7.68553 69.2802 6.73526C69.4366 6.5896 69.5298 6.38867 69.5402 6.17526C69.5474 6.06544 69.5315 5.95534 69.4936 5.85202C69.4557 5.7487 69.3967 5.65443 69.3202 5.57526V5.57526ZM39.3202 14.6653L39.2602 14.8653C39.2507 14.9416 39.2507 15.0189 39.2602 15.0953C38.3236 17.7751 36.974 20.2921 35.2602 22.5553C31.9402 27.2953 27.8102 31.6353 25.6302 32.6553C25.152 32.9198 24.6031 33.0282 24.0602 32.9653C23.5442 32.8253 23.0704 32.5609 22.6802 32.1953C22.2531 31.8921 21.9092 31.4863 21.6802 31.0153C21.485 30.5034 21.4604 29.9422 21.6102 29.4153C21.6102 29.3453 21.6102 29.2653 21.6702 29.1653C22.3102 26.7953 25.2402 22.2753 28.8002 18.1653C31.5102 15.0453 34.0502 12.7853 35.7502 11.9553C35.8537 11.9463 35.9533 11.912 36.0402 11.8553L36.1602 11.7853C36.5114 11.6286 36.9002 11.5766 37.2802 11.6353C37.7534 11.8383 38.1894 12.1188 38.5702 12.4653C38.8947 12.7113 39.1696 13.0167 39.3802 13.3653C39.4684 13.7975 39.4443 14.245 39.3102 14.6653H39.3202ZM42.6102 6.39526C42.7976 6.41069 42.9789 6.46884 43.1402 6.56526C43.2887 6.70706 43.4017 6.88175 43.4702 7.07526C43.51 7.2294 43.51 7.39112 43.4702 7.54526C43.0202 8.34526 42.4702 9.14526 41.9302 9.91526C41.4202 10.6553 40.9302 11.4153 40.4402 12.1953C40.1652 11.8525 39.857 11.5376 39.5202 11.2553C39.0936 10.8737 38.6276 10.5385 38.1302 10.2553C38.9502 9.55526 39.7102 8.78526 40.4502 8.03526C40.9602 7.52526 41.5302 6.94526 42.1302 6.39526C42.2842 6.35411 42.4463 6.35411 42.6002 6.39526H42.6102ZM23.4202 34.4853C23.2856 34.6433 23.162 34.8103 23.0502 34.9853C21.8727 36.683 20.5583 38.2817 19.1202 39.7653C18.0716 40.8662 16.8772 41.8183 15.5702 42.5953C14.7902 42.8353 14.5002 42.7453 14.4002 42.6653C14.3002 42.5853 14.1302 42.3353 14.1802 41.5353C14.6881 39.9401 15.4259 38.4275 16.3702 37.0453V37.0453L16.5002 36.8453C17.6367 35.1381 18.8932 33.514 20.2602 31.9853C21.0081 33.1451 22.1194 34.0243 23.4202 34.4853Z" fill="black"/>
</svg>
