<svg width="52" height="60" viewBox="0 0 52 60" fill="none" xmlns="http://www.w3.org/2000/svg">
<path d="M17.5377 55.6307H17.5977L19.5977 56.2507L21.5277 56.8107C22.2143 57.0027 22.8275 57.3963 23.2877 57.9407L24.1777 58.9407C24.3898 59.1953 24.6585 59.3967 24.9624 59.5287C25.2663 59.6607 25.5969 59.7196 25.9277 59.7007C26.2588 59.688 26.5825 59.5994 26.8738 59.4416C27.1651 59.2838 27.4163 59.0611 27.6077 58.7907L28.1377 58.0507C28.6654 57.3127 29.4502 56.7989 30.3377 56.6107L32.1777 56.2207H32.2577L34.2577 55.5807H34.3177C44.7877 51.4807 51.8177 40.2207 51.8177 27.5807C51.9767 20.2108 49.2577 13.069 44.2377 7.67072C41.8413 5.24104 38.9859 3.31175 35.8375 1.99493C32.6891 0.678105 29.3104 0 25.8977 0C22.4851 0 19.1064 0.678105 15.958 1.99493C12.8096 3.31175 9.95421 5.24104 7.55774 7.67072C2.54384 13.0787 -0.164541 20.2281 0.00774333 27.6007C0.00774333 40.2707 7.05774 51.5307 17.5377 55.6307ZM44.4277 45.6307C43.3792 47.0534 42.1935 48.3697 40.8877 49.5607L28.1377 51.2607C27.9163 51.2899 27.7155 51.4059 27.5795 51.5831C27.4436 51.7603 27.3836 51.9843 27.4127 52.2057C27.4419 52.4272 27.5579 52.628 27.7351 52.7639C27.9123 52.8999 28.1363 52.9599 28.3577 52.9307L38.2677 51.6307L37.7977 51.9307C36.5368 52.7607 35.197 53.4641 33.7977 54.0307L31.7977 54.6407L29.9777 55.0307C28.6819 55.3088 27.5369 56.0614 26.7677 57.1407L26.2377 57.8807C26.1933 57.941 26.1363 57.991 26.0707 58.0273C26.0051 58.0635 25.9325 58.0852 25.8577 58.0907C25.7868 58.0887 25.7172 58.0716 25.6534 58.0405C25.5896 58.0095 25.5331 57.9653 25.4877 57.9107L24.6077 56.9107C23.9316 56.1115 23.0338 55.5303 22.0277 55.2407L20.1277 54.6907L18.1277 54.0807C16.7285 53.5182 15.3886 52.8181 14.1277 51.9907L13.6477 51.6907L22.9977 52.9707C23.1076 52.9876 23.2198 52.9823 23.3276 52.955C23.4354 52.9277 23.5366 52.879 23.6252 52.8118C23.7138 52.7447 23.788 52.6604 23.8434 52.564C23.8988 52.4676 23.9343 52.3611 23.9477 52.2507C23.9707 52.1373 23.9699 52.0204 23.9455 51.9073C23.9211 51.7942 23.8737 51.6874 23.8061 51.5935C23.7385 51.4996 23.6522 51.4207 23.5527 51.3617C23.4532 51.3028 23.3426 51.265 23.2277 51.2507L11.0277 49.5707C9.76148 48.428 8.61245 47.1617 7.59774 45.7907C7.59306 45.771 7.59306 45.7505 7.59774 45.7307C6.67774 43.7307 5.72774 38.6107 7.53774 34.9707C8.03128 33.9883 8.74929 33.136 9.6336 32.4827C10.5179 31.8295 11.5437 31.3937 12.6277 31.2107C16.2577 30.4407 19.4677 31.9107 22.1777 35.5707C22.624 36.1745 23.2058 36.6652 23.8762 37.0033C24.5465 37.3414 25.2869 37.5176 26.0377 37.5176C26.7886 37.5176 27.5289 37.3414 28.1993 37.0033C28.8697 36.6652 29.4514 36.1745 29.8977 35.5707C32.5977 31.9007 35.8077 30.4407 39.4477 31.2107C40.5083 31.4054 41.5095 31.8424 42.3733 32.4876C43.2371 33.1329 43.9402 33.969 44.4277 34.9307C46.3377 38.7107 45.2277 43.8607 44.4277 45.6307ZM8.80774 8.86072C11.0464 6.59552 13.7124 4.79711 16.6511 3.56969C19.5899 2.34227 22.743 1.71025 25.9277 1.71025C29.1125 1.71025 32.2656 2.34227 35.2044 3.56969C38.1431 4.79711 40.8091 6.59552 43.0477 8.86072C47.7669 13.9436 50.3177 20.6667 50.1577 27.6007C50.1718 32.0584 49.2414 36.4686 47.4277 40.5407L47.1677 41.1107V40.4807C47.2994 38.3145 46.8905 36.1496 45.9777 34.1807C45.376 32.9671 44.4964 31.9125 43.4104 31.1028C42.3244 30.2931 41.0627 29.751 39.7277 29.5207C35.4477 28.6107 31.5577 30.3407 28.4677 34.5207C28.1798 34.9134 27.8034 35.2328 27.3691 35.4529C26.9348 35.673 26.4547 35.7877 25.9677 35.7877C25.4808 35.7877 25.0007 35.673 24.5664 35.4529C24.132 35.2328 23.7557 34.9134 23.4677 34.5207C20.3777 30.3407 16.4677 28.6107 12.2077 29.5207C10.8723 29.7495 9.60987 30.291 8.52364 31.1009C7.43741 31.9107 6.55817 32.9661 5.95774 34.1807C5.02312 36.1886 4.61694 38.4019 4.77774 40.6107V41.2507L4.50774 40.6707C2.64673 36.5653 1.68848 32.1083 1.69774 27.6007C1.53784 20.6667 4.08857 13.9436 8.80774 8.86072Z" fill="black"/>
<path d="M40.728 35.5807C39.7425 35.0079 38.6276 34.6948 37.488 34.6707C36.9414 34.6683 36.398 34.7526 35.878 34.9207C34.2456 35.542 32.9045 36.7512 32.118 38.3107C32.0218 38.5137 32.0099 38.7465 32.0849 38.9582C32.1598 39.17 32.3155 39.3434 32.518 39.4407C32.722 39.5292 32.952 39.5371 33.1616 39.4629C33.3712 39.3887 33.545 39.2378 33.648 39.0407C34.2368 37.8924 35.2257 36.9995 36.428 36.5307C37.019 36.3671 37.6379 36.3297 38.2444 36.4211C38.8508 36.5124 39.4313 36.7303 39.948 37.0607C40.0449 37.1154 40.1518 37.1502 40.2624 37.1632C40.373 37.1761 40.485 37.167 40.592 37.1363C40.699 37.1056 40.7988 37.0539 40.8857 36.9843C40.9725 36.9147 41.0447 36.8285 41.098 36.7307C41.2003 36.5336 41.2253 36.3053 41.168 36.0907C41.1322 35.9807 41.0749 35.879 40.9993 35.7914C40.9238 35.7038 40.8315 35.6322 40.728 35.5807Z" fill="black"/>
<path d="M41.3678 38.8306L41.4278 39.1406C41.4475 39.2496 41.4885 39.3536 41.5484 39.4468C41.6083 39.5399 41.686 39.6204 41.777 39.6835C41.868 39.7467 41.9705 39.7913 42.0788 39.8148C42.187 39.8383 42.2988 39.8403 42.4078 39.8206C42.5168 39.8009 42.6209 39.7599 42.714 39.7C42.8072 39.6401 42.8876 39.5624 42.9508 39.4714C43.0139 39.3804 43.0585 39.2779 43.082 39.1696C43.1055 39.0614 43.1075 38.9496 43.0878 38.8406L43.0278 38.5206C42.9926 38.3264 42.8901 38.1508 42.7383 38.0246C42.5865 37.8984 42.3952 37.8298 42.1978 37.8306H42.0478C41.8257 37.8742 41.6297 38.0037 41.5024 38.1909C41.3751 38.3781 41.3267 38.6079 41.3678 38.8306Z" fill="black"/>
</svg>
