<svg width="63" height="57" viewBox="0 0 63 57" fill="none" xmlns="http://www.w3.org/2000/svg">
<path d="M38.7817 45.6C38.8738 46.4841 39.2164 47.3235 39.769 48.0196C40.3217 48.7158 41.0616 49.2398 41.9017 49.53L61.3317 56.22C61.4264 56.261 61.5286 56.2814 61.6317 56.28C61.8222 56.281 62.0081 56.2215 62.1627 56.1101C62.3172 55.9987 62.4324 55.8411 62.4917 55.66C62.539 55.5494 62.5634 55.4303 62.5634 55.31C62.5634 55.1897 62.539 55.0706 62.4917 54.96C62.4393 54.8502 62.3653 54.752 62.2743 54.6713C62.1833 54.5906 62.077 54.5289 61.9617 54.49L42.5417 47.8C42.0322 47.6208 41.5836 47.3014 41.2475 46.8786C40.9114 46.4558 40.7014 45.9468 40.6417 45.41L40.5617 44.69C40.4432 43.5365 40.5808 42.3712 40.9645 41.277C41.3483 40.1828 41.9687 39.1868 42.7817 38.36C44.7817 36.36 45.7817 34.78 45.8817 33.59L46.3417 30.04C47.104 29.9045 47.8149 29.5639 48.3981 29.0547C48.9813 28.5455 49.4147 27.887 49.6517 27.15L49.9717 26.15C50.3093 25.1233 50.244 24.0067 49.7891 23.0263C49.3342 22.0459 48.5237 21.2751 47.5217 20.87L48.0017 17.14C48.1823 14.9571 47.9064 12.7605 47.1917 10.69C46.132 7.57559 44.1248 4.87058 41.4512 2.95369C38.7776 1.03681 35.5715 0.00404448 32.2817 0H30.9317C28.7482 0.00117971 26.5889 0.456631 24.591 1.3374C22.593 2.21817 20.8002 3.505 19.3264 5.11607C17.8527 6.72714 16.7302 8.62722 16.0305 10.6955C15.3307 12.7638 15.0689 14.9551 15.2617 17.13L15.7817 20.88C14.796 21.2941 14.0026 22.0644 13.5596 23.0374C13.1167 24.0105 13.0567 25.1147 13.3917 26.13L13.7117 27.13C13.9482 27.8558 14.3741 28.5053 14.9454 29.0116C15.5167 29.5179 16.2127 29.8625 16.9617 30.01L17.4217 33.53C17.5317 34.71 18.4217 36.28 20.2117 38.32C20.907 39.131 21.4304 40.0748 21.7502 41.0942C22.0699 42.1135 22.1793 43.1871 22.0717 44.25L21.9617 45.35C21.9043 45.8876 21.6952 46.3977 21.3588 46.8209C21.0223 47.2441 20.5725 47.5629 20.0617 47.74L0.601707 54.49C0.486431 54.5289 0.380131 54.5906 0.289097 54.6713C0.198063 54.752 0.124143 54.8502 0.0717087 54.96C0.024394 55.0706 0 55.1897 0 55.31C0 55.4303 0.024394 55.5494 0.0717087 55.66C0.109113 55.7733 0.169181 55.8779 0.24826 55.9673C0.32734 56.0567 0.423777 56.129 0.531708 56.18C0.642471 56.2268 0.761479 56.2508 0.881706 56.2508C1.00193 56.2508 1.12094 56.2268 1.23171 56.18L20.6617 49.49C21.4962 49.2027 22.2322 48.6848 22.7844 47.9963C23.3366 47.3078 23.6824 46.477 23.7817 45.6L23.8917 44.5C24.0282 43.1883 23.8955 41.8624 23.5018 40.6038C23.108 39.3451 22.4615 38.1801 21.6017 37.18C19.6017 34.83 19.2717 33.76 19.2417 33.41L17.0817 16.96C17.0817 16.78 17.0817 16.59 17.0817 16.41V16.18C17.0817 16.11 17.0817 16.03 17.0817 15.95C17.0817 15.87 17.0817 15.66 17.0817 15.51C17.0718 15.3301 17.0718 15.1499 17.0817 14.97C17.0817 14.9 17.0817 14.82 17.0817 14.75C17.0817 14.68 17.0817 14.59 17.0817 14.52C17.0817 14.45 17.0817 14.22 17.0817 14.07C17.102 13.9017 17.132 13.7348 17.1717 13.57C17.1678 13.4934 17.1678 13.4166 17.1717 13.34C17.1717 13.26 17.1717 13.18 17.1717 13.1C17.2332 12.9591 17.3033 12.8222 17.3817 12.69C17.4157 12.5309 17.4591 12.374 17.5117 12.22L17.5717 11.99C17.5996 11.9148 17.623 11.838 17.6417 11.76C17.6417 11.61 17.7217 11.46 17.7717 11.31C17.8264 11.1467 17.8898 10.9865 17.9617 10.83C17.9927 10.7617 18.0194 10.6916 18.0417 10.62L18.1317 10.4C18.1797 10.2566 18.2365 10.1164 18.3017 9.98C18.3717 9.82 18.4617 9.66 18.5417 9.51L18.6517 9.3L18.7617 9.09C18.8217 8.96 18.8917 8.83 18.9617 8.71C19.0317 8.59 19.2817 8.21 19.4417 7.98L19.5117 7.88L19.6117 7.72C19.6537 7.64699 19.7005 7.57684 19.7517 7.51C20.0422 7.11771 20.3526 6.74054 20.6817 6.38C21.9844 4.95903 23.5683 3.82435 25.3328 3.04797C27.0973 2.27158 29.0039 1.87044 30.9317 1.87H32.2817C35.6799 1.86869 38.9604 3.11403 41.5017 5.37C41.8617 5.69 42.2117 6.03 42.5017 6.37C43.7969 7.79496 44.7843 9.4718 45.402 11.2957C46.0197 13.1196 46.2545 15.0512 46.0917 16.97L44.0217 33.37C44.0217 33.63 43.7417 34.68 41.4417 37.04C40.4537 38.0636 39.7031 39.2922 39.2434 40.6385C38.7837 41.9848 38.626 43.4159 38.7817 44.83V45.6ZM47.1917 22.77L47.2717 22.83C47.699 23.1297 48.019 23.5585 48.1845 24.0535C48.3501 24.5485 48.3527 25.0835 48.1917 25.58L47.8717 26.58C47.7706 26.8931 47.6067 27.1822 47.3901 27.4298C47.1734 27.6774 46.9086 27.8782 46.6117 28.02L46.5117 28.07L47.1917 22.77ZM16.5617 27.96C16.0035 27.6666 15.5806 27.1684 15.3817 26.57L15.0617 25.57C14.9013 25.0862 14.897 24.5642 15.0496 24.0779C15.2021 23.5916 15.5037 23.1655 15.9117 22.86L15.9917 22.8V22.9L16.6517 28.01L16.5617 27.96Z" fill="black"/>
<path d="M31.9716 29.9699C31.8343 29.9674 31.701 29.9227 31.5899 29.8419C31.4788 29.7611 31.3953 29.6481 31.3505 29.5183C31.3058 29.3884 31.302 29.2479 31.3398 29.1158C31.3775 28.9838 31.455 28.8665 31.5616 28.7799C33.1557 27.441 34.5736 25.9054 35.7816 24.2099C37.5416 21.6899 39.5816 17.6899 39.0116 13.1199C39.0004 13.0339 39.0062 12.9465 39.0288 12.8627C39.0514 12.7789 39.0903 12.7005 39.1432 12.6317C39.1961 12.563 39.2621 12.5054 39.3373 12.4622C39.4126 12.419 39.4956 12.391 39.5816 12.3799C39.7565 12.3571 39.9333 12.4041 40.0737 12.5108C40.2141 12.6176 40.3068 12.7753 40.3316 12.9499C40.6059 15.2236 40.3526 17.5299 39.5916 19.6899C38.9193 21.5907 37.9726 23.383 36.7816 25.0099C35.5212 26.7995 34.0356 28.4195 32.3616 29.8299C32.2493 29.916 32.113 29.9649 31.9716 29.9699Z" fill="black"/>
<path d="M35.3115 29.6899C35.2259 29.6911 35.141 29.6749 35.0619 29.6422C34.9829 29.6096 34.9113 29.5611 34.8515 29.4999L32.1115 26.8999C32.0458 26.8395 31.9927 26.7667 31.9552 26.6858C31.9176 26.6048 31.8964 26.5173 31.8927 26.4282C31.889 26.339 31.9028 26.25 31.9335 26.1662C31.9642 26.0825 32.0111 26.0055 32.0715 25.9399C32.1319 25.8742 32.2047 25.8211 32.2856 25.7835C32.3665 25.746 32.4541 25.7248 32.5432 25.721C32.6324 25.7173 32.7214 25.7312 32.8051 25.7619C32.8889 25.7926 32.9658 25.8395 33.0315 25.8999L35.7815 28.5499C35.8438 28.6113 35.8932 28.6845 35.927 28.7651C35.9608 28.8458 35.9781 28.9324 35.9781 29.0199C35.9781 29.1073 35.9608 29.1939 35.927 29.2746C35.8932 29.3553 35.8438 29.4285 35.7815 29.4899C35.7211 29.5537 35.6482 29.6044 35.5673 29.6388C35.4865 29.6732 35.3994 29.6906 35.3115 29.6899Z" fill="black"/>
<path d="M37.2716 27.6899C37.101 27.6907 36.9364 27.6263 36.8116 27.5099L34.0716 24.8999C34.006 24.8402 33.9527 24.7681 33.9149 24.6877C33.8771 24.6074 33.8555 24.5204 33.8513 24.4317C33.8472 24.3431 33.8605 24.2544 33.8906 24.1709C33.9206 24.0874 33.9669 24.0106 34.0266 23.9449C34.0864 23.8792 34.1585 23.826 34.2388 23.7882C34.3191 23.7504 34.4061 23.7288 34.4948 23.7246C34.5835 23.7204 34.6721 23.7338 34.7556 23.7638C34.8392 23.7939 34.916 23.8402 34.9816 23.8999L37.7816 26.5699C37.905 26.6952 37.9741 26.8641 37.9741 27.0399C37.9741 27.2158 37.905 27.3846 37.7816 27.5099C37.7141 27.5742 37.6338 27.6235 37.5459 27.6546C37.458 27.6856 37.3645 27.6976 37.2716 27.6899Z" fill="black"/>
<path d="M39.1417 24.9699C39.0138 24.9673 38.8891 24.9293 38.7817 24.8599L35.5916 22.8599C35.5175 22.8132 35.4534 22.7521 35.4031 22.6804C35.3529 22.6086 35.3174 22.5275 35.2988 22.4419C35.2801 22.3562 35.2788 22.2677 35.2947 22.1816C35.3107 22.0954 35.3436 22.0132 35.3917 21.9399C35.488 21.7927 35.6377 21.6885 35.8093 21.6494C35.9809 21.6102 36.1609 21.6391 36.3116 21.7299L39.5017 23.7299C39.6216 23.8087 39.7131 23.924 39.7627 24.0587C39.8122 24.1934 39.8172 24.3404 39.7769 24.4782C39.7366 24.6159 39.6531 24.7371 39.5387 24.8238C39.4244 24.9106 39.2852 24.9583 39.1417 24.9599V24.9699Z" fill="black"/>
<path d="M40.4117 21.8298C40.3357 21.8449 40.2576 21.8449 40.1817 21.8298L36.6417 20.4998C36.5593 20.4709 36.4836 20.4257 36.4191 20.3669C36.3546 20.3081 36.3026 20.237 36.2663 20.1576C36.2299 20.0783 36.2098 19.9925 36.2073 19.9052C36.2048 19.818 36.2199 19.7311 36.2517 19.6498C36.2817 19.5671 36.3279 19.4913 36.3876 19.4267C36.4474 19.3621 36.5194 19.3101 36.5995 19.2738C36.6797 19.2374 36.7663 19.2175 36.8542 19.2151C36.9422 19.2127 37.0297 19.2279 37.1117 19.2598L40.6517 20.5798C40.7943 20.6382 40.9125 20.7439 40.9862 20.8792C41.06 21.0145 41.0849 21.171 41.0567 21.3225C41.0286 21.474 40.949 21.6112 40.8315 21.7109C40.714 21.8106 40.5657 21.8667 40.4117 21.8698V21.8298Z" fill="black"/>
<path d="M41.2517 18.53H41.1717L37.4217 18.06C37.24 18.0387 37.0742 17.9462 36.9607 17.8028C36.8473 17.6593 36.7955 17.4766 36.8167 17.295C36.8379 17.1133 36.9304 16.9475 37.0739 16.834C37.2173 16.7206 37.4 16.6687 37.5817 16.69L41.3317 17.16C41.4947 17.1874 41.6419 17.2741 41.7449 17.4035C41.8478 17.5329 41.8993 17.6959 41.8893 17.8609C41.8794 18.026 41.8088 18.1815 41.6911 18.2977C41.5734 18.4138 41.4169 18.4823 41.2517 18.49V18.53Z" fill="black"/>
<path d="M37.7817 15.6899C37.6193 15.67 37.4699 15.5914 37.3615 15.4689C37.2532 15.3464 37.1934 15.1885 37.1934 15.0249C37.1934 14.8614 37.2532 14.7035 37.3615 14.581C37.4699 14.4585 37.6193 14.3799 37.7817 14.3599L41.5617 14.1899C41.6484 14.1859 41.735 14.199 41.8166 14.2285C41.8982 14.258 41.9732 14.3033 42.0373 14.3618C42.1014 14.4203 42.1533 14.4909 42.1901 14.5695C42.2269 14.6481 42.2478 14.7332 42.2517 14.8199C42.2599 14.996 42.1983 15.1682 42.0804 15.2993C41.9625 15.4303 41.7976 15.5096 41.6217 15.5199L37.7817 15.6899Z" fill="black"/>
</svg>
