<svg width="47" height="65" viewBox="0 0 47 65" fill="none" xmlns="http://www.w3.org/2000/svg">
<path d="M36.4267 6.6C36.3836 6.46261 36.3042 6.33942 36.1969 6.2434C36.0896 6.14738 35.9584 6.08211 35.817 6.05446C35.6757 6.02681 35.5296 6.03782 35.394 6.08631C35.2584 6.13481 35.1384 6.219 35.0467 6.33C34.5094 6.93928 33.7869 7.35534 32.9902 7.51431C32.1936 7.67329 31.3668 7.56638 30.6367 7.21C28.4153 6.306 25.9641 6.13092 23.6367 6.71C23.4325 6.771 23.2609 6.91063 23.1596 7.09816C23.0583 7.2857 23.0357 7.50578 23.0967 7.71C23.1577 7.91422 23.2973 8.08584 23.4849 8.18711C23.6724 8.28838 23.8925 8.311 24.0967 8.25C26.0935 7.76533 28.192 7.91922 30.0967 8.69C30.8416 9.03402 31.6555 9.20213 32.4757 9.18132C33.2959 9.16051 34.1003 8.95134 34.8267 8.57L35.1267 8.42L34.9567 8.75C34.6085 10.6191 33.6897 12.3344 32.3267 13.66C30.8067 15.09 28.1767 16.46 24.2667 14.92C22.6731 14.2175 20.9552 13.8406 19.2139 13.8114C17.4726 13.7822 15.743 14.1013 14.1267 14.75L13.5367 15.03L12.8167 15.39L13.3267 14.76C14.2098 13.6864 15.4051 12.914 16.7467 12.55C17.5928 12.3424 18.3834 11.9532 19.0638 11.4092C19.7442 10.8652 20.298 10.1796 20.6867 9.4C22.4767 5.77 20.5467 0.719999 20.4667 0.509999C20.4005 0.358266 20.2914 0.229177 20.1528 0.138577C20.0143 0.0479775 19.8523 -0.000186804 19.6867 5.44481e-07C19.5205 0.00483594 19.3598 0.0613686 19.2272 0.161736C19.0946 0.262104 18.9965 0.401316 18.9467 0.560002C18.471 1.7932 17.799 2.94135 16.9567 3.96C14.9304 6.46629 12.2264 8.33726 9.16672 9.35C7.58717 9.73137 6.18951 10.6504 5.21338 11.9495C4.23725 13.2485 3.74348 14.8467 3.81672 16.47V17.85L3.43672 16.52C3.169 15.5658 3.1313 14.5616 3.32672 13.59C3.72672 11.59 5.26672 10.48 7.04672 9.23C9.04672 7.85 11.2767 6.28 11.5367 3.11C11.5459 3.00494 11.5343 2.8991 11.5026 2.79852C11.4709 2.69795 11.4197 2.6046 11.3519 2.52381C11.2841 2.44302 11.2011 2.37638 11.1075 2.32768C11.014 2.27899 10.9118 2.24919 10.8067 2.24C10.7017 2.23081 10.5958 2.2424 10.4952 2.27411C10.3947 2.30582 10.3013 2.35703 10.2205 2.42482C10.1397 2.4926 10.0731 2.57564 10.0244 2.66918C9.97571 2.76272 9.94591 2.86494 9.93672 2.97C9.73672 5.39 8.06672 6.56 6.12672 7.97C4.18672 9.38 2.26672 10.67 1.75672 13.34C1.47318 14.7859 1.59912 16.2822 2.12034 17.6603C2.64156 19.0385 3.53734 20.2436 4.70672 21.14L4.81672 21.23L4.75672 21.35C3.75672 23.35 2.34672 27.28 3.39672 31.25C3.39203 31.2798 3.39203 31.3102 3.39672 31.34C3.98541 32.7368 4.34665 34.2189 4.46672 35.73C4.37672 36.31 3.12672 37.89 1.95672 39.32C0.336719 41.32 -0.123282 41.93 0.0267183 42.58C0.176718 43.23 1.18672 43.58 2.52672 43.98C2.78672 44.05 3.15672 44.14 3.45672 44.24L3.68672 44.31L3.55672 44.5C3.27461 44.8992 2.96732 45.28 2.63672 45.64C2.55207 45.7235 2.48879 45.8262 2.45223 45.9393C2.41568 46.0525 2.40693 46.1728 2.42672 46.29C2.4409 46.4071 2.48045 46.5196 2.54263 46.6198C2.60481 46.72 2.68812 46.8054 2.78672 46.87L4.13672 47.71L3.08672 49.31C3.02555 49.4091 2.98592 49.52 2.97042 49.6354C2.95491 49.7509 2.96387 49.8683 2.99672 49.98C3.02814 50.0894 3.08283 50.1907 3.15705 50.277C3.23127 50.3633 3.32326 50.4326 3.42672 50.48L5.16672 51.28V53.84C5.16672 55.54 5.32672 57.56 6.62672 58C6.85666 58.0691 7.09717 58.0962 7.33672 58.08C9.61912 57.9539 11.8927 57.7002 14.1467 57.32C15.3067 57.15 16.5267 56.96 17.7467 56.75H17.8867L17.9367 56.88C18.7555 59.0934 19.2897 61.4019 19.5267 63.75C19.5709 63.9453 19.6858 64.1174 19.8493 64.233C20.0129 64.3485 20.2135 64.3994 20.4123 64.3758C20.6112 64.3522 20.7942 64.2558 20.9262 64.1051C21.0581 63.9544 21.1296 63.7602 21.1267 63.56C20.8911 61.2039 20.3879 58.8822 19.6267 56.64L19.5567 56.44H19.7667C21.2867 56.17 22.4767 55.93 23.2067 55.75C23.3119 55.7244 23.4109 55.678 23.4978 55.6135C23.5847 55.549 23.6578 55.4678 23.7128 55.3746C23.7678 55.2813 23.8036 55.178 23.818 55.0708C23.8324 54.9635 23.8252 54.8544 23.7967 54.75C23.7711 54.6448 23.7247 54.5459 23.6602 54.4589C23.5958 54.372 23.5145 54.2989 23.4213 54.2439C23.3281 54.1889 23.2248 54.1531 23.1175 54.1387C23.0102 54.1243 22.9011 54.1315 22.7967 54.16C17.7179 55.2436 12.5787 56.0217 7.40672 56.49H7.18672V56.41C6.87077 55.5611 6.75111 54.6517 6.83672 53.75V50.69C6.8402 50.534 6.79742 50.3805 6.71378 50.2488C6.63014 50.1171 6.50937 50.0132 6.36672 49.95L5.00672 49.32L5.73672 48.19L9.36672 48.34C9.57992 48.3482 9.78774 48.2719 9.94501 48.1277C10.1023 47.9835 10.1963 47.7831 10.2067 47.57C10.2107 47.4649 10.194 47.3601 10.1575 47.2615C10.1209 47.1629 10.0653 47.0725 9.99379 46.9954C9.92227 46.9183 9.83626 46.8561 9.74067 46.8122C9.64509 46.7684 9.5418 46.7439 9.43672 46.74L5.54672 46.57L4.54672 45.92L4.65672 45.77C5.12208 45.2639 5.42511 44.63 5.52672 43.95C5.52672 43.04 4.62672 42.76 3.03672 42.34L2.14672 42.09L1.95672 42.06L2.09672 41.86C2.44672 41.39 2.96672 40.75 3.34672 40.28C4.99672 38.28 6.09672 36.83 6.19672 35.85C6.36672 34.3 5.27672 31.34 5.05672 30.76C3.92672 26.39 6.25672 21.62 7.79672 19.49C7.86 19.4067 7.90589 19.3116 7.93166 19.2102C7.95742 19.1089 7.96255 19.0034 7.94672 18.9C7.91341 18.6883 7.79854 18.4981 7.62672 18.37C7.45087 18.2508 7.23714 18.201 7.02672 18.23C6.92298 18.2456 6.82346 18.282 6.73411 18.337C6.64476 18.392 6.56742 18.4644 6.50672 18.55L6.29672 18.85L6.04672 19.22L5.93672 18.87C5.40081 17.3638 5.37271 15.7236 5.85672 14.2C6.22121 13.3872 6.76211 12.6658 7.44015 12.088C8.11819 11.5103 8.91636 11.0908 9.77672 10.86C13.7245 9.58626 17.105 6.97663 19.3367 3.48L19.5767 3.1L19.6567 3.54C20.0651 5.27705 19.9218 7.09822 19.2467 8.75C18.9564 9.32731 18.5424 9.83358 18.0343 10.2328C17.5262 10.6321 16.9363 10.9145 16.3067 11.06C14.7676 11.477 13.382 12.3305 12.3173 13.5177C11.2526 14.7048 10.5543 16.1747 10.3067 17.75C10.2851 17.9218 10.3198 18.096 10.4057 18.2464C10.4915 18.3969 10.6239 18.5153 10.7828 18.5841C10.9418 18.6529 11.1187 18.6682 11.2871 18.6278C11.4555 18.5874 11.6063 18.4934 11.7167 18.36C11.7167 18.31 16.0367 13.42 23.7167 16.44C28.6467 18.38 31.9367 16.28 33.4567 14.85C35.8767 12.57 37.1867 8.95 36.4267 6.6Z" fill="black"/>
<path d="M39.3464 63.8901C39.4193 64.0903 39.5688 64.2534 39.762 64.3434C39.9551 64.4334 40.1761 64.443 40.3764 64.3701C40.5766 64.2972 40.7397 64.1477 40.8297 63.9545C40.9197 63.7613 40.9293 63.5403 40.8564 63.3401L39.3564 59.1701C38.8447 57.7581 38.6975 56.2399 38.9282 54.7559C39.1589 53.2719 39.7602 51.8701 40.6764 50.6801C43.6764 46.8101 48.4164 38.7901 46.2764 28.4901C45.4158 24.5808 43.629 20.9352 41.0664 17.8601L40.9564 17.7501L41.1164 17.6401C42.45 16.7711 43.5326 15.5678 44.2564 14.1501C44.3359 13.9545 44.3359 13.7357 44.2564 13.5401C44.2252 13.4387 44.1736 13.3447 44.1048 13.2638C44.0361 13.183 43.9515 13.1171 43.8564 13.0701C43.7632 13.0214 43.6613 12.9916 43.5565 12.9824C43.4517 12.9731 43.3462 12.9846 43.2459 13.0162C43.1456 13.0478 43.0525 13.0988 42.9719 13.1664C42.8913 13.234 42.8249 13.3168 42.7764 13.4101C42.1406 14.6169 41.2089 15.6427 40.0685 16.3912C38.9282 17.1398 37.6165 17.5867 36.2564 17.6901C34.7696 17.8898 33.2603 17.8493 31.7864 17.5701C31.6799 17.542 31.5688 17.5359 31.4599 17.5522C31.351 17.5685 31.2465 17.6068 31.1529 17.6649C31.0593 17.7229 30.9786 17.7994 30.9155 17.8897C30.8525 17.98 30.8086 18.0822 30.7864 18.1901C30.7693 18.3916 30.8301 18.5921 30.9564 18.7501C31.0119 18.839 31.0848 18.9159 31.1707 18.976C31.2566 19.0362 31.3538 19.0784 31.4564 19.1001C32.4449 19.2899 33.4499 19.3803 34.4564 19.3701C35.1252 19.372 35.7934 19.3286 36.4564 19.2401C37.4475 19.1133 38.4186 18.8612 39.3464 18.4901H39.4664L39.5464 18.5801C42.0967 21.5229 43.8705 25.0568 44.7064 28.8601C46.7064 38.5301 42.2464 46.0801 39.4064 49.7301C39.3373 49.8229 39.2739 49.9197 39.2164 50.0201L39.0864 50.2001L38.9864 50.3501L38.8364 50.2401L28.8364 42.6001C28.6992 42.4927 28.5306 42.433 28.3564 42.4301C28.2319 42.4285 28.1089 42.4567 27.9975 42.5124C27.8862 42.568 27.7898 42.6496 27.7164 42.7501C27.588 42.9186 27.5317 43.1311 27.5598 43.3411C27.5879 43.5511 27.6982 43.7413 27.8664 43.8701L38.1864 51.7501L38.1264 51.8801C37.0269 54.3704 36.9267 57.188 37.8464 59.7501L39.3464 63.8901Z" fill="black"/>
<path d="M31.3064 36.0501C31.3069 35.3628 31.1033 34.6908 30.7214 34.1194C30.3396 33.5479 29.7966 33.1028 29.1614 32.8403C28.5262 32.5779 27.8273 32.51 27.1535 32.6453C26.4796 32.7805 25.8611 33.1128 25.3764 33.6001C25.2278 33.7525 25.1452 33.9573 25.1464 34.1701C25.1442 34.2766 25.1644 34.3824 25.2058 34.4806C25.2471 34.5788 25.3086 34.6672 25.3864 34.7401C25.46 34.8134 25.5474 34.8714 25.6435 34.9109C25.7395 34.9503 25.8425 34.9705 25.9464 34.9701C26.0529 34.9723 26.1587 34.952 26.2569 34.9107C26.3551 34.8694 26.4435 34.8078 26.5164 34.7301C26.7784 34.4729 27.1103 34.2985 27.4707 34.2286C27.8312 34.1588 28.2042 34.1966 28.5433 34.3374C28.8824 34.4781 29.1726 34.7156 29.3776 35.0202C29.5827 35.3248 29.6935 35.6829 29.6964 36.0501V38.0501C29.6966 38.4236 29.5844 38.7884 29.3744 39.0972C29.1643 39.4061 28.8662 39.6445 28.5188 39.7815C28.1714 39.9185 27.7908 39.9478 27.4265 39.8655C27.0622 39.7832 26.7311 39.5932 26.4764 39.3201C26.4059 39.2413 26.3196 39.1783 26.2231 39.1352C26.1266 39.0922 26.022 39.07 25.9164 39.0701C25.7161 39.0682 25.5227 39.1434 25.3764 39.2801C25.3008 39.3545 25.2407 39.4433 25.1998 39.5411C25.1588 39.639 25.1377 39.744 25.1377 39.8501C25.1377 39.9562 25.1588 40.0612 25.1998 40.1591C25.2407 40.2569 25.3008 40.3457 25.3764 40.4201C25.8522 40.927 26.4693 41.2793 27.1477 41.4313C27.8261 41.5833 28.5346 41.528 29.1812 41.2726C29.8278 41.0172 30.3828 40.5734 30.7742 39.9988C31.1656 39.4242 31.3754 38.7453 31.3764 38.0501L31.3064 36.0501Z" fill="black"/>
<path d="M29.5065 18.7499C29.4323 18.6409 29.3324 18.5519 29.2155 18.4908C29.0986 18.4298 28.9684 18.3985 28.8365 18.3999C28.6912 18.4002 28.5487 18.44 28.4243 18.5152C28.2999 18.5903 28.1984 18.6979 28.1305 18.8264C28.0627 18.9549 28.0311 19.0995 28.0392 19.2446C28.0473 19.3897 28.0948 19.5298 28.1765 19.6499C28.5546 20.2643 28.8189 20.9418 28.9565 21.6499C29.0939 22.2639 29.0466 22.9048 28.8206 23.492C28.5946 24.0792 28.2 24.5864 27.6865 24.9499C24.2065 27.6299 24.5965 30.4999 24.7665 31.2299L26.3065 30.7499C26.2065 30.1599 26.1165 28.2099 28.6665 26.2499C31.7165 23.8899 30.5465 20.3299 29.5065 18.7499Z" fill="black"/>
<path d="M35.4265 15.9999H35.7165C36.2365 15.9999 40.8165 15.8699 41.7165 11.4899C41.7581 11.2787 41.715 11.0596 41.5965 10.8799C41.5418 10.7913 41.4689 10.7151 41.3828 10.6565C41.2966 10.5979 41.199 10.5582 41.0965 10.5399C40.9899 10.5087 40.878 10.5003 40.768 10.5152C40.658 10.5302 40.5524 10.5681 40.458 10.6266C40.3637 10.6851 40.2827 10.7629 40.2204 10.8548C40.1581 10.9466 40.1159 11.0506 40.0965 11.1599C39.3865 14.4999 35.5965 14.3999 35.4265 14.3899C35.2143 14.3899 35.0108 14.4742 34.8608 14.6243C34.7107 14.7743 34.6265 14.9778 34.6265 15.1899C34.6265 15.4021 34.7107 15.6056 34.8608 15.7556C35.0108 15.9057 35.2143 15.9899 35.4265 15.9899V15.9999Z" fill="black"/>
<path d="M22.4166 26.52C22.7646 26.52 23.0466 26.238 23.0466 25.89C23.0466 25.5421 22.7646 25.26 22.4166 25.26C22.0687 25.26 21.7866 25.5421 21.7866 25.89C21.7866 26.238 22.0687 26.52 22.4166 26.52Z" fill="black"/>
<path d="M21.9567 28.6499C21.8321 28.6499 21.7103 28.6869 21.6067 28.7561C21.5031 28.8253 21.4223 28.9237 21.3746 29.0388C21.3269 29.1539 21.3145 29.2806 21.3388 29.4028C21.3631 29.525 21.4231 29.6373 21.5112 29.7254C21.5993 29.8135 21.7115 29.8735 21.8338 29.8978C21.956 29.9221 22.0826 29.9096 22.1978 29.8619C22.3129 29.8143 22.4113 29.7335 22.4805 29.6299C22.5497 29.5263 22.5867 29.4045 22.5867 29.2799C22.5867 29.1128 22.5203 28.9526 22.4021 28.8344C22.284 28.7163 22.1237 28.6499 21.9567 28.6499Z" fill="black"/>
<path d="M20.0065 27.49C20.3544 27.49 20.6365 27.2079 20.6365 26.86C20.6365 26.512 20.3544 26.23 20.0065 26.23C19.6585 26.23 19.3765 26.512 19.3765 26.86C19.3765 27.2079 19.6585 27.49 20.0065 27.49Z" fill="black"/>
<path d="M17.9567 23.6299C17.8321 23.6299 17.7103 23.6668 17.6067 23.7361C17.5031 23.8053 17.4223 23.9037 17.3746 24.0188C17.3269 24.1339 17.3145 24.2606 17.3388 24.3828C17.3631 24.505 17.4231 24.6173 17.5112 24.7054C17.5993 24.7935 17.7115 24.8535 17.8338 24.8778C17.956 24.9021 18.0826 24.8896 18.1978 24.8419C18.3129 24.7942 18.4113 24.7135 18.4805 24.6099C18.5497 24.5063 18.5867 24.3845 18.5867 24.2599C18.5867 24.0928 18.5203 23.9326 18.4021 23.8144C18.284 23.6963 18.1237 23.6299 17.9567 23.6299Z" fill="black"/>
<path d="M14.9864 23.26C15.3344 23.26 15.6164 22.9779 15.6164 22.63C15.6164 22.2821 15.3344 22 14.9864 22C14.6385 22 14.3564 22.2821 14.3564 22.63C14.3564 22.9779 14.6385 23.26 14.9864 23.26Z" fill="black"/>
<path d="M11.6363 22.6399C11.9843 22.6399 12.2663 22.3578 12.2663 22.0099C12.2663 21.6619 11.9843 21.3799 11.6363 21.3799C11.2884 21.3799 11.0063 21.6619 11.0063 22.0099C11.0063 22.3578 11.2884 22.6399 11.6363 22.6399Z" fill="black"/>
<path d="M8.46642 21.1799C8.34182 21.1799 8.22002 21.2169 8.11642 21.2861C8.01282 21.3553 7.93207 21.4537 7.88438 21.5688C7.8367 21.684 7.82422 21.8106 7.84853 21.9328C7.87284 22.055 7.93284 22.1673 8.02095 22.2554C8.10906 22.3435 8.22131 22.4035 8.34352 22.4278C8.46573 22.4521 8.5924 22.4397 8.70752 22.392C8.82263 22.3443 8.92103 22.2635 8.99025 22.1599C9.05948 22.0563 9.09643 21.9345 9.09643 21.8099C9.09643 21.6428 9.03005 21.4826 8.9119 21.3645C8.79376 21.2463 8.63351 21.1799 8.46642 21.1799Z" fill="black"/>
<path d="M23.3966 31.48C23.2295 31.48 23.0693 31.5463 22.9511 31.6645C22.833 31.7826 22.7666 31.9429 22.7666 32.11C22.7666 32.2771 22.833 32.4373 22.9511 32.5555C23.0693 32.6736 23.2295 32.74 23.3966 32.74C23.5637 32.74 23.7239 32.6736 23.8421 32.5555C23.9602 32.4373 24.0266 32.2771 24.0266 32.11C24.0266 31.9429 23.9602 31.7826 23.8421 31.6645C23.7239 31.5463 23.5637 31.48 23.3966 31.48Z" fill="black"/>
<path d="M25.1866 24.1999C25.5346 24.1999 25.8166 23.9179 25.8166 23.5699C25.8166 23.222 25.5346 22.9399 25.1866 22.9399C24.8387 22.9399 24.5566 23.222 24.5566 23.5699C24.5566 23.9179 24.8387 24.1999 25.1866 24.1999Z" fill="black"/>
<path d="M25.7765 19.1399C25.6094 19.1399 25.4491 19.2063 25.331 19.3244C25.2129 19.4426 25.1465 19.6028 25.1465 19.7699C25.1465 19.937 25.2129 20.0972 25.331 20.2154C25.4491 20.3335 25.6094 20.3999 25.7765 20.3999C25.9436 20.3999 26.1038 20.3335 26.222 20.2154C26.3401 20.0972 26.4065 19.937 26.4065 19.7699C26.4065 19.6028 26.3401 19.4426 26.222 19.3244C26.1038 19.2063 25.9436 19.1399 25.7765 19.1399Z" fill="black"/>
<path d="M22.8566 21.1699C23.2045 21.1699 23.4866 20.8879 23.4866 20.5399C23.4866 20.192 23.2045 19.9099 22.8566 19.9099C22.5086 19.9099 22.2266 20.192 22.2266 20.5399C22.2266 20.8879 22.5086 21.1699 22.8566 21.1699Z" fill="black"/>
<path d="M20.4664 21.75C20.2993 21.75 20.1391 21.8164 20.021 21.9345C19.9028 22.0527 19.8364 22.2129 19.8364 22.38C19.8364 22.5046 19.8734 22.6264 19.9426 22.73C20.0118 22.8336 20.1102 22.9144 20.2253 22.962C20.3405 23.0097 20.4671 23.0222 20.5893 22.9979C20.7115 22.9736 20.8238 22.9136 20.9119 22.8255C21 22.7374 21.06 22.6251 21.0843 22.5029C21.1086 22.3807 21.0962 22.254 21.0485 22.1389C21.0008 22.0238 20.92 21.9254 20.8164 21.8562C20.7128 21.7869 20.591 21.75 20.4664 21.75Z" fill="black"/>
<path d="M17.6266 20.6399C17.9745 20.6399 18.2566 20.3578 18.2566 20.0099C18.2566 19.6619 17.9745 19.3799 17.6266 19.3799C17.2786 19.3799 16.9966 19.6619 16.9966 20.0099C16.9966 20.3578 17.2786 20.6399 17.6266 20.6399Z" fill="black"/>
<path d="M13.9366 19.77C14.2846 19.77 14.5666 19.488 14.5666 19.14C14.5666 18.7921 14.2846 18.51 13.9366 18.51C13.5887 18.51 13.3066 18.7921 13.3066 19.14C13.3066 19.488 13.5887 19.77 13.9366 19.77Z" fill="black"/>
<path d="M20.1764 18.28C20.5243 18.28 20.8064 17.998 20.8064 17.65C20.8064 17.3021 20.5243 17.02 20.1764 17.02C19.8285 17.02 19.5464 17.3021 19.5464 17.65C19.5464 17.998 19.8285 18.28 20.1764 18.28Z" fill="black"/>
</svg>
