<svg width="57" height="55" viewBox="0 0 57 55" fill="none" xmlns="http://www.w3.org/2000/svg">
<path fill-rule="evenodd" clip-rule="evenodd" d="M18.1399 34.6698C17.8266 34.6678 17.5197 34.7591 17.2584 34.9319C16.997 35.1048 16.793 35.3514 16.6721 35.6405C16.5513 35.9296 16.5192 36.2482 16.5798 36.5556C16.6405 36.863 16.7912 37.1454 17.0127 37.367C17.2343 37.5886 17.5167 37.7393 17.8242 37.7999C18.1316 37.8605 18.4501 37.8284 18.7392 37.7076C19.0283 37.5868 19.275 37.3827 19.4478 37.1214C19.6207 36.86 19.7119 36.5531 19.7099 36.2398C19.7099 35.8234 19.5445 35.4241 19.2501 35.1296C18.9556 34.8352 18.5563 34.6698 18.1399 34.6698ZM8.99992 34.6698C8.60388 34.7014 8.23427 34.881 7.96474 35.1729C7.6952 35.4648 7.54552 35.8475 7.54552 36.2448C7.54552 36.6421 7.6952 37.0248 7.96474 37.3167C8.23427 37.6086 8.60388 37.7882 8.99992 37.8198C9.21731 37.8371 9.43592 37.8093 9.64202 37.738C9.84811 37.6667 10.0372 37.5535 10.1974 37.4056C10.3576 37.2576 10.4855 37.0781 10.5729 36.8784C10.6604 36.6786 10.7055 36.4629 10.7055 36.2448C10.7055 36.0267 10.6604 35.811 10.5729 35.6112C10.4855 35.4115 10.3576 35.232 10.1974 35.084C10.0372 34.9361 9.84811 34.8229 9.64202 34.7516C9.43592 34.6803 9.21731 34.6525 8.99992 34.6698ZM27.3299 26.0698C27.0174 26.0698 26.712 26.1625 26.4521 26.3361C26.1923 26.5097 25.9898 26.7565 25.8702 27.0452C25.7506 27.3339 25.7193 27.6516 25.7803 27.9581C25.8412 28.2645 25.9917 28.5461 26.2127 28.767C26.4337 28.988 26.7152 29.1385 27.0217 29.1994C27.3282 29.2604 27.6459 29.2291 27.9346 29.1095C28.2233 28.9899 28.47 28.7874 28.6436 28.5276C28.8173 28.2678 28.9099 27.9623 28.9099 27.6498C28.9182 27.4352 28.8824 27.2212 28.8047 27.021C28.7269 26.8209 28.609 26.6388 28.4581 26.486C28.3072 26.3332 28.1265 26.213 27.9273 26.1328C27.7281 26.0526 27.5146 26.0142 27.2999 26.0198L27.3299 26.0698ZM18.1699 26.0698C17.857 26.0678 17.5506 26.1588 17.2894 26.3312C17.0283 26.5036 16.8242 26.7497 16.7031 27.0382C16.582 27.3267 16.5492 27.6447 16.6091 27.9519C16.6689 28.259 16.8186 28.5415 17.0392 28.7634C17.2597 28.9854 17.5412 29.1369 17.848 29.1987C18.1547 29.2605 18.4729 29.2298 18.7622 29.1105C19.0515 28.9912 19.2989 28.7887 19.4729 28.5286C19.647 28.2686 19.7399 27.9627 19.7399 27.6498C19.7467 27.4365 19.7102 27.2239 19.6325 27.0251C19.5549 26.8263 19.4378 26.6452 19.2883 26.4929C19.1387 26.3405 18.9599 26.2201 18.7625 26.1388C18.5652 26.0575 18.3534 26.017 18.1399 26.0198L18.1699 26.0698ZM8.99992 26.0698C8.68743 26.0698 8.38195 26.1625 8.12212 26.3361C7.86229 26.5097 7.65978 26.7565 7.54019 27.0452C7.42061 27.3339 7.38932 27.6516 7.45028 27.9581C7.51125 28.2645 7.66173 28.5461 7.88269 28.767C8.10366 28.988 8.38519 29.1385 8.69168 29.1994C8.99817 29.2604 9.31586 29.2291 9.60456 29.1095C9.89327 28.9899 10.14 28.7874 10.3136 28.5276C10.4873 28.2678 10.5799 27.9623 10.5799 27.6498C10.588 27.4378 10.5531 27.2263 10.4772 27.0282C10.4013 26.8301 10.2861 26.6494 10.1384 26.497C9.99071 26.3447 9.8137 26.2239 9.61803 26.1418C9.42235 26.0598 9.21208 26.0183 8.99992 26.0198V26.0698ZM36.4999 20.6298C36.8133 20.6318 37.1201 20.5405 37.3815 20.3677C37.6428 20.1948 37.8469 19.9482 37.9677 19.6591C38.0885 19.37 38.1207 19.0515 38.06 18.744C37.9994 18.4366 37.8487 18.1542 37.6271 17.9326C37.4056 17.711 37.1231 17.5604 36.8157 17.4997C36.5083 17.4391 36.1898 17.4712 35.9006 17.592C35.6115 17.7128 35.3649 17.9169 35.192 18.1783C35.0192 18.4396 34.9279 18.7465 34.9299 19.0598C34.9427 19.4623 35.1096 19.8446 35.3963 20.1275C35.6829 20.4104 36.0673 20.5723 36.4699 20.5798L36.4999 20.6298ZM27.2999 17.4298C26.9874 17.4298 26.6819 17.5225 26.4221 17.6961C26.1623 17.8697 25.9598 18.1165 25.8402 18.4052C25.7206 18.6939 25.6893 19.0116 25.7503 19.318C25.8112 19.6245 25.9617 19.9061 26.1827 20.127C26.4037 20.348 26.6852 20.4985 26.9917 20.5594C27.2982 20.6204 27.6159 20.5891 27.9046 20.4695C28.1933 20.3499 28.44 20.1474 28.6136 19.8876C28.7873 19.6278 28.8799 19.3223 28.8799 19.0098C28.8812 18.8019 28.8413 18.5959 28.7624 18.4036C28.6834 18.2113 28.5671 18.0366 28.4201 17.8896C28.2731 17.7426 28.0984 17.6263 27.9061 17.5474C27.7138 17.4684 27.5078 17.4285 27.2999 17.4298ZM18.1399 17.4298C17.9225 17.4125 17.7039 17.4403 17.4978 17.5116C17.2917 17.5829 17.1026 17.6961 16.9424 17.844C16.7822 17.992 16.6544 18.1715 16.5669 18.3712C16.4795 18.571 16.4343 18.7867 16.4343 19.0048C16.4343 19.2229 16.4795 19.4386 16.5669 19.6384C16.6544 19.8381 16.7822 20.0176 16.9424 20.1656C17.1026 20.3135 17.2917 20.4267 17.4978 20.498C17.7039 20.5693 17.9225 20.5971 18.1399 20.5798C18.536 20.5482 18.9056 20.3686 19.1751 20.0767C19.4446 19.7848 19.5943 19.4021 19.5943 19.0048C19.5943 18.6075 19.4446 18.2248 19.1751 17.9329C18.9056 17.641 18.536 17.4614 18.1399 17.4298ZM36.4699 26.0198C36.1574 26.0198 35.852 26.1125 35.5921 26.2861C35.3323 26.4597 35.1298 26.7065 35.0102 26.9952C34.8906 27.2839 34.8593 27.6016 34.9203 27.908C34.9812 28.2145 35.1317 28.4961 35.3527 28.717C35.5737 28.938 35.8552 29.0885 36.1617 29.1494C36.4682 29.2104 36.7859 29.1791 37.0746 29.0595C37.3633 28.94 37.61 28.7374 37.7836 28.4776C37.9573 28.2178 38.0499 27.9123 38.0499 27.5998C38.0513 27.3919 38.0113 27.1859 37.9324 26.9936C37.8534 26.8013 37.7371 26.6266 37.5901 26.4796C37.4431 26.3326 37.2684 26.2163 37.0761 26.1374C36.8838 26.0584 36.6778 26.0185 36.4699 26.0198ZM27.2999 34.6698C26.9039 34.7014 26.5343 34.881 26.2647 35.1729C25.9952 35.4648 25.8455 35.8475 25.8455 36.2448C25.8455 36.6421 25.9952 37.0248 26.2647 37.3167C26.5343 37.6086 26.9039 37.7882 27.2999 37.8198C27.5173 37.8371 27.7359 37.8093 27.942 37.738C28.1481 37.6667 28.3372 37.5535 28.4974 37.4056C28.6576 37.2576 28.7855 37.0781 28.8729 36.8784C28.9604 36.6786 29.0055 36.4629 29.0055 36.2448C29.0055 36.0267 28.9604 35.811 28.8729 35.6112C28.7855 35.4115 28.6576 35.232 28.4974 35.084C28.3372 34.9361 28.1481 34.8229 27.942 34.7516C27.7359 34.6803 27.5173 34.6525 27.2999 34.6698Z" fill="black"/>
<path fill-rule="evenodd" clip-rule="evenodd" d="M9.15 3.43H3.67C2.69482 3.43528 1.76139 3.82638 1.0737 4.51782C0.386007 5.20926 -1.43238e-05 6.14481 3.98636e-10 7.12V40.35C3.98636e-10 41.326 0.387713 42.262 1.07785 42.9521C1.76798 43.6423 2.704 44.03 3.68 44.03H33V44.3C33.3649 46.5214 34.3473 48.5953 35.835 50.2849C37.3226 51.9744 39.2555 53.2114 41.4128 53.8546C43.5701 54.4978 45.8649 54.5211 48.0348 53.922C50.2048 53.3229 52.1625 52.1255 53.6842 50.4666C55.206 48.8077 56.2304 46.7542 56.6405 44.5408C57.0506 42.3273 56.8298 40.0431 56.0033 37.9491C55.1768 35.8552 53.778 34.036 51.9667 32.6993C50.1553 31.3626 48.0045 30.5623 45.76 30.39H45.46V7.12C45.4574 6.14216 45.0678 5.20513 44.3763 4.51369C43.6849 3.82225 42.7478 3.43264 41.77 3.43H36.29V0.82C36.29 0.602522 36.2036 0.393949 36.0498 0.24017C35.896 0.0863897 35.6875 0 35.47 0C35.2525 0 35.044 0.0863897 34.8902 0.24017C34.7364 0.393949 34.65 0.602522 34.65 0.82V3.43H10.79V0.82C10.79 0.712316 10.7688 0.605686 10.7276 0.506199C10.6864 0.406712 10.626 0.316314 10.5498 0.24017C10.4737 0.164025 10.3833 0.103625 10.2838 0.0624161C10.1843 0.0212072 10.0777 0 9.97 0C9.86232 0 9.75569 0.0212072 9.6562 0.0624161C9.55671 0.103625 9.46632 0.164025 9.39017 0.24017C9.31403 0.316314 9.25363 0.406712 9.21242 0.506199C9.17121 0.605686 9.15 0.712316 9.15 0.82V3.43ZM32.94 42.07V42.39H4C3.38205 42.39 2.7894 42.1445 2.35244 41.7076C1.91548 41.2706 1.67 40.678 1.67 40.06V12.81H43.81V30.41H43.53C40.6554 30.7494 38.0003 32.1165 36.0542 34.2593C34.108 36.4021 33.002 39.176 32.94 42.07ZM44.94 32C46.9862 32.004 48.9853 32.6143 50.6847 33.754C52.3841 34.8937 53.7076 36.5115 54.4879 38.4031C55.2682 40.2946 55.4703 42.375 55.0687 44.3814C54.6671 46.3878 53.6798 48.2301 52.2315 49.6756C50.7832 51.1211 48.939 52.1048 46.9318 52.5026C44.9247 52.9003 42.8447 52.6942 40.9546 51.9102C39.0646 51.1263 37.4493 49.7997 36.3129 48.0981C35.1765 46.3965 34.57 44.3962 34.57 42.35C34.5726 39.6058 35.6639 36.9748 37.6044 35.0344C39.5448 33.0939 42.1758 32.0026 44.92 32H44.94ZM10 8.51C10.2175 8.51 10.426 8.4236 10.5798 8.26982C10.7336 8.11605 10.82 7.90748 10.82 7.69V5.07H34.65V7.67C34.65 7.88748 34.7364 8.09604 34.8902 8.24982C35.044 8.4036 35.2525 8.49 35.47 8.49C35.6875 8.49 35.896 8.4036 36.0498 8.24982C36.2036 8.09604 36.29 7.88748 36.29 7.67V5.07H41.48C42.098 5.07 42.6906 5.31548 43.1276 5.75244C43.5645 6.1894 43.81 6.78204 43.81 7.4V11.17H1.63V7.4C1.62996 7.09062 1.69152 6.78434 1.81111 6.49901C1.93069 6.21368 2.10591 5.95503 2.32652 5.73814C2.54714 5.52124 2.80874 5.35046 3.09606 5.23574C3.38338 5.12103 3.69067 5.06469 4 5.07H9.19V7.67C9.18734 7.77852 9.20626 7.88648 9.24566 7.98763C9.28505 8.08878 9.34413 8.18111 9.41948 8.25925C9.49483 8.33739 9.58494 8.39979 9.6846 8.44283C9.78425 8.48588 9.89146 8.50871 10 8.51Z" fill="black"/>
<path fill-rule="evenodd" clip-rule="evenodd" d="M43.8101 43.21C43.8127 43.4284 43.9013 43.637 44.0567 43.7905C44.212 43.944 44.4217 44.03 44.6401 44.03H50.0801C50.2975 44.03 50.5061 43.9436 50.6599 43.7899C50.8137 43.6361 50.9001 43.4275 50.9001 43.21C50.9001 42.9926 50.8137 42.784 50.6599 42.6302C50.5061 42.4764 50.2975 42.39 50.0801 42.39H45.4601V35.76C45.4377 35.5569 45.3411 35.3691 45.1889 35.2328C45.0366 35.0964 44.8394 35.021 44.6351 35.021C44.4307 35.021 44.2335 35.0964 44.0813 35.2328C43.929 35.3691 43.8325 35.5569 43.8101 35.76V43.21Z" fill="black"/>
</svg>
