<svg width="62" height="56" viewBox="0 0 62 56" fill="none" xmlns="http://www.w3.org/2000/svg">
<path d="M17.85 45.5007L15.02 47.3607C15.02 47.3607 15.26 49.0707 12.63 50.8607C11.8 51.4207 10.52 52.2307 9.46 52.8607C8.38512 53.545 7.17073 53.9801 5.90586 54.1341C4.64098 54.2881 3.35767 54.1571 2.15 53.7507L1.76 53.6007C1.49943 53.5004 1.24558 53.3835 1 53.2507L11.1 46.6507L15.2 43.9707" stroke="black" stroke-width="1.6" stroke-linecap="round" stroke-linejoin="round"/>
<path d="M22.1898 38.7307L15.4998 43.1207C15.4194 43.1769 15.3537 43.2518 15.3083 43.3388C15.2629 43.4258 15.2393 43.5226 15.2393 43.6207C15.2393 43.7189 15.2629 43.8156 15.3083 43.9026C15.3537 43.9897 15.4194 44.0645 15.4998 44.1207L18.2098 45.6207C18.3053 45.677 18.414 45.7067 18.5248 45.7067C18.6356 45.7067 18.7444 45.677 18.8398 45.6207L23.4298 42.6207" stroke="black" stroke-width="1.6" stroke-linecap="round" stroke-linejoin="round"/>
<path d="M56.6499 13.5906L58.0099 15.6806" stroke="black" stroke-width="1.6" stroke-linecap="round" stroke-linejoin="round"/>
<path d="M18.1499 41.3607L13.9899 36.6907C13.2544 35.8824 12.7109 34.9184 12.3999 33.8707C12.3999 33.8707 12.3999 33.8707 12.3999 33.8707C12.133 32.9218 12.0282 31.9346 12.0899 30.9507C12.1512 29.9762 12.3777 29.0192 12.7599 28.1207L17.3799 17.3007C17.8804 16.1203 18.7234 15.1171 19.7999 14.4207C20.3204 14.0629 20.8942 13.7896 21.4999 13.6107L41.8599 7.43071C43.8549 6.81632 45.7535 5.92424 47.4999 4.78071L49.8699 3.23071L53.7699 9.23071" stroke="black" stroke-width="1.6" stroke-linecap="round" stroke-linejoin="round"/>
<path d="M22.2798 38.6407C21.3334 36.2756 19.891 34.141 18.0498 32.3807C18.0498 32.3807 20.3698 30.8707 22.4298 25.1907C22.4298 25.1907 31.0098 24.4907 32.2898 23.5207L31.4198 22.1807" stroke="black" stroke-width="1.6" stroke-linecap="round" stroke-linejoin="round"/>
<path d="M22.4301 25.1905C22.117 25.057 21.8342 24.8615 21.5987 24.6157C21.3632 24.3699 21.18 24.079 21.0601 23.7605" stroke="black" stroke-width="1.6" stroke-linecap="round" stroke-linejoin="round"/>
<path d="M18.0501 32.3806C18.0501 32.3806 17.0501 32.6506 16.8901 32.3806" stroke="black" stroke-width="1.6" stroke-linecap="round" stroke-linejoin="round"/>
<path d="M32.2698 26.7805C31.3686 27.1786 30.4101 27.4317 29.4298 27.5305C28.657 27.6055 27.8778 27.5854 27.1098 27.4705C26.7321 28.3695 26.2629 29.2274 25.7098 30.0305C25.0371 31.0001 24.2516 31.8863 23.3698 32.6705C22.4068 34.0504 22.0062 35.7456 22.2498 37.4105" stroke="black" stroke-width="1.6" stroke-linecap="round" stroke-linejoin="round"/>
<path d="M27.0901 41.9207C27.7027 42.3856 28.1877 42.9979 28.5001 43.7007C28.5901 44.0564 28.5705 44.4311 28.4438 44.7755C28.3171 45.12 28.0892 45.418 27.7901 45.6307C27.5145 45.8164 27.1951 45.927 26.8637 45.9516C26.5322 45.9762 26.2001 45.9138 25.9001 45.7707C25.0801 45.3907 24.2401 45.0307 23.4101 44.6607L21.5801 43.8407" stroke="black" stroke-width="1.6" stroke-linecap="round" stroke-linejoin="round"/>
<path d="M31.1599 37.1807C33.1599 38.0107 33.1599 38.6207 33.2399 39.1807C33.2638 39.5068 33.1947 39.833 33.0408 40.1215C32.8868 40.41 32.6542 40.649 32.3699 40.8107C32.0382 40.9957 31.6582 41.0759 31.2799 41.0407L28.4999 40.8607L27.1899 40.5007" stroke="black" stroke-width="1.6" stroke-linecap="round" stroke-linejoin="round"/>
<path d="M34.2099 34.6707L34.9799 35.2506C35.2015 35.5021 35.338 35.817 35.3699 36.1507C35.3872 36.3796 35.3589 36.6097 35.2869 36.8276C35.2148 37.0456 35.1003 37.2471 34.9499 37.4207C34.7421 37.6454 34.4813 37.8144 34.1913 37.9122C33.9013 38.01 33.5914 38.0336 33.2899 37.9807L32.4999 37.8507H32.4399" stroke="black" stroke-width="1.6" stroke-linecap="round" stroke-linejoin="round"/>
<path d="M27.1101 27.4706C27.1101 27.4706 26.4301 27.1906 26.3101 26.8406" stroke="black" stroke-width="1.6" stroke-linecap="round" stroke-linejoin="round"/>
<path d="M23.3702 32.6706C23.1702 32.7561 22.9477 32.774 22.7366 32.7217C22.5254 32.6694 22.3371 32.5496 22.2002 32.3806" stroke="black" stroke-width="1.6" stroke-linecap="round" stroke-linejoin="round"/>
<path d="M32.29 23.5206C32.29 23.5206 34.61 25.3606 29.8 29.6806C29.8 29.6806 19.99 37.6806 22.27 41.8306C22.4045 42.0362 22.5782 42.2133 22.7812 42.3517C22.9842 42.4901 23.2125 42.5872 23.4531 42.6373C23.6936 42.6875 23.9417 42.6897 24.1831 42.644C24.4245 42.5982 24.6545 42.5053 24.86 42.3706L25.03 42.2506L28.43 38.8606C29.38 37.9906 30.68 36.8606 32.29 35.6206C34.1858 34.1373 36.1916 32.8001 38.29 31.6206C40.95 30.1406 43.92 29.3106 46.48 27.6206C50 25.3806 52.48 22.1606 54.98 18.9206C55.8122 17.6543 56.8498 16.5356 58.05 15.6106L58.3 15.9906C58.3901 16.1303 58.5071 16.2508 58.644 16.345C58.781 16.4393 58.9352 16.5056 59.0979 16.54C59.2606 16.5744 59.4285 16.5762 59.5919 16.5454C59.7553 16.5147 59.911 16.4518 60.05 16.3606L60.47 16.0906C60.6089 15.9996 60.7284 15.8821 60.8217 15.7448C60.9151 15.6075 60.9803 15.4531 61.0138 15.2904C61.0472 15.1278 61.0482 14.9602 61.0167 14.7972C60.9851 14.6342 60.9217 14.479 60.83 14.3406L52.42 1.58059C52.3307 1.43984 52.2142 1.31837 52.0773 1.22331C51.9405 1.12824 51.7859 1.06151 51.6229 1.02704C51.4598 0.992561 51.2915 0.991042 51.1279 1.02256C50.9642 1.05409 50.8085 1.11802 50.67 1.21059L50.26 1.48059C50.1203 1.57077 49.9998 1.68771 49.9055 1.82466C49.8112 1.96161 49.745 2.11587 49.7106 2.27855C49.6762 2.44123 49.6743 2.6091 49.7051 2.7725C49.7359 2.9359 49.7987 3.09159 49.89 3.23059" stroke="black" stroke-width="1.6" stroke-linecap="round" stroke-linejoin="round"/>
<path d="M46.8799 54.2407H49.8199" stroke="black" stroke-width="1.6" stroke-linecap="round" stroke-linejoin="round"/>
<path d="M52.6699 54.2407H55.6099" stroke="black" stroke-width="1.6" stroke-linecap="round" stroke-linejoin="round"/>
<path d="M11.5801 54.2407H14.5201" stroke="black" stroke-width="1.6" stroke-linecap="round" stroke-linejoin="round"/>
<path d="M17.4702 54.2407H20.4102" stroke="black" stroke-width="1.6" stroke-linecap="round" stroke-linejoin="round"/>
<path d="M23.3599 54.2407H26.2999" stroke="black" stroke-width="1.6" stroke-linecap="round" stroke-linejoin="round"/>
<path d="M29.25 54.2407H32.19" stroke="black" stroke-width="1.6" stroke-linecap="round" stroke-linejoin="round"/>
<path d="M35.1401 54.2407H38.0801" stroke="black" stroke-width="1.6" stroke-linecap="round" stroke-linejoin="round"/>
<path d="M41.0298 54.2407H43.9698" stroke="black" stroke-width="1.6" stroke-linecap="round" stroke-linejoin="round"/>
</svg>
