<svg width="62" height="55" viewBox="0 0 62 55" fill="none" xmlns="http://www.w3.org/2000/svg">
<path d="M60.134 16.9796C59.9215 16.9805 59.7175 17.0628 59.564 17.2096L59.124 17.6496C58.9891 17.7856 58.8287 17.8936 58.6519 17.9673C58.4751 18.041 58.2855 18.079 58.094 18.079C57.9024 18.079 57.7128 18.041 57.536 17.9673C57.3592 17.8936 57.1988 17.7856 57.064 17.6496L44.334 4.91956C44.1979 4.78475 44.0899 4.62431 44.0162 4.44752C43.9425 4.27073 43.9046 4.0811 43.9046 3.88956C43.9046 3.69802 43.9425 3.50838 44.0162 3.3316C44.0899 3.15481 44.1979 2.99437 44.334 2.85956L44.774 2.41956C44.8823 2.30648 44.9556 2.16441 44.9848 2.01056C45.0141 1.8567 44.9981 1.69766 44.9389 1.5527C44.8796 1.40773 44.7796 1.28305 44.6509 1.19375C44.5223 1.10445 44.3705 1.05437 44.214 1.04956C44.1078 1.04974 44.0027 1.07105 43.9048 1.11225C43.807 1.15346 43.7183 1.21373 43.644 1.28956L43.204 1.72956C42.9182 2.01308 42.6915 2.35035 42.5367 2.72193C42.382 3.09351 42.3023 3.49204 42.3023 3.89456C42.3023 4.29707 42.382 4.69561 42.5367 5.06719C42.6915 5.43877 42.9182 5.77604 43.204 6.05956L54.954 17.8096L53.594 21.3296C52.7727 23.2767 51.6151 25.064 50.174 26.6096L40.494 36.2996C38.9188 37.8151 37.2008 39.1747 35.364 40.3596L22.704 48.1796C22.0258 48.553 21.248 48.7055 20.479 48.6159C19.71 48.5263 18.9881 48.199 18.414 47.6796L16.664 45.9396C16.514 45.7899 16.3108 45.7059 16.099 45.7059C15.8871 45.7059 15.6839 45.7899 15.534 45.9396C15.3867 46.0908 15.3044 46.2935 15.3044 46.5046C15.3044 46.7156 15.3867 46.9183 15.534 47.0696L16.274 47.8096L14.684 48.8696L13.114 47.2996L14.724 44.8996C14.8241 44.7465 14.8688 44.5638 14.8506 44.3819C14.8324 44.1999 14.7524 44.0297 14.624 43.8996L14.304 43.5596C13.7846 42.9854 13.4572 42.2636 13.3676 41.4946C13.278 40.7256 13.4305 39.9477 13.804 39.2696L21.624 26.6296C22.8105 24.8125 24.1702 23.1146 25.684 21.5596L35.374 11.8696C35.6886 11.5494 36.0226 11.2489 36.374 10.9696L48.644 23.1596C48.7183 23.2354 48.807 23.2957 48.9048 23.3369C49.0027 23.3781 49.1078 23.3994 49.214 23.3996C49.4261 23.3996 49.6296 23.3153 49.7796 23.1652C49.9297 23.0152 50.014 22.8117 50.014 22.5996C50.0157 22.494 49.9962 22.3892 49.9567 22.2913C49.9172 22.1934 49.8584 22.1044 49.784 22.0296L37.714 9.96956C38.6374 9.34386 39.6226 8.81443 40.654 8.38956L41.884 7.91956C42.0829 7.84265 42.2431 7.68987 42.3293 7.49483C42.4156 7.29979 42.4209 7.07847 42.344 6.87956C42.267 6.68065 42.1143 6.52043 41.9192 6.43417C41.7242 6.3479 41.5029 6.34265 41.304 6.41956L40.084 6.88956C37.9291 7.7988 35.952 9.08188 34.244 10.6796L24.554 20.3796C22.9508 22.0447 21.5109 23.8597 20.254 25.7996L12.494 38.4396C11.9284 39.3861 11.6753 40.4867 11.7704 41.5852C11.8656 42.6837 12.3041 43.7243 13.024 44.5596L11.424 46.9696C11.3238 47.1226 11.2791 47.3053 11.2973 47.4872C11.3155 47.6692 11.3955 47.8394 11.524 47.9696L12.204 48.6496L9.72396 51.1296C9.28141 51.5715 8.75615 51.9219 8.17817 52.1608C7.6002 52.3997 6.98083 52.5224 6.35543 52.5219C5.73002 52.5215 5.11084 52.3978 4.53322 52.1581C3.9556 51.9183 3.43086 51.5671 2.98896 51.1246C2.09651 50.2308 1.59566 49.0191 1.5966 47.756C1.59706 47.1306 1.7207 46.5114 1.96046 45.9338C2.20022 45.3562 2.55141 44.8315 2.99396 44.3896L5.99396 41.3896C6.43088 40.9531 6.77748 40.4347 7.01396 39.8642C7.25044 39.2937 7.37216 38.6821 7.37216 38.0646C7.37216 37.447 7.25044 36.8354 7.01396 36.2649C6.77748 35.6944 6.43088 35.1761 5.99396 34.7396C5.84178 34.6017 5.64241 34.5276 5.43711 34.5326C5.23182 34.5377 5.03632 34.6215 4.89111 34.7667C4.7459 34.9119 4.6621 35.1074 4.65704 35.3127C4.65199 35.518 4.72607 35.7174 4.86396 35.8696C5.44469 36.4525 5.77076 37.2417 5.77076 38.0646C5.77076 38.8874 5.44469 39.6767 4.86396 40.2596L1.86396 43.2596C0.670486 44.453 -2.51506e-08 46.0717 0 47.7596C2.51506e-08 49.4474 0.670486 51.0661 1.86396 52.2596C3.05743 53.453 4.67613 54.1235 6.36396 54.1235C8.05179 54.1235 9.67049 53.453 10.864 52.2596L13.334 49.7796L14.014 50.4696C14.1664 50.6181 14.3711 50.7008 14.584 50.6996C14.7398 50.6979 14.8922 50.6529 15.024 50.5696L17.434 48.9596C18.3998 49.804 19.641 50.2663 20.924 50.2596C21.8451 50.272 22.7518 50.0298 23.544 49.5596L36.184 41.7496C38.1236 40.4961 39.9386 39.0595 41.604 37.4596L51.304 27.7596C52.9027 26.0561 54.1859 24.082 55.094 21.9296L56.204 19.0396C56.7374 19.4739 57.4061 19.7074 58.094 19.6996C58.4952 19.7032 58.8931 19.6263 59.2642 19.4734C59.6352 19.3206 59.9717 19.0948 60.254 18.8096L60.704 18.3696C60.8507 18.216 60.9331 18.012 60.934 17.7996C60.9352 17.5867 60.8525 17.382 60.704 17.2296C60.6308 17.1515 60.5426 17.089 60.4446 17.0461C60.3466 17.0031 60.2409 16.9805 60.134 16.9796Z" fill="black"/>
<path d="M61.7541 10.8496C61.6041 10.7 61.4009 10.616 61.1891 10.616C60.9772 10.616 60.774 10.7 60.6241 10.8496L57.3041 14.1596C57.1568 14.3108 57.0745 14.5135 57.0745 14.7246C57.0745 14.9356 57.1568 15.1384 57.3041 15.2896C57.3776 15.3649 57.4655 15.4247 57.5625 15.4656C57.6596 15.5064 57.7638 15.5274 57.8691 15.5274C57.9743 15.5274 58.0785 15.5064 58.1756 15.4656C58.2726 15.4247 58.3605 15.3649 58.4341 15.2896L61.7541 11.9796C61.9013 11.8284 61.9837 11.6256 61.9837 11.4146C61.9837 11.2035 61.9013 11.0008 61.7541 10.8496Z" fill="black"/>
<path d="M54.424 12.0796C54.4236 12.1835 54.4437 12.2864 54.4832 12.3825C54.5226 12.4786 54.5807 12.566 54.654 12.6396C54.7275 12.7149 54.8154 12.7747 54.9124 12.8156C55.0095 12.8564 55.1137 12.8775 55.219 12.8775C55.3242 12.8775 55.4284 12.8564 55.5255 12.8156C55.6225 12.7747 55.7104 12.7149 55.784 12.6396L59.104 9.32961C59.1782 9.25476 59.2369 9.16602 59.2768 9.06847C59.3167 8.97092 59.337 8.86647 59.3365 8.76107C59.3361 8.65568 59.3148 8.55141 59.2741 8.45421C59.2333 8.35702 59.1738 8.2688 59.099 8.19461C59.0241 8.12041 58.9354 8.06169 58.8378 8.02178C58.7403 7.98188 58.6358 7.96158 58.5304 7.96204C58.425 7.96251 58.3208 7.98373 58.2236 8.02449C58.1264 8.06525 58.0382 8.12475 57.964 8.19961L54.654 11.5596C54.5154 11.6984 54.4334 11.8837 54.424 12.0796Z" fill="black"/>
<path d="M51.764 9.41958C51.7618 9.5261 51.782 9.63189 51.8234 9.73009C51.8647 9.82829 51.9262 9.9167 52.004 9.98958C52.1552 10.1368 52.3579 10.2192 52.569 10.2192C52.78 10.2192 52.9827 10.1368 53.134 9.98958L56.494 6.66958C56.6042 6.55715 56.6787 6.4147 56.7084 6.26008C56.738 6.10546 56.7213 5.94554 56.6605 5.80034C56.5996 5.65514 56.4973 5.53113 56.3663 5.44383C56.2352 5.35654 56.0814 5.30983 55.924 5.30958C55.8201 5.30921 55.7171 5.32934 55.621 5.36881C55.525 5.40827 55.4376 5.4663 55.364 5.53957L52.004 8.85957C51.9275 8.93131 51.8667 9.0181 51.8254 9.11447C51.7841 9.21085 51.7632 9.31473 51.764 9.41958Z" fill="black"/>
<path d="M49.114 6.76955C49.1136 6.87343 49.1338 6.97636 49.1732 7.07246C49.2127 7.16855 49.2707 7.25591 49.344 7.32955C49.4176 7.40484 49.5055 7.46467 49.6025 7.50551C49.6995 7.54636 49.8037 7.5674 49.909 7.5674C50.0143 7.5674 50.1185 7.54636 50.2155 7.50551C50.3125 7.46467 50.4004 7.40484 50.474 7.32955L53.794 4.01955C53.9438 3.86838 54.0275 3.66387 54.0266 3.45102C54.0256 3.23816 53.9402 3.0344 53.789 2.88455C53.6378 2.7347 53.4333 2.65105 53.2205 2.65199C53.0076 2.65292 52.8038 2.73838 52.654 2.88955L49.344 6.19955C49.2695 6.27437 49.2108 6.36336 49.1713 6.46127C49.1318 6.55917 49.1123 6.66399 49.114 6.76955Z" fill="black"/>
<path d="M47.254 4.90959C47.3596 4.91128 47.4644 4.8918 47.5623 4.8523C47.6602 4.81279 47.7492 4.75407 47.824 4.67959L51.134 1.36959C51.2117 1.29671 51.2733 1.20831 51.3146 1.11011C51.356 1.01191 51.3762 0.906116 51.374 0.799591C51.3738 0.693408 51.3525 0.588321 51.3113 0.490459C51.2701 0.392598 51.2098 0.303915 51.134 0.229588C50.9828 0.0823722 50.7801 0 50.569 0C50.358 0 50.1553 0.0823722 50.004 0.229588L46.694 3.55959C46.6187 3.63317 46.5589 3.72105 46.5181 3.81808C46.4772 3.9151 46.4562 4.01931 46.4562 4.12459C46.4562 4.22986 46.4772 4.33407 46.5181 4.4311C46.5589 4.52813 46.6187 4.61601 46.694 4.68959C46.8444 4.83392 47.0456 4.91299 47.254 4.90959Z" fill="black"/>
<path d="M37.6241 29.3196L41.2841 25.6696C41.6056 25.3423 41.8594 24.9547 42.031 24.5292C42.2026 24.1037 42.2886 23.6484 42.2841 23.1896C42.2825 22.4952 42.0756 21.8168 41.6893 21.2397C41.303 20.6626 40.7547 20.2126 40.1133 19.9465C39.4719 19.6803 38.7661 19.6098 38.0848 19.7438C37.4034 19.8778 36.7769 20.2104 36.2841 20.6996L32.6641 24.3596C32.3407 24.6857 32.0857 25.0729 31.914 25.4988C31.7423 25.9247 31.6573 26.3805 31.6641 26.8396C31.6595 27.2984 31.7455 27.7537 31.9171 28.1792C32.0887 28.6047 32.3425 28.9923 32.6641 29.3196C32.9899 29.6522 33.3789 29.9165 33.8082 30.0968C34.2375 30.2772 34.6984 30.3701 35.1641 30.3701C35.6297 30.3701 36.0907 30.2772 36.5199 30.0968C36.9492 29.9165 37.3382 29.6522 37.6641 29.3196H37.6241ZM40.1541 24.5596L36.4941 28.1896C36.3187 28.3755 36.1079 28.5243 35.874 28.6272C35.6402 28.7301 35.388 28.7851 35.1325 28.7888C34.8771 28.7925 34.6234 28.7449 34.3867 28.6489C34.1499 28.5528 33.9348 28.4102 33.7541 28.2296C33.5735 28.0489 33.4309 27.8338 33.3348 27.597C33.2387 27.3603 33.1912 27.1066 33.1949 26.8512C33.1986 26.5957 33.2536 26.3435 33.3565 26.1097C33.4594 25.8758 33.6082 25.665 33.7941 25.4896L37.4941 21.8396C37.6694 21.6538 37.8802 21.505 38.1141 21.402C38.348 21.2991 38.6001 21.2442 38.8556 21.2405C39.1111 21.2367 39.3647 21.2843 39.6015 21.3804C39.8383 21.4764 40.0533 21.619 40.234 21.7997C40.4147 21.9804 40.5573 22.1954 40.6533 22.4322C40.7494 22.669 40.797 22.9226 40.7932 23.1781C40.7895 23.4336 40.7346 23.6857 40.6316 23.9196C40.5287 24.1535 40.3799 24.3643 40.1941 24.5396L40.1541 24.5596Z" fill="black"/>
<path d="M32.724 36.4796C32.8302 36.4794 32.9353 36.4581 33.0332 36.4169C33.131 36.3757 33.2197 36.3154 33.294 36.2396C33.4413 36.0884 33.5236 35.8857 33.5236 35.6746C33.5236 35.4636 33.4413 35.2608 33.294 35.1096L26.874 28.6996C26.8013 28.6193 26.7129 28.5546 26.6144 28.5095C26.5159 28.4643 26.4092 28.4397 26.3009 28.437C26.1926 28.4343 26.0848 28.4537 25.9842 28.494C25.8835 28.5342 25.7921 28.5944 25.7155 28.6711C25.6389 28.7477 25.5786 28.8391 25.5384 28.9397C25.4981 29.0404 25.4788 29.1481 25.4814 29.2565C25.4841 29.3648 25.5088 29.4715 25.5539 29.57C25.599 29.6685 25.6637 29.7568 25.744 29.8296L32.154 36.2396C32.2277 36.3164 32.3162 36.3772 32.4142 36.4185C32.5123 36.4598 32.6177 36.4806 32.724 36.4796Z" fill="black"/>
<path d="M30.084 39.1195C30.1902 39.1194 30.2953 39.098 30.3931 39.0568C30.491 39.0156 30.5797 38.9554 30.654 38.8795C30.8012 38.7283 30.8836 38.5256 30.8836 38.3145C30.8836 38.1035 30.8012 37.9008 30.654 37.7495L24.234 31.3395C24.1604 31.2642 24.0725 31.2044 23.9755 31.1636C23.8785 31.1227 23.7743 31.1017 23.669 31.1017C23.5637 31.1017 23.4595 31.1227 23.3625 31.1636C23.2654 31.2044 23.1776 31.2642 23.104 31.3395C22.9568 31.4908 22.8744 31.6935 22.8744 31.9045C22.8744 32.1156 22.9568 32.3183 23.104 32.4695L29.494 38.8795C29.5706 38.9578 29.6626 39.0195 29.7641 39.0608C29.8656 39.1021 29.9744 39.1221 30.084 39.1195Z" fill="black"/>
<path d="M21.864 34.5596C21.7066 34.5598 21.5527 34.6065 21.4217 34.6938C21.2907 34.7811 21.1883 34.9051 21.1275 35.0503C21.0666 35.1955 21.05 35.3555 21.0796 35.5101C21.1092 35.6647 21.1838 35.8071 21.294 35.9196L26.054 40.6796C26.1276 40.7549 26.2155 40.8147 26.3125 40.8555C26.4095 40.8964 26.5137 40.9174 26.619 40.9174C26.7243 40.9174 26.8285 40.8964 26.9255 40.8555C27.0225 40.8147 27.1104 40.7549 27.184 40.6796C27.2593 40.606 27.3191 40.5181 27.36 40.4211C27.4008 40.3241 27.4218 40.2198 27.4218 40.1146C27.4218 40.0093 27.4008 39.9051 27.36 39.8081C27.3191 39.711 27.2593 39.6231 27.184 39.5496L22.434 34.7896C22.2804 34.6428 22.0764 34.5605 21.864 34.5596Z" fill="black"/>
</svg>
